<?xml version="1.0" standalone="no"?>
<!DOCTYPE svg PUBLIC "-//W3C//DTD SVG 20010904//EN"
 "http://www.w3.org/TR/2001/REC-SVG-20010904/DTD/svg10.dtd">
<svg version="1.0" xmlns="http://www.w3.org/2000/svg"
 width="300.000000pt" height="300.000000pt" viewBox="0 0 300.000000 300.000000"
 preserveAspectRatio="xMidYMid meet">

<g transform="translate(0.000000,300.000000) scale(0.100000,-0.100000)"
fill="#000000" stroke="none">
<path d="M0 2719 c0 -212 3 -279 13 -282 10 -4 10 -6 0 -6 -8 -1 -13 -14 -13
-31 l0 -29 215 1 215 1 0 23 c0 26 0 26 -87 26 -29 0 -53 3 -53 8 0 10 88 17
126 9 16 -3 40 -2 53 3 13 5 185 9 382 9 340 0 358 1 382 19 21 17 41 20 130
20 58 0 116 -4 130 -9 37 -14 741 -22 925 -10 90 6 165 9 168 7 2 -3 -3 -24
-11 -48 -8 -23 -15 -66 -15 -96 0 -29 -4 -56 -10 -59 -5 -3 -10 -17 -10 -31 0
-14 -7 -27 -15 -29 -8 -3 -22 -7 -30 -10 -13 -4 -12 -8 5 -25 11 -11 20 -25
20 -31 0 -5 4 -8 9 -5 5 4 7 -2 4 -12 -2 -11 1 -25 9 -33 7 -8 14 -27 15 -44
1 -16 7 -31 12 -33 5 -2 8 -11 5 -20 -5 -15 -4 -15 6 1 12 18 45 23 54 8 3 -4
-3 -16 -14 -26 -13 -12 -20 -14 -20 -6 0 7 -6 11 -12 8 -7 -2 -20 -1 -29 4
-13 7 -19 2 -27 -19 -12 -32 -12 -63 0 -56 5 3 6 9 3 13 -5 9 42 21 81 21 28
0 31 -12 9 -34 -11 -11 -22 -13 -38 -7 -13 5 -30 5 -38 1 -17 -10 -38 -8 -57
3 -7 5 -38 1 -68 -8 -42 -12 -54 -19 -45 -28 16 -16 53 -17 47 0 -4 9 3 8 21
-4 26 -17 27 -17 20 1 -6 14 -4 16 5 9 7 -6 46 -9 85 -8 70 3 73 3 71 -19 -2
-18 -8 -22 -28 -21 -14 2 -33 6 -42 10 -10 4 -18 3 -18 -2 0 -5 -7 -10 -15
-10 -8 0 -15 4 -15 9 0 5 -9 4 -19 -2 -25 -13 -34 -13 -26 0 3 6 0 10 -7 11
-7 0 -23 2 -35 3 -13 2 -23 -1 -23 -6 0 -4 -5 -8 -11 -8 -5 0 -8 4 -4 9 14 24
-46 34 -213 38 -129 3 -172 1 -170 -8 4 -18 -62 -55 -71 -40 -8 13 -41 5 -41
-10 0 -5 -5 -9 -11 -9 -5 0 -7 6 -3 13 5 8 2 8 -9 -2 -11 -9 -17 -10 -17 -2 0
16 -16 14 -34 -5 -9 -8 -17 -13 -17 -10 -1 3 -3 11 -4 16 -1 6 -3 16 -4 23 -1
9 -3 9 -10 -1 -8 -14 -94 -14 -116 0 -8 5 -49 4 -84 -1 -2 -1 4 -11 15 -23 12
-13 13 -18 4 -13 -31 19 -39 14 -33 -18 5 -22 3 -28 -6 -23 -7 5 -10 14 -7 22
3 8 0 14 -5 14 -7 0 -9 -11 -7 -25 3 -13 1 -22 -3 -19 -11 7 -11 -7 -1 -24 5
-7 15 -10 24 -7 9 4 19 -4 28 -22 11 -23 14 -25 18 -10 2 10 -4 27 -14 38 -13
14 -14 22 -5 32 6 8 7 18 3 22 -4 5 -2 5 5 1 6 -3 15 -2 18 4 4 6 14 9 23 6
23 -7 114 -7 192 -1 36 3 71 2 78 -3 18 -12 4 -42 -19 -42 -10 0 -19 -5 -19
-11 0 -5 4 -7 10 -4 5 3 10 3 10 -2 0 -12 -36 -64 -41 -59 -9 10 -59 14 -54 5
8 -12 -2 -11 -28 2 -22 12 -22 12 -4 -9 16 -17 24 -19 45 -11 30 12 45 1 47
-36 0 -18 -4 -25 -17 -25 -10 0 -18 -4 -18 -8 0 -5 13 -7 29 -4 23 3 29 0 33
-20 7 -36 -1 -49 -21 -39 -19 11 -50 -3 -38 -16 5 -4 11 -2 15 4 14 22 34 -2
24 -28 -5 -13 -6 -33 -2 -44 6 -17 8 -16 14 10 4 17 8 32 8 35 -1 19 36 39 72
40 22 0 48 1 56 1 8 1 24 -2 34 -7 14 -5 17 -4 12 4 -5 8 4 12 28 12 20 0 36
4 36 8 0 5 15 7 33 5 17 -1 51 5 74 13 39 14 47 14 93 -1 50 -16 62 -29 38
-38 -7 -3 1 -6 17 -6 22 -1 33 -8 42 -27 7 -15 10 -30 8 -35 -3 -4 0 -20 6
-36 6 -15 11 -71 11 -123 0 -52 2 -98 5 -103 8 -14 35 24 44 61 5 24 4 39 -3
43 -15 10 0 29 23 29 24 0 24 -23 0 -75 -21 -47 -100 -149 -109 -141 -3 3 -23
-22 -44 -57 -21 -35 -55 -79 -74 -98 l-37 -34 37 48 c20 27 36 59 36 71 0 29
-22 76 -36 76 -6 0 -28 25 -49 55 -20 30 -45 55 -53 55 -12 0 -13 -3 -4 -12
22 -22 13 -47 -20 -61 -29 -13 -36 -12 -60 4 -14 11 -30 19 -36 19 -5 0 -15 7
-22 15 -10 13 -10 19 5 35 23 25 9 25 -50 0 -26 -11 -56 -20 -68 -20 -43 0
-51 -15 -59 -107 -4 -48 -10 -108 -12 -133 -2 -25 -9 -57 -16 -72 -11 -23 -16
-25 -37 -17 -32 12 -43 11 -43 -2 0 -5 5 -7 10 -4 16 10 11 -1 -7 -16 -11 -10
-14 -10 -9 -1 4 6 3 12 -2 12 -6 0 -12 -7 -16 -15 -3 -8 -1 -15 5 -15 6 0 7
-5 4 -10 -4 -6 -10 -8 -15 -5 -4 2 -13 -17 -20 -42 -6 -26 -15 -52 -20 -58 -4
-5 -13 -28 -19 -50 -7 -28 -20 -46 -41 -58 -17 -10 -37 -29 -46 -42 -26 -40
-58 -55 -93 -45 -17 5 -44 5 -59 0 -54 -15 -98 25 -151 134 -22 45 -43 99 -48
121 -11 55 -50 75 -99 51 -19 -8 -34 -20 -34 -26 0 -23 -16 -7 -33 34 -10 24
-27 52 -37 61 -10 9 -17 22 -14 28 6 17 -36 41 -49 28 -6 -6 -28 -8 -53 -4
-37 5 -43 3 -55 -18 -7 -13 -13 -26 -13 -29 -1 -3 -4 -4 -8 -3 -4 2 -5 -4 -2
-12 4 -10 0 -15 -10 -15 -9 0 -26 -9 -38 -19 -11 -11 -38 -23 -59 -26 -21 -4
-49 -15 -63 -26 -29 -23 -36 -24 -36 -4 0 9 -6 12 -16 8 -9 -3 -21 3 -31 17
l-16 22 -26 -44 c-43 -72 -91 -138 -101 -138 -5 0 -18 -17 -29 -38 -11 -21
-30 -43 -43 -49 -29 -14 -70 -15 -62 -2 3 6 13 8 21 5 20 -8 53 11 53 31 0 15
-2 15 -13 -1 -13 -17 -14 -17 -30 -1 -10 9 -25 14 -33 11 -10 -4 -14 -1 -11 6
2 8 20 12 43 12 21 -1 42 3 46 10 5 7 8 4 8 -8 0 -44 58 71 103 207 8 21 -9
23 -17 1 -5 -12 -17 -4 -56 35 -28 28 -58 51 -67 51 -13 0 -14 -3 -5 -12 27
-27 14 -53 -40 -76 -52 -22 -52 -22 -73 -2 -12 11 -29 20 -38 20 -9 0 -17 7
-17 16 0 34 24 94 37 94 7 0 19 12 26 28 17 38 47 57 47 30 0 -24 17 -40 46
-43 16 -2 40 -7 54 -10 19 -5 32 0 50 17 14 13 37 29 52 35 20 9 25 17 21 32
-3 12 -8 22 -12 22 -3 1 -21 3 -40 5 -45 5 -49 11 -18 25 21 9 30 9 42 -1 8
-7 17 -11 20 -8 9 9 -7 45 -27 57 -17 11 -30 8 -86 -15 -83 -34 -92 -41 -92
-68 -1 -18 -2 -19 -10 -4 -6 10 -18 14 -30 11 -11 -3 -17 -9 -14 -14 3 -5 0
-9 -5 -9 -6 0 -11 7 -11 15 0 27 -3 30 -77 63 -43 20 -81 31 -92 27 -19 -6
-36 -37 -47 -85 -12 -51 -10 -65 11 -66 11 -1 25 -2 31 -3 17 -2 54 -37 47
-45 -13 -13 34 -5 55 10 20 14 23 14 28 0 7 -17 -20 -66 -35 -66 -14 0 -91
-101 -85 -111 3 -5 -5 -9 -18 -9 l-23 -1 25 -14 c14 -8 21 -15 15 -15 -5 0 -4
-4 3 -8 9 -6 10 -16 3 -34 -7 -18 -6 -29 2 -37 6 -6 8 -11 3 -11 -9 0 -36 26
-36 35 0 3 5 3 10 0 6 -3 10 -1 10 4 0 6 -7 11 -15 11 -9 0 -18 7 -21 15 -15
39 -24 6 -24 -90 l0 -105 28 6 c41 8 61 -18 40 -54 -11 -21 -15 -59 -14 -164
1 -76 -2 -138 -6 -138 -4 0 -15 11 -24 25 -13 19 -15 38 -11 76 4 30 2 47 -3
44 -6 -4 -10 -37 -10 -74 0 -53 4 -72 18 -84 10 -10 23 -17 29 -17 6 0 16 -28
22 -62 25 -132 17 -119 69 -116 35 2 47 7 46 18 -1 9 5 21 12 28 17 15 19 0 4
-28 -10 -18 -1 -19 271 -20 l280 0 -7 22 c-45 142 -28 223 59 273 54 31 83 44
57 26 -13 -9 -13 -11 2 -11 9 0 20 5 23 10 9 15 35 12 35 -4 0 -19 -26 -40
-34 -27 -9 13 -44 8 -83 -13 -44 -22 -42 -30 3 -11 52 22 84 20 84 -5 0 -15
-7 -20 -27 -21 -28 0 -28 0 -5 -10 27 -10 27 -51 0 -55 -9 -1 -24 -7 -35 -13
-16 -11 -15 -11 6 -5 22 6 23 4 19 -30 -2 -20 -1 -36 3 -36 4 0 9 -11 12 -25
4 -22 -2 -29 -32 -45 -44 -23 -37 -26 13 -5 20 8 36 11 36 6 0 -5 -6 -11 -13
-14 -6 -3 93 -5 222 -6 l234 -2 61 32 c72 37 130 89 147 133 7 17 13 32 15 34
1 2 17 -6 35 -17 38 -23 98 -28 117 -9 9 9 12 9 12 -1 0 -8 6 -11 15 -7 8 3
15 1 15 -4 0 -5 9 -6 22 -1 23 8 74 -3 93 -21 6 -5 -3 -4 -18 1 -39 15 -63 14
-104 -5 -34 -17 -34 -17 -31 -75 2 -37 7 -59 15 -59 6 0 14 6 16 13 4 9 6 9 6
0 1 -10 29 -13 107 -13 l106 0 -6 43 -5 42 11 -42 c11 -42 12 -43 54 -43 l44
0 0 44 c0 52 19 78 74 100 l39 16 -7 -30 c-3 -17 0 -53 6 -80 10 -44 14 -50
37 -50 31 0 61 37 35 42 -10 2 8 19 46 43 65 42 83 44 114 17 14 -14 17 -26
12 -59 l-6 -43 89 0 c99 0 109 8 90 72 -5 18 -7 34 -4 36 7 8 25 -47 25 -79
l0 -29 200 0 200 0 0 103 0 103 -99 34 c-93 32 -99 33 -115 17 -10 -9 -22 -17
-27 -17 -14 0 -11 28 4 33 14 5 -15 18 -92 41 -55 15 -55 15 -88 -10 -18 -14
-45 -26 -60 -27 -23 -2 -29 4 -42 44 l-15 46 -76 13 c-41 7 -93 14 -115 16
-22 2 -50 6 -62 9 -27 6 -30 -10 -5 -24 9 -6 12 -11 6 -11 -6 0 -17 7 -24 15
-19 23 2 65 29 58 12 -3 21 -10 21 -17 0 -6 7 -2 15 8 15 19 15 19 15 -2 0
-23 11 -26 103 -25 20 0 37 -4 37 -9 0 -6 7 -5 15 2 11 9 15 9 15 1 0 -7 4
-10 9 -7 5 4 11 1 13 -6 3 -8 12 -2 22 15 14 20 26 27 50 27 18 0 41 7 52 15
28 21 32 19 36 -17 2 -17 10 -33 18 -36 12 -4 13 -2 3 9 -7 7 -13 24 -13 36 0
21 3 22 20 13 13 -7 31 -7 52 -1 33 9 33 9 5 10 -18 1 -26 5 -21 12 4 7 1 10
-7 7 -8 -3 -22 -1 -32 4 -14 7 -24 5 -40 -10 -36 -32 -88 -37 -56 -5 6 6 8 17
4 24 -6 9 -11 8 -20 -5 -12 -16 -16 -15 -50 9 -22 14 -53 25 -74 26 -234 5
-221 6 -215 -17 3 -12 1 -32 -6 -43 -10 -19 -13 -20 -26 -6 -13 12 -13 21 -3
56 l13 41 127 -3 c120 -3 130 -2 151 19 23 21 24 21 55 3 17 -11 34 -24 37
-30 14 -22 65 -11 103 22 l38 32 -28 -34 c-22 -26 -25 -36 -15 -42 8 -5 26 4
50 28 43 42 57 39 34 -8 -19 -37 -20 -42 -6 -34 9 5 112 -16 175 -36 17 -6 38
-12 48 -14 10 -2 27 -7 38 -10 18 -6 19 0 19 149 l0 156 -90 0 c-57 0 -90 4
-90 11 0 21 21 49 38 49 12 0 14 2 4 8 -10 7 -8 14 6 33 11 13 34 57 52 96 28
60 38 73 57 73 21 0 23 4 22 58 -1 53 -1 55 -11 27 -14 -37 -75 -142 -88 -150
-6 -3 -10 -13 -10 -21 0 -22 -81 -115 -93 -107 -6 3 -7 1 -3 -5 4 -7 1 -12 -6
-12 -9 0 -9 -3 2 -10 8 -5 11 -10 5 -10 -5 0 -4 -4 4 -9 19 -12 4 -31 -25 -31
-15 0 -24 6 -24 15 0 19 -29 19 -36 0 -4 -8 -12 -15 -19 -15 -7 0 -36 -30 -65
-66 -43 -55 -55 -65 -73 -59 -34 10 -58 8 -76 -9 -28 -25 -32 -19 -30 37 1 28
0 57 -2 62 -2 6 -1 11 4 13 22 7 36 -1 46 -28 6 -18 6 -30 0 -30 -5 0 -9 -7
-9 -15 0 -12 4 -13 19 -6 10 6 21 7 25 4 3 -3 6 -3 6 2 0 4 -8 14 -17 21 -15
11 -16 13 -3 17 66 19 75 24 72 40 -2 10 7 22 23 29 14 6 25 15 25 21 0 5 6 7
14 4 8 -3 20 1 26 9 10 11 10 14 -1 14 -17 0 -69 46 -69 61 0 6 5 7 10 4 6 -3
10 -1 10 5 0 7 16 9 49 4 63 -8 70 5 26 49 -19 19 -35 43 -35 53 0 16 2 17 10
4 5 -8 14 -16 20 -16 5 -1 14 -2 19 -3 5 0 17 -8 25 -17 14 -14 21 -13 66 12
28 15 50 34 50 43 0 19 -36 45 -44 32 -3 -5 1 -11 9 -15 22 -8 18 -36 -4 -36
-11 0 -32 5 -47 10 -26 10 -26 11 -8 25 17 12 16 13 -18 10 -21 -2 -43 -7 -49
-10 -8 -5 -9 -1 -4 14 3 11 3 21 -2 21 -13 0 -43 -55 -43 -80 0 -11 -4 -18
-10 -15 -5 3 -10 1 -10 -4 0 -6 -3 -11 -8 -11 -4 0 -7 32 -6 70 1 39 -2 70 -6
70 -4 0 -6 10 -4 22 1 13 3 23 4 23 1 0 3 12 5 28 2 15 0 25 -5 22 -10 -6 -7
86 3 103 4 6 23 16 42 22 19 6 35 16 35 21 0 5 10 14 23 19 20 8 21 9 2 11
-11 1 -26 1 -33 0 -11 -2 -11 2 -2 19 17 31 33 34 76 11 28 -15 40 -17 45 -9
11 17 3 26 -37 43 l-35 15 25 32 c85 110 131 122 203 52 l43 -41 0 758 0 757
-1500 -1 -1500 0 0 -278z m1758 227 c2 -3 1 -10 -3 -16 -7 -12 -803 -13 -845
0 -41 12 -5 19 110 22 151 4 732 -1 738 -6z m-878 -11 c0 -16 -20 -19 -57 -9
-32 9 -21 19 21 22 27 2 36 -1 36 -13z m1054 -3 c3 -5 -1 -9 -9 -9 -8 0 -12 4
-9 9 3 4 7 8 9 8 2 0 6 -4 9 -8z m-1484 -52 c0 -12 -25 -30 -42 -30 -20 0 -21
1 -12 24 6 14 54 20 54 6z m428 -12 c-6 -16 -32 -22 -66 -13 -20 5 -23 8 -11
16 22 14 81 11 77 -3z m876 -3 c5 -13 -44 -15 -398 -15 -222 0 -419 3 -437 7
-33 7 -33 7 -9 14 14 4 208 7 431 8 353 1 408 -1 413 -14z m-1366 -60 c-3 -3
-9 2 -12 12 -6 14 -5 15 5 6 7 -7 10 -15 7 -18z m-98 5 c0 -5 -8 -10 -17 -10
-15 0 -16 2 -3 10 19 12 20 12 20 0z m40 2 c0 -5 -7 -9 -15 -9 -8 0 -15 4 -15
9 0 4 7 8 15 8 8 0 15 -4 15 -8z m100 -2 c0 -5 -5 -10 -11 -10 -5 0 -7 5 -4
10 3 6 8 10 11 10 2 0 4 -4 4 -10z m50 0 c0 -5 -7 -10 -16 -10 -8 0 -12 5 -9
10 3 6 10 10 16 10 5 0 9 -4 9 -10z m85 0 c3 -6 -4 -10 -17 -10 -18 0 -20 2
-8 10 19 12 18 12 25 0z m35 -4 c0 -3 -4 -8 -10 -11 -5 -3 -10 -1 -10 4 0 6 5
11 10 11 6 0 10 -2 10 -4z m280 -11 c0 -15 -19 -19 -75 -15 -44 3 -54 14 -20
21 57 12 95 10 95 -6z m868 3 c-4 -10 -92 -13 -421 -15 -242 -1 -417 1 -417 7
0 15 34 16 443 19 322 1 398 -1 395 -11z m372 0 c0 -4 -4 -8 -9 -8 -6 0 -12 4
-15 8 -3 5 1 9 9 9 8 0 15 -4 15 -9z m-1631 -11 c-2 -1 -12 -9 -21 -16 -15
-12 -18 -11 -18 3 0 10 8 16 22 16 12 0 19 -1 17 -3z m381 -63 c0 -11 -16 -14
-74 -14 -77 0 -113 14 -48 18 20 2 38 4 40 6 1 2 21 4 42 4 28 1 40 -3 40 -14z
m648 7 c144 -1 222 -5 222 -11 0 -13 -847 -12 -855 1 -6 8 202 16 340 12 39
-1 170 -2 293 -2z m-655 -74 c-2 -4 -3 -11 -3 -15 0 -4 -26 -7 -57 -6 -32 2
-68 3 -80 3 -27 1 -31 18 -5 23 34 6 147 3 145 -5z m-228 -7 c-3 -5 -12 -10
-18 -10 -7 0 -6 4 3 10 19 12 23 12 15 0z m35 0 c0 -5 -5 -10 -11 -10 -5 0 -7
5 -4 10 3 6 8 10 11 10 2 0 4 -4 4 -10z m600 -2 c0 -4 -43 -8 -95 -8 -60 0
-95 4 -95 10 0 7 34 10 95 9 52 -2 95 -6 95 -11z m30 2 c0 -5 -4 -10 -10 -10
-5 0 -10 5 -10 10 0 6 5 10 10 10 6 0 10 -4 10 -10z m358 -5 c3 -3 -7 -5 -21
-5 -15 0 -27 4 -27 9 0 10 38 7 48 -4z m72 4 c0 -5 -12 -9 -26 -9 -14 0 -23 4
-20 8 7 11 46 12 46 1z m-1080 -104 c20 -25 -5 -45 -57 -45 -47 0 -65 18 -43
45 16 20 84 19 100 0z m286 4 c4 -8 9 -8 17 0 6 6 21 11 34 11 19 0 23 -5 23
-30 0 -20 -5 -30 -15 -30 -8 0 -15 5 -15 12 0 9 -3 9 -12 0 -16 -16 -48 -15
-49 1 0 10 -2 10 -6 0 -10 -26 -33 -13 -33 17 0 25 4 30 24 30 14 0 28 -5 32
-11z m237 3 c-8 -5 -9 -13 -3 -22 16 -26 11 -30 -35 -30 -43 0 -45 1 -45 30 0
29 1 30 48 30 26 0 42 -4 35 -8z m127 -12 c0 -13 7 -20 20 -20 11 0 20 -4 20
-10 0 -5 -18 -10 -40 -10 -38 0 -40 2 -40 30 0 23 4 30 20 30 13 0 20 -7 20
-20z m160 10 c0 -5 9 -10 20 -10 11 0 20 5 20 10 0 6 7 10 15 10 10 0 15 -10
15 -30 0 -20 -5 -30 -15 -30 -8 0 -15 5 -15 10 0 6 -9 10 -20 10 -11 0 -20 -4
-20 -10 0 -5 -7 -10 -15 -10 -10 0 -15 10 -15 30 0 20 5 30 15 30 8 0 15 -4
15 -10z m268 -17 c2 -17 -3 -24 -21 -28 -42 -11 -81 -2 -85 19 -5 26 16 37 63
34 33 -3 41 -7 43 -25z m190 -3 c-1 -22 -6 -30 -20 -30 -10 0 -18 5 -18 10 0
6 -7 10 -15 10 -8 0 -15 -4 -15 -10 0 -5 -7 -10 -15 -10 -10 0 -15 10 -15 30
0 29 1 30 49 30 49 0 50 -1 49 -30z m332 15 c20 -25 -5 -45 -56 -45 -42 0 -44
1 -44 30 0 29 2 30 44 30 26 0 48 -6 56 -15z m200 0 c19 -23 -5 -45 -50 -45
-45 0 -69 22 -50 45 7 8 29 15 50 15 21 0 43 -7 50 -15z m-2310 -117 c0 -4 -7
-8 -15 -8 -8 0 -15 4 -15 8 0 5 7 9 15 9 8 0 15 -4 15 -9z m55 2 c-3 -5 -12
-10 -20 -10 -8 0 -17 5 -20 10 -4 6 5 10 20 10 15 0 24 -4 20 -10z m85 0 c0
-6 -11 -8 -27 -4 -40 10 -41 14 -5 14 18 0 32 -5 32 -10z m2350 -204 c0 -2 -8
-10 -17 -17 -16 -13 -17 -12 -4 4 13 16 21 21 21 13z m-50 -70 c0 -3 -4 -8
-10 -11 -5 -3 -10 -1 -10 4 0 6 5 11 10 11 6 0 10 -2 10 -4z m54 -11 c4 -11
-2 -15 -25 -15 -17 0 -28 4 -24 10 3 5 12 7 20 3 8 -3 15 0 15 6 0 16 7 14 14
-4z m-4 -78 c0 -18 -2 -19 -10 -7 -13 20 -13 43 0 35 6 -3 10 -16 10 -28z
m-40 -7 c-9 -6 -19 -5 -25 1 -6 6 -5 13 5 19 9 6 19 5 25 -1 6 -6 5 -13 -5
-19z m-820 -244 c0 -3 -4 -8 -10 -11 -5 -3 -10 -1 -10 4 0 6 5 11 10 11 6 0
10 -2 10 -4z m800 -11 c20 1 40 4 46 7 6 4 11 -7 12 -25 2 -17 0 -28 -4 -24
-4 4 -14 1 -22 -6 -9 -6 -13 -7 -10 -2 4 6 -2 16 -13 23 -15 10 -19 10 -19 0
0 -10 -2 -10 -8 -1 -6 9 -17 10 -42 3 -25 -7 -36 -6 -42 3 -13 21 -9 28 16 21
14 -3 27 -1 31 6 4 7 10 8 14 3 3 -5 22 -9 41 -8z m56 -90 c-7 -18 -56 -20
-56 -2 0 7 10 14 22 14 13 1 25 8 27 15 4 11 5 11 9 0 2 -7 1 -19 -2 -27z
m-66 -12 c0 -10 -4 -14 -8 -8 -4 6 -11 13 -16 18 -5 4 -2 7 7 7 10 0 17 -8 17
-17z m210 -178 c-15 -18 -50 -39 -50 -30 0 3 12 17 27 31 28 26 45 25 23 -1z
m-300 -225 c0 -5 -5 -10 -11 -10 -5 0 -7 5 -4 10 3 6 8 10 11 10 2 0 4 -4 4
-10z m-2370 -180 c12 -8 9 -10 -12 -10 -14 0 -28 -4 -30 -10 -2 -6 -9 -6 -18
0 -12 7 -10 11 10 19 32 12 32 13 50 1z m40 0 c0 -5 -5 -10 -11 -10 -5 0 -7 5
-4 10 3 6 8 10 11 10 2 0 4 -4 4 -10z m1963 -43 c70 -14 76 -33 9 -28 -54 4
-137 40 -92 40 14 0 51 -5 83 -12z m-1663 -27 c0 -5 -5 -10 -11 -10 -5 0 -7 5
-4 10 3 6 8 10 11 10 2 0 4 -4 4 -10z m1575 -20 c14 -22 74 -39 107 -30 41 12
48 6 13 -12 -21 -12 -36 -12 -69 -4 -44 11 -76 31 -76 47 0 12 17 11 25 -1z
m0 -110 c43 -22 105 -26 122 -9 9 9 11 7 6 -9 -8 -31 -25 -42 -71 -44 -27 -1
-39 -5 -35 -12 10 -17 -29 14 -59 47 -16 16 -28 41 -28 55 0 23 1 24 13 9 6
-9 30 -26 52 -37z m-966 -74 c12 -25 21 -61 20 -87 l-1 -44 -17 65 c-9 36 -25
81 -36 100 -15 29 -15 33 -2 22 9 -8 25 -33 36 -56z m1149 39 c-6 -14 -13 -23
-15 -21 -5 5 15 46 22 46 3 0 -1 -11 -7 -25z m57 -62 c-4 -40 -3 -43 4 -16 17
66 55 86 45 25 -5 -32 -2 -43 20 -70 l27 -31 -28 -15 c-31 -15 -82 -11 -84 8
-1 6 0 21 1 33 1 14 -8 28 -24 39 -14 9 -26 23 -26 31 0 8 -4 11 -10 8 -5 -3
-10 -2 -10 2 0 10 46 30 72 32 15 1 17 -6 13 -46z m-2035 -33 c8 -5 12 -11 10
-14 -3 -2 -14 2 -24 10 -22 15 -10 19 14 4z m510 -5 c33 -17 60 -52 60 -77 0
-24 -39 -58 -68 -58 -27 0 -58 15 -88 41 -16 15 -26 17 -51 10 -38 -11 -42 -8
-35 24 4 21 9 24 36 21 24 -3 37 3 58 25 30 33 47 35 88 14z m-420 -5 c-20
-13 -70 -13 -70 0 0 6 19 10 43 10 31 0 38 -3 27 -10z m2160 -32 c0 -6 -3 -8
-6 -5 -4 3 -16 2 -28 -4 -20 -10 -20 -10 -2 5 24 19 36 20 36 4z m443 -32 c8
-20 -8 -38 -29 -34 -22 4 -31 37 -13 48 15 10 36 3 42 -14z m-1184 -5 c19 -19
19 -19 -2 -25 -20 -6 -21 -7 -4 -17 9 -5 17 -19 17 -31 0 -17 -5 -20 -29 -16
-17 2 -28 1 -25 -4 3 -4 11 -8 18 -8 8 0 19 -6 25 -14 9 -11 5 -11 -25 -2 -34
11 -35 13 -30 48 7 42 23 88 31 88 3 0 14 -9 24 -19z m-594 -2 c-4 -6 -1 -9 6
-8 8 1 22 -1 32 -6 14 -6 15 -10 6 -21 -10 -12 -9 -13 5 -8 19 7 22 -11 4 -20
-7 -3 -3 -3 8 -1 32 8 39 -22 12 -46 l-23 -20 24 11 c19 10 22 9 19 -1 -3 -8
1 -20 9 -27 20 -20 16 -30 -19 -52 -43 -26 -61 -26 -53 0 4 11 2 20 -4 20 -6
0 -8 8 -4 18 3 9 3 14 -2 10 -15 -14 -34 25 -23 46 6 11 6 16 0 12 -5 -3 -10
4 -10 17 -1 12 -3 31 -5 42 -3 11 0 26 6 33 12 15 21 16 12 1z m1291 3 c6 -4
10 -36 10 -74 -1 -77 -9 -76 -29 2 -13 52 -15 55 -43 52 -16 -2 -41 -11 -55
-22 -24 -17 -26 -17 -22 -2 9 33 108 65 139 44z m-1916 -35 c-24 -12 -70 -71
-70 -89 0 -5 14 -7 33 -3 56 11 70 17 59 24 -6 4 -5 11 4 19 12 11 14 9 14
-13 0 -14 6 -34 12 -45 11 -17 9 -22 -10 -36 -12 -8 -29 -29 -38 -45 -12 -24
-21 -30 -42 -27 -19 2 -34 -5 -50 -22 l-23 -25 5 40 c3 22 8 75 12 119 7 74 9
79 38 97 17 10 42 19 56 19 l25 0 -25 -13z m127 -27 c21 -11 44 -20 51 -20 7
0 11 -4 8 -9 -4 -5 3 -7 14 -4 24 6 27 -14 6 -43 -14 -18 -15 -18 -21 -1 -6
13 -11 15 -20 7 -9 -8 -17 -6 -28 5 -9 8 -17 11 -19 6 -2 -5 -14 -11 -28 -13
-22 -3 -25 1 -28 30 -4 39 3 62 18 62 5 0 27 -9 47 -20z m650 -40 c-3 -11 -1
-18 3 -15 15 9 23 -17 9 -27 -12 -7 -11 -8 1 -7 21 3 50 -11 50 -23 0 -7 -5
-6 -14 1 -7 6 -20 9 -28 6 -11 -4 -20 6 -32 35 -20 50 -20 50 0 50 11 0 15 -6
11 -20z m361 -12 c-6 -18 -16 -38 -22 -43 -6 -6 -10 -9 -9 -6 2 2 -2 11 -9 18
-9 12 -6 19 18 38 16 14 30 24 31 25 1 0 -3 -15 -9 -32z m387 -78 c-9 -9 -31
-25 -50 -36 -34 -18 -34 -18 -60 6 -33 31 -32 40 5 40 20 0 40 10 62 33 l33
33 13 -29 c10 -25 10 -33 -3 -47z m96 69 c19 -10 19 -10 0 -38 -17 -23 -18
-28 -5 -37 12 -7 8 -9 -15 -10 -17 -1 -31 3 -31 7 0 5 6 9 13 9 8 0 9 3 1 8
-6 4 -16 22 -22 40 -10 30 -10 32 14 32 14 0 34 -5 45 -11z m-420 -10 c20 -10
20 -11 -2 -30 -12 -10 -25 -19 -29 -19 -14 0 -27 23 -23 41 6 21 25 24 54 8z
m-117 -40 c-3 -5 -10 -7 -15 -3 -5 3 -7 10 -3 15 3 5 10 7 15 3 5 -3 7 -10 3
-15z m-926 -30 c4 -36 -47 -79 -93 -79 -39 0 -56 18 -48 51 9 39 42 59 93 57
40 -3 45 -6 48 -29z m916 10 c25 6 51 11 59 11 22 0 28 -40 10 -71 -16 -26
-25 -33 -83 -57 -24 -10 -24 -11 -2 -11 20 -1 26 -13 21 -47 0 -4 5 -11 13
-15 32 -21 -26 -7 -73 16 -51 26 -57 45 -13 45 57 0 10 29 -70 42 -28 5 -30
-17 -4 -42 40 -39 69 -53 162 -85 78 -26 92 -34 100 -58 12 -34 0 -58 -37 -71
-21 -8 -46 1 -145 48 -115 55 -170 68 -178 41 -3 -10 93 -60 109 -57 4 1 7 -2
7 -7 0 -5 -23 -17 -51 -27 -27 -10 -54 -24 -60 -30 -5 -6 21 -1 58 12 76 27
103 30 103 12 0 -16 -50 -50 -112 -78 -27 -12 -48 -23 -48 -26 0 -7 51 6 83
21 15 8 25 10 22 5 -8 -13 -131 -80 -147 -80 -18 0 -48 112 -48 179 0 63 -22
69 -48 14 -23 -50 -51 -73 -87 -71 -41 2 -96 -12 -90 -22 3 -4 -4 -6 -15 -3
-11 3 -20 1 -20 -5 0 -6 -9 -8 -19 -5 -29 7 -52 66 -54 136 l-2 62 84 42 c56
28 102 60 139 97 66 66 122 91 190 83 26 -3 65 -2 87 2 22 4 57 3 77 -2 25 -6
53 -6 82 2z m121 -38 c-16 -16 -31 -27 -33 -26 -7 6 11 32 31 41 34 18 34 16
2 -15z m200 -1 c-3 -5 -14 -10 -23 -9 -14 0 -13 2 3 9 27 11 27 11 20 0z
m-1422 -42 c-27 -13 -30 -28 -6 -28 20 0 53 -28 53 -46 0 -36 -71 -50 -107
-21 -30 23 -8 83 37 100 28 10 46 6 23 -5z m-129 -14 c3 -8 2 -12 -4 -9 -6 3
-10 10 -10 16 0 14 7 11 14 -7z m596 -70 c0 -8 5 -14 11 -14 5 0 7 -5 3 -12
-6 -9 -9 -9 -11 -1 -3 7 -10 10 -18 7 -7 -3 -16 -1 -20 5 -3 6 -1 11 5 11 7 0
10 7 7 14 -4 10 -1 13 9 9 7 -3 14 -11 14 -19z m1228 12 c15 -7 63 -21 107
-30 78 -17 165 -51 165 -64 0 -4 -3 -17 -6 -30 l-6 -22 -52 29 c-28 15 -84 39
-123 51 -45 15 -83 34 -100 52 -30 31 -26 35 15 14z m-1738 -49 c25 -9 28 -15
23 -37 -3 -14 -16 -32 -27 -40 -12 -8 -33 -26 -47 -40 -28 -28 -99 -55 -99
-38 0 16 21 51 57 93 20 23 36 55 40 79 5 35 7 37 15 17 4 -12 21 -28 38 -34z
m470 49 c0 -2 -8 -10 -17 -17 -16 -13 -17 -12 -4 4 13 16 21 21 21 13z m1347
-2 c-3 -3 -12 -4 -19 -1 -8 3 -5 6 6 6 11 1 17 -2 13 -5z m277 -120 c4 -9 4
-25 0 -36 -4 -15 -9 -17 -20 -7 -21 18 -17 59 7 59 4 0 10 -7 13 -16z m-284
-39 c0 -8 -4 -15 -10 -15 -5 0 -10 7 -10 15 0 8 5 15 10 15 6 0 10 -7 10 -15z
m24 -11 c-5 -19 -4 -25 5 -20 6 4 11 3 11 -2 0 -15 -28 -23 -36 -11 -6 10 14
59 23 59 2 0 0 -12 -3 -26z m304 14 c-2 -6 -10 -14 -16 -16 -7 -2 -10 2 -6 12
7 18 28 22 22 4z m-2295 -18 c-3 -12 -8 -19 -11 -16 -5 6 5 36 12 36 2 0 2 -9
-1 -20z m2227 -21 c0 -11 -4 -17 -10 -14 -5 3 -10 15 -10 26 0 11 5 17 10 14
6 -3 10 -15 10 -26z m-1943 15 c-3 -3 -12 -4 -19 -1 -8 3 -5 6 6 6 11 1 17 -2
13 -5z m-234 -40 c-7 -3 -13 -12 -13 -20 0 -8 -4 -14 -10 -14 -5 0 -25 -14
-45 -31 -35 -31 -44 -26 -24 14 21 40 38 53 71 54 18 1 27 -1 21 -3z m2174
-29 c0 -8 -4 -12 -9 -9 -5 3 -6 10 -3 15 9 13 12 11 12 -6z m33 -5 c0 -5 -5
-10 -11 -10 -5 0 -7 5 -4 10 3 6 8 10 11 10 2 0 4 -4 4 -10z"/>
<path d="M583 2528 c2 -7 10 -13 17 -13 7 0 15 6 18 13 2 7 -5 12 -18 12 -13
0 -20 -5 -17 -12z"/>
<path d="M1650 2531 c0 -11 21 -19 38 -14 21 8 13 23 -13 23 -14 0 -25 -4 -25
-9z"/>
<path d="M1858 2543 c7 -3 16 -2 19 1 4 3 -2 6 -13 5 -11 0 -14 -3 -6 -6z"/>
<path d="M2180 2530 c0 -5 9 -10 20 -10 11 0 20 5 20 10 0 6 -9 10 -20 10 -11
0 -20 -4 -20 -10z"/>
<path d="M2380 2531 c0 -11 26 -22 34 -14 12 12 5 23 -14 23 -11 0 -20 -4 -20
-9z"/>
<path d="M670 703 c0 -17 29 -36 45 -29 8 3 15 11 15 18 0 9 -3 9 -10 -2 -7
-12 -12 -12 -29 4 -12 11 -21 14 -21 9z"/>
<path d="M2872 708 c6 -18 28 -21 28 -4 0 9 -7 16 -16 16 -9 0 -14 -5 -12 -12z"/>
<path d="M590 486 c0 -8 4 -17 9 -20 5 -4 7 3 4 14 -6 23 -13 26 -13 6z"/>
<path d="M1576 243 c-4 -10 0 -23 10 -32 15 -15 16 -14 7 4 -6 11 -8 26 -6 33
7 19 -4 14 -11 -5z"/>
<path d="M1266 2422 c-8 -14 30 -170 39 -161 2 3 -4 37 -14 77 -18 67 -18 73
-3 82 16 9 16 9 0 10 -9 0 -19 -4 -22 -8z"/>
<path d="M2395 2419 c-49 -15 -78 -43 -71 -67 6 -19 32 -32 134 -67 34 -12
-14 -65 -60 -65 -17 0 -40 8 -51 17 -18 17 -18 17 -6 -10 12 -26 15 -27 58
-21 25 3 60 14 76 23 54 30 39 83 -24 85 -16 1 -27 5 -24 10 3 5 -6 7 -20 4
-15 -3 -24 -2 -22 2 3 5 -2 10 -10 14 -29 11 -17 43 23 59 35 14 38 14 60 -6
22 -20 28 -14 16 17 -7 18 -33 19 -79 5z"/>
<path d="M1440 2323 c0 -117 8 -120 11 -5 1 64 5 85 18 92 13 8 12 9 -6 10
-22 0 -23 -3 -23 -97z"/>
<path d="M1651 2398 c-55 -27 -81 -69 -81 -130 0 -26 4 -49 8 -52 5 -3 7 16 5
42 -5 61 20 103 84 136 59 31 45 34 -16 4z"/>
<path d="M765 2399 c-22 -3 -30 -7 -18 -8 22 -1 22 -1 -8 -58 -16 -31 -37 -62
-46 -68 -9 -7 -13 -17 -9 -23 4 -7 2 -12 -4 -12 -17 0 -80 143 -66 152 19 12
2 15 -54 8 -50 -7 -51 -7 -15 -9 39 -1 41 -3 58 -47 14 -38 14 -44 2 -34 -8 7
-12 17 -8 23 3 6 1 7 -5 3 -9 -5 -7 -14 4 -31 9 -14 21 -22 27 -18 6 4 7 1 2
-6 -8 -14 33 -64 46 -56 4 3 5 -5 2 -17 -10 -41 14 -7 56 80 23 45 44 82 47
82 3 0 4 -7 0 -15 -3 -8 -1 -15 4 -15 6 0 10 -8 10 -17 0 -15 -2 -14 -15 3
-13 17 -14 17 -15 2 0 -9 8 -23 18 -30 10 -7 23 -29 29 -48 18 -56 16 2 -2 79
-12 51 -13 66 -3 72 20 12 6 15 -37 8z"/>
<path d="M2053 2403 c-15 -5 -7 -181 8 -197 5 -6 9 -1 9 13 0 21 4 23 36 19
29 -3 33 -2 20 7 -14 11 -14 13 2 27 18 17 102 22 102 6 0 -5 5 -6 11 -2 8 5
8 9 -1 14 -8 5 -8 10 -2 14 19 11 24 -28 5 -43 -16 -12 -16 -13 -1 -8 10 3 20
2 23 -3 3 -5 -9 -11 -27 -13 -25 -3 -21 -4 16 -5 38 -2 46 1 38 11 -18 22 -63
141 -58 154 4 9 -4 13 -21 13 -26 0 -26 -1 -7 -14 10 -8 16 -18 11 -22 -4 -4
-7 -1 -7 7 0 8 -8 2 -18 -12 -33 -51 -104 -120 -117 -115 -16 6 -25 132 -10
147 10 10 7 10 -12 2z m179 -60 c8 -31 -3 -43 -40 -43 l-36 0 29 30 c33 35 41
37 47 13z"/>
<path d="M967 2374 c-11 -14 -20 -32 -21 -40 -2 -13 -47 -80 -73 -109 -10 -10
-6 -14 19 -17 25 -4 28 -3 15 7 -14 10 -13 14 7 40 15 19 25 24 30 17 9 -15
43 -16 51 -2 4 7 -2 9 -18 5 -36 -10 -40 7 -10 50 20 29 22 37 9 32 -10 -4
-15 -3 -11 3 12 19 22 9 68 -65 l46 -75 -29 0 c-16 0 -31 -4 -34 -9 -3 -4 12
-5 34 -1 24 4 44 3 52 -4 7 -6 5 -2 -3 9 -41 53 -100 158 -95 171 9 24 -18 15
-37 -12z"/>
<path d="M1766 2372 c32 -66 -14 -128 -119 -161 -49 -16 -53 -19 -22 -14 122
17 201 118 145 184 l-20 24 16 -33z"/>
<path d="M1923 2392 c-8 -5 7 -31 49 -85 34 -42 64 -75 67 -72 3 4 1 9 -5 13
-5 4 -31 33 -57 66 -37 46 -45 61 -36 72 12 15 2 19 -18 6z"/>
<path d="M1207 2348 c-4 -24 -9 -58 -13 -77 -5 -23 -4 -32 3 -28 6 4 14 32 18
63 4 32 9 63 12 71 3 7 1 13 -5 13 -5 0 -12 -19 -15 -42z"/>
<path d="M541 2350 c0 -14 3 -54 7 -90 l8 -65 -278 3 -278 4 0 -22 0 -22 253
6 c212 5 417 20 340 25 -21 1 -23 6 -23 69 -1 39 -7 77 -15 92 l-14 25 0 -25z"/>
<path d="M566 2345 c4 -8 10 -12 15 -9 11 6 2 24 -11 24 -5 0 -7 -7 -4 -15z"/>
<path d="M1871 2343 c-1 -25 25 -133 35 -142 7 -7 -4 54 -21 118 -7 25 -14 36
-14 24z"/>
<path d="M0 2327 l0 -23 225 0 c220 1 226 2 223 21 -3 19 -12 20 -225 23
l-223 2 0 -23z"/>
<path d="M1350 2285 c-24 -31 -40 -58 -37 -61 3 -3 24 20 48 51 23 30 40 58
37 61 -3 2 -24 -20 -48 -51z"/>
<path d="M0 2253 l0 -24 211 5 c115 2 223 1 238 -4 28 -8 28 -7 18 19 l-10 26
-228 1 -229 0 0 -23z"/>
<path d="M786 2237 c3 -10 9 -15 12 -12 3 3 0 11 -7 18 -10 9 -11 8 -5 -6z"/>
<path d="M1150 2230 c-11 -7 -4 -10 25 -9 31 0 36 2 20 9 -26 11 -28 11 -45 0z"/>
<path d="M1398 2213 c7 -3 16 -2 19 1 4 3 -2 6 -13 5 -11 0 -14 -3 -6 -6z"/>
<path d="M1443 2213 c9 -2 23 -2 30 0 6 3 -1 5 -18 5 -16 0 -22 -2 -12 -5z"/>
<path d="M783 2193 c15 -2 37 -2 50 0 12 2 0 4 -28 4 -27 0 -38 -2 -22 -4z"/>
<path d="M926 2181 c-11 -18 56 -30 201 -36 118 -5 144 -4 129 6 -11 7 -51 13
-90 15 -39 1 -84 7 -99 13 -34 13 -134 15 -141 2z"/>
<path d="M1918 2183 c7 -3 16 -2 19 1 4 3 -2 6 -13 5 -11 0 -14 -3 -6 -6z"/>
<path d="M0 2122 l0 -32 259 2 259 1 5 26 c6 31 -1 42 -13 20 -7 -11 -18 -15
-36 -11 -21 4 -25 2 -19 -9 7 -11 6 -12 -6 -3 -9 8 -83 12 -224 13 -151 1
-211 5 -217 14 -5 7 -8 -1 -8 -21z"/>
<path d="M812 2130 c-68 -42 -45 -83 52 -97 33 -4 61 -13 63 -20 3 -7 -10 -21
-28 -32 -29 -18 -35 -18 -61 -5 -34 17 -36 12 -6 -18 l21 -21 45 24 c88 47 78
86 -24 100 -72 10 -87 24 -55 50 24 20 34 20 76 3 20 -7 20 -7 1 14 -24 27
-42 28 -84 2z"/>
<path d="M596 2128 l22 -10 -31 -87 c-17 -47 -38 -91 -46 -98 -13 -10 -9 -12
27 -13 23 0 42 5 42 10 0 6 -4 10 -10 10 -14 0 -12 26 3 38 6 5 32 12 57 13
37 3 45 1 48 -14 2 -10 -5 -25 -15 -33 -16 -13 -11 -14 47 -8 79 8 90 14 58
28 -33 14 -151 152 -143 166 4 6 -10 10 -37 9 -37 0 -40 -2 -22 -11z m84 -105
c0 -8 -14 -13 -35 -13 -19 0 -35 2 -35 5 0 2 8 20 17 40 l17 35 18 -28 c10
-15 18 -33 18 -39z"/>
<path d="M2347 2129 c-96 -15 -106 -61 -23 -97 54 -24 65 -41 41 -59 -26 -18
-75 -16 -98 5 -20 16 -20 16 -14 -1 4 -10 7 -23 7 -28 0 -17 94 -10 128 11 51
31 42 58 -30 90 -58 26 -64 34 -36 54 32 22 63 20 81 -6 l16 -23 0 26 c1 33
-11 37 -72 28z"/>
<path d="M2053 2113 c10 -3 17 -10 14 -16 -2 -7 -12 -42 -22 -79 -10 -38 -22
-68 -26 -68 -5 0 -9 -4 -9 -8 0 -5 14 -7 30 -4 26 4 28 6 15 16 -23 17 1 42
47 49 30 5 40 2 48 -12 6 -12 5 -22 -2 -29 -9 -9 -6 -12 13 -12 13 0 34 3 46
6 20 6 18 9 -28 58 -28 28 -58 63 -67 79 -12 20 -24 27 -47 26 -18 -1 -23 -3
-12 -6z m62 -63 c15 -29 15 -30 -10 -36 -14 -4 -28 -4 -31 -2 -4 5 15 68 22
68 2 0 10 -13 19 -30z"/>
<path d="M1006 2100 c-30 -9 -46 -25 -46 -48 0 -7 25 -24 56 -38 63 -28 69
-52 16 -68 -26 -7 -36 -5 -54 10 -20 18 -21 18 -15 1 4 -10 7 -23 7 -29 0 -16
85 -4 115 16 42 27 32 54 -29 81 -71 31 -76 42 -30 61 36 15 38 15 56 -8 l19
-23 -3 25 c-2 20 -9 25 -33 27 -16 1 -43 -2 -59 -7z"/>
<path d="M1837 2099 c16 -19 -14 -159 -34 -159 -7 0 -13 -4 -13 -10 0 -5 16
-10 36 -10 23 0 33 4 29 11 -4 6 -4 40 0 75 l7 65 48 -70 c26 -38 50 -75 52
-83 4 -12 48 117 48 141 0 5 8 15 18 20 15 9 15 10 -5 11 -12 0 -29 3 -39 7
-12 4 -15 3 -10 -5 9 -15 -3 -122 -14 -122 -4 0 -17 26 -28 57 -16 43 -18 59
-9 65 8 5 5 8 -9 8 -12 0 -37 3 -55 7 -29 5 -32 4 -22 -8z"/>
<path d="M1528 2074 c-18 -9 -28 -23 -28 -38 0 -19 9 -27 48 -41 62 -24 75
-34 61 -51 -18 -22 -65 -27 -93 -8 -26 16 -26 16 -17 -7 8 -21 15 -24 55 -22
55 2 96 25 96 54 0 14 -15 26 -60 46 -68 29 -76 51 -22 67 26 7 36 5 51 -8 19
-17 19 -17 14 3 -4 17 -13 21 -42 21 -20 -1 -48 -8 -63 -16z"/>
<path d="M1208 2068 c9 -9 3 -21 -26 -53 -20 -22 -49 -55 -65 -73 -15 -18 -33
-32 -40 -33 -17 -1 24 -17 47 -18 14 -1 16 2 7 12 -8 11 -5 19 13 36 17 16 26
19 31 11 4 -7 19 -10 36 -6 26 5 29 3 29 -19 0 -13 -8 -28 -17 -33 -12 -7 -4
-11 35 -13 53 -4 60 -1 42 17 -17 17 -61 159 -50 162 22 8 8 22 -22 22 -24 0
-29 -3 -20 -12z m22 -78 c0 -25 -4 -30 -25 -30 -31 0 -31 7 -3 37 27 29 28 29
28 -7z"/>
<path d="M1352 2060 c-77 -35 -65 -73 29 -94 43 -9 54 -16 54 -31 0 -26 -49
-44 -75 -27 -29 18 -32 15 -14 -13 16 -24 16 -24 57 -8 58 22 68 32 65 62 -3
23 -10 27 -63 39 -70 15 -85 26 -65 46 25 24 57 28 74 11 18 -19 21 -12 6 16
-13 23 -15 23 -68 -1z"/>
<path d="M1696 2008 c10 -52 11 -75 3 -85 -9 -10 -5 -13 22 -13 26 0 30 3 21
12 -16 16 -16 145 1 151 6 3 -4 6 -24 6 l-37 1 14 -72z"/>
<path d="M0 2045 l0 -26 239 3 c157 2 237 0 233 -7 -3 -5 4 -1 16 9 12 11 22
22 22 25 0 3 -111 7 -247 9 -136 2 -251 6 -255 8 -4 3 -8 -7 -8 -21z"/>
<path d="M0 1968 c0 -17 12 -18 214 -18 174 1 217 4 226 16 11 12 1 14 -66 15
-44 0 -145 2 -226 3 -138 3 -148 1 -148 -16z"/>
<path d="M0 1899 c0 -9 6 -19 13 -21 6 -2 82 -3 167 -1 85 1 176 3 203 3 35 0
47 4 47 15 0 13 -24 15 -157 16 -87 0 -184 1 -216 2 -47 2 -57 -1 -57 -14z"/>
<path d="M1944 1871 c3 -5 15 -7 26 -4 28 7 25 13 -6 13 -14 0 -23 -4 -20 -9z"/>
<path d="M872 1858 c-10 -13 -10 -17 0 -21 8 -4 7 -6 -4 -6 -10 -1 -18 4 -18
9 0 6 -7 10 -16 10 -10 0 -14 -6 -11 -15 4 -8 2 -17 -2 -20 -5 -3 -11 2 -15
10 -7 20 -24 19 -77 -6 -53 -26 -123 -94 -113 -110 4 -8 3 -9 -4 -5 -7 4 -12
2 -12 -3 0 -6 -10 -11 -22 -11 -21 0 -21 -1 -3 -13 10 -8 15 -19 11 -25 -9
-16 7 -15 22 0 7 7 12 8 12 2 0 -6 17 -18 39 -27 30 -14 45 -15 66 -7 18 7 39
7 63 0 24 -6 40 -6 46 0 6 6 18 2 34 -13 17 -15 26 -18 29 -9 6 17 81 15 99
-2 13 -14 10 -46 -5 -46 -4 0 -13 -27 -19 -60 -12 -58 -12 -61 15 -101 15 -23
30 -62 33 -88 4 -35 10 -48 30 -58 28 -14 32 -12 34 18 1 28 31 48 47 32 8 -8
6 -11 -7 -10 -15 2 -20 -6 -22 -33 -2 -31 -1 -33 9 -15 7 11 13 22 15 24 1 1
12 -4 24 -12 12 -8 17 -18 12 -21 -5 -3 -12 -15 -15 -26 -9 -35 32 -25 44 10
11 31 49 43 49 15 0 -8 4 -15 8 -15 16 0 44 39 37 50 -16 26 -7 136 14 171 21
35 21 36 2 56 -14 14 -18 31 -16 58 4 43 3 40 34 50 19 6 23 4 18 -9 -3 -8 -2
-18 3 -21 6 -4 10 -2 10 2 0 5 7 18 15 29 15 18 15 18 8 0 -3 -11 -2 -17 3
-14 5 2 27 13 49 23 22 10 53 27 69 38 16 12 26 15 21 7 -6 -10 -4 -12 9 -7
10 4 26 7 37 7 14 0 19 7 19 29 0 17 -4 32 -9 35 -4 3 -6 -5 -4 -18 3 -13 -1
-27 -7 -31 -9 -5 -10 -2 -6 12 4 12 -3 31 -18 52 l-24 33 23 44 c26 48 23 53
-15 24 -31 -24 -40 -25 -40 -2 0 16 -17 17 -240 15 -152 -1 -239 1 -235 7 10
16 -72 11 -89 -5 -20 -20 -24 -19 -28 7 -3 19 -4 20 -16 6z m376 -63 c2 -1
-14 -12 -34 -24 -27 -16 -40 -19 -48 -11 -8 8 -6 9 7 5 21 -9 22 3 1 26 -15
16 -13 17 28 12 24 -3 44 -7 46 -8z m-458 1 c0 -2 -7 -7 -16 -10 -8 -3 -12 -2
-9 4 6 10 25 14 25 6z m710 -12 c0 -8 -5 -12 -10 -9 -6 4 -8 11 -5 16 9 14 15
11 15 -7z m-753 -26 c-3 -8 -6 -5 -6 6 -1 11 2 17 5 13 3 -3 4 -12 1 -19z
m-64 -28 c-4 -5 -14 -2 -21 6 -11 12 -10 14 3 14 8 0 16 6 16 13 1 6 3 4 6 -7
3 -10 1 -22 -4 -26z m790 7 c4 3 7 -1 7 -11 0 -23 -32 -17 -36 7 -2 14 1 15
10 8 7 -6 16 -8 19 -4z m27 -26 c-6 -12 -15 -21 -21 -21 -5 0 -2 11 8 24 21
28 29 27 13 -3z m-450 -22 c0 -8 12 -10 35 -6 44 7 51 -4 20 -33 -13 -12 -27
-35 -30 -51 -8 -37 -23 -37 -31 -2 -4 15 -14 34 -21 42 -8 7 -12 20 -9 28 3 8
6 19 6 24 0 5 7 9 15 9 8 0 15 -5 15 -11z m494 -14 c-4 -8 -8 -15 -10 -15 -2
0 -4 7 -4 15 0 8 4 15 10 15 5 0 7 -7 4 -15z"/>
<path d="M1496 1844 c-5 -12 -2 -15 10 -10 8 3 18 6 20 6 3 0 2 5 -1 10 -9 15
-22 12 -29 -6z"/>
<path d="M0 1822 c0 -20 7 -20 243 -17 133 2 257 4 275 4 19 1 32 6 32 14 0
10 -61 13 -275 15 -268 3 -275 3 -275 -16z"/>
<path d="M595 1820 c3 -5 14 -10 23 -10 15 0 15 2 2 10 -20 13 -33 13 -25 0z"/>
<path d="M1616 1792 c-2 -4 -1 -14 4 -22 7 -11 9 -9 7 8 -1 24 -3 26 -11 14z"/>
<path d="M1690 1777 c0 -2 8 -14 19 -25 17 -21 58 -32 47 -13 -3 5 2 8 11 7 9
0 18 4 20 9 2 6 -11 12 -29 13 -18 1 -41 5 -50 8 -10 3 -18 3 -18 1z"/>
<path d="M0 1751 c0 -18 6 -21 44 -21 49 0 76 -7 76 -21 0 -5 -27 -9 -60 -9
-53 0 -60 -2 -60 -20 0 -11 7 -20 15 -20 8 0 15 -7 15 -15 0 -8 -7 -15 -15
-15 -13 0 -15 -32 -15 -230 0 -136 4 -230 9 -230 16 0 24 40 25 115 l1 70 35
3 c104 10 255 9 279 -1 29 -12 77 -57 73 -69 -1 -5 5 -8 13 -8 8 0 15 5 15 10
0 17 38 11 49 -7 8 -15 10 -13 16 12 8 40 31 79 47 83 19 4 15 -58 -5 -73 -22
-16 -21 -25 3 -25 13 0 22 9 26 25 3 14 10 25 15 25 4 0 14 10 20 22 10 19 8
25 -14 44 -18 15 -22 24 -14 28 9 5 9 7 -1 12 -7 3 -19 12 -27 21 -8 8 -19 11
-25 8 -15 -9 -12 -25 5 -25 8 0 15 -4 15 -10 0 -5 -7 -10 -15 -10 -8 0 -15 -8
-15 -17 0 -13 -3 -14 -11 -6 -9 9 -8 24 5 62 9 27 13 57 10 65 -3 9 1 33 9 54
14 34 14 39 -4 60 -10 13 -15 30 -12 37 3 11 -2 15 -18 16 -13 0 -46 11 -74
24 l-50 23 48 -2 c26 0 47 2 47 5 0 3 11 4 25 1 17 -3 25 0 25 10 0 11 -46 14
-265 16 -262 3 -265 3 -265 -17z m374 -23 c-3 -4 -12 -8 -20 -8 -8 0 -13 4
-10 8 3 5 12 9 20 9 8 0 13 -4 10 -9z"/>
<path d="M1590 1768 c0 -3 11 -17 24 -33 16 -19 26 -23 31 -15 4 6 2 17 -4 23
-6 6 -11 7 -11 2 0 -4 -9 0 -20 10 -11 10 -20 16 -20 13z"/>
<path d="M1830 1766 c0 -2 7 -9 15 -16 13 -11 14 -10 9 4 -5 14 -24 23 -24 12z"/>
<path d="M560 1749 c0 -5 13 -8 30 -7 34 3 31 10 -5 14 -14 1 -25 -2 -25 -7z"/>
<path d="M1806 1742 c-3 -4 4 -9 15 -9 23 -2 25 3 4 10 -8 4 -16 3 -19 -1z"/>
<path d="M1952 1498 c-20 -20 -14 -27 25 -30 20 -2 38 -9 41 -16 3 -9 -6 -12
-32 -10 -38 2 -78 -24 -70 -47 3 -7 25 -18 50 -25 28 -8 42 -16 36 -22 -6 -6
-18 -6 -32 2 -28 15 -39 4 -17 -18 39 -38 167 -5 167 44 0 79 -122 168 -168
122z"/>
<path d="M1426 1468 c-12 -9 -18 -20 -13 -24 4 -4 13 -2 19 4 7 7 29 12 50 12
28 0 45 -7 68 -30 38 -37 38 -45 -1 -25 -17 9 -38 14 -47 12 -12 -3 -11 -5 5
-6 31 -1 40 -21 9 -21 -32 0 -76 -17 -76 -29 0 -5 21 -3 46 5 34 10 50 11 63
2 15 -9 25 -7 51 12 l32 23 -29 18 c-15 10 -34 19 -40 19 -7 0 -13 5 -13 10 0
6 5 10 12 10 7 0 8 3 3 9 -19 18 -117 17 -139 -1z"/>
<path d="M1745 1480 c-3 -5 -2 -10 4 -10 5 0 13 5 16 10 3 6 2 10 -4 10 -5 0
-13 -4 -16 -10z"/>
<path d="M726 1432 c-6 -8 -21 -24 -34 -37 l-22 -22 37 -32 c43 -36 49 -38 56
-11 6 24 35 17 33 -8 -1 -11 9 -18 29 -22 40 -8 55 -2 55 24 0 21 -17 35 -72
64 -16 7 -28 18 -28 23 0 13 45 22 72 14 18 -6 20 -4 12 5 -17 17 -125 18
-138 2z m120 -87 c10 -8 15 -14 9 -14 -5 0 -19 6 -29 14 -11 8 -15 15 -10 15
6 0 19 -7 30 -15z"/>
<path d="M1720 1423 c-30 -21 -11 -40 21 -22 13 7 32 12 42 10 27 -4 20 6 -12
17 -22 8 -34 7 -51 -5z"/>
<path d="M1830 1420 c0 -11 5 -20 10 -20 6 0 10 9 10 20 0 11 -4 20 -10 20 -5
0 -10 -9 -10 -20z"/>
<path d="M2299 1429 c-55 -8 -76 -19 -108 -53 -21 -22 -23 -29 -13 -50 16 -35
79 -73 130 -79 24 -3 41 -3 38 0 -2 3 7 16 22 28 26 23 27 24 10 52 -11 19
-26 29 -48 31 -23 3 -30 8 -28 20 4 23 42 27 72 6 25 -16 26 -16 26 5 0 31
-45 49 -101 40z m26 -149 c3 -5 -1 -10 -9 -10 -8 0 -18 5 -21 10 -3 6 1 10 9
10 8 0 18 -4 21 -10z"/>
<path d="M2746 1340 c7 -8 14 -24 17 -35 4 -19 5 -19 6 1 0 12 -7 28 -16 35
-16 12 -17 12 -7 -1z"/>
<path d="M1448 1333 c7 -3 16 -2 19 1 4 3 -2 6 -13 5 -11 0 -14 -3 -6 -6z"/>
<path d="M2711 1326 c-9 -11 -8 -15 5 -20 22 -8 24 -8 24 8 0 21 -16 28 -29
12z"/>
<path d="M2915 1310 c-4 -6 8 -10 30 -10 22 0 34 4 30 10 -3 6 -17 10 -30 10
-13 0 -27 -4 -30 -10z"/>
<path d="M1596 1285 c-3 -8 -1 -15 4 -15 6 0 10 7 10 15 0 8 -2 15 -4 15 -2 0
-6 -7 -10 -15z"/>
<path d="M754 1272 c12 -14 31 -22 52 -22 46 0 51 16 6 23 -20 3 -46 8 -57 13
-20 7 -20 7 -1 -14z"/>
<path d="M2900 1268 c0 -6 3 -8 7 -5 3 4 11 3 17 -2 17 -13 56 -20 56 -10 0
10 -43 29 -66 29 -8 0 -14 -5 -14 -12z"/>
<path d="M1799 1239 c12 -20 21 -48 21 -63 0 -24 -2 -25 -20 -16 -11 6 -25 8
-31 4 -6 -3 -42 -8 -81 -10 -49 -3 -84 -12 -110 -27 -31 -17 -41 -19 -47 -8
-12 18 -21 -37 -11 -63 7 -19 8 -19 15 7 7 25 11 28 41 24 19 -3 34 0 34 5 0
6 6 8 14 5 8 -3 16 0 19 6 3 7 28 19 57 26 43 11 54 11 60 0 7 -10 11 -10 24
0 17 15 36 7 36 -15 0 -8 5 -12 10 -9 13 8 13 66 0 97 -5 13 -19 34 -31 48
l-21 25 21 -36z"/>
<path d="M1632 1229 c24 -31 81 -58 71 -33 -3 8 0 14 7 14 6 0 10 10 8 23 -3
19 -9 22 -55 23 l-51 1 20 -28z m53 -9 c3 -5 1 -10 -4 -10 -6 0 -11 5 -11 10
0 6 2 10 4 10 3 0 8 -4 11 -10z"/>
<path d="M88 1243 c6 -2 18 -2 25 0 6 3 1 5 -13 5 -14 0 -19 -2 -12 -5z"/>
<path d="M526 1157 c-3 -19 -2 -45 3 -58 8 -20 10 -21 10 -5 1 11 4 16 8 12 4
-4 6 -23 5 -42 -3 -32 -1 -34 18 -24 23 12 27 35 7 43 -7 3 -14 22 -15 43 -2
22 -9 45 -16 52 -11 12 -15 8 -20 -21z"/>
<path d="M716 1182 c-5 -8 -21 -10 -46 -6 -77 12 -116 -19 -74 -60 8 -9 13
-20 9 -25 -8 -14 13 -25 70 -36 35 -7 53 -16 61 -32 6 -13 14 -20 17 -16 4 3
20 6 37 5 40 -1 40 27 0 70 -27 28 -36 26 -31 -4 2 -11 -38 -10 -83 3 l-39 11
34 20 c19 11 36 24 37 29 9 22 47 5 84 -36 23 -25 43 -43 45 -41 8 8 -20 51
-60 91 -21 22 -36 34 -33 28 4 -7 3 -13 -3 -13 -5 0 -11 5 -13 12 -3 9 -6 9
-12 0z"/>
<path d="M2753 1179 c-7 -7 -13 -23 -13 -35 0 -25 21 -45 28 -26 2 7 11 8 28
2 19 -7 24 -6 24 5 0 14 -4 17 -32 19 -7 1 -15 11 -18 24 -4 19 -7 21 -17 11z"/>
<path d="M870 1116 c0 -27 23 -77 34 -73 14 5 9 69 -7 79 -18 11 -27 10 -27
-6z"/>
<path d="M1228 1091 c-9 -10 -21 -20 -28 -23 -16 -5 -2 -58 16 -58 8 0 14 -4
14 -10 0 -5 10 -10 22 -10 12 0 18 -3 15 -6 -4 -4 2 -19 13 -34 11 -15 17 -29
15 -32 -3 -3 4 -13 14 -22 11 -10 18 -23 15 -30 -5 -12 11 -30 61 -69 24 -19
41 -23 87 -22 31 1 55 -2 52 -6 -9 -15 23 -16 61 -3 22 7 59 33 83 58 23 25
45 46 47 46 3 0 5 2 5 5 0 3 0 8 0 13 0 4 -19 7 -42 8 -79 2 -118 9 -123 22
-2 6 -12 12 -20 12 -9 0 -14 4 -11 9 3 5 -1 22 -9 37 -8 16 -15 36 -15 44 0
10 -7 7 -21 -10 -11 -14 -18 -19 -14 -12 3 6 1 12 -6 12 -8 0 -10 -12 -5 -40
5 -32 3 -40 -9 -40 -10 0 -13 5 -9 11 5 9 -1 10 -20 5 -17 -4 -25 -3 -22 3 3
5 -17 12 -45 16 -37 5 -49 11 -45 21 3 8 0 13 -6 11 -7 -1 -21 24 -33 55 -20
55 -21 57 -37 39z"/>
<path d="M1155 1063 c4 -10 10 -26 12 -35 6 -19 23 -25 23 -9 0 21 -20 61 -31
61 -7 0 -8 -7 -4 -17z"/>
<path d="M610 1009 c0 -5 5 -7 10 -4 6 3 10 8 10 11 0 2 -4 4 -10 4 -5 0 -10
-5 -10 -11z"/>
<path d="M1520 1011 c0 -10 30 -24 37 -17 3 2 -5 9 -16 16 -12 6 -21 7 -21 1z"/>
<path d="M1185 967 c-4 -10 -5 -21 -1 -24 10 -10 18 4 13 24 -4 17 -4 17 -12
0z"/>
<path d="M593 949 c-1 -12 6 -21 20 -23 64 -13 87 -14 92 -6 3 6 -4 10 -17 10
-22 1 -22 1 -4 15 23 18 25 17 -39 20 -43 2 -51 -1 -52 -16z"/>
<path d="M1820 960 c0 -5 5 -10 10 -10 6 0 10 5 10 10 0 6 -4 10 -10 10 -5 0
-10 -4 -10 -10z"/>
<path d="M1187 893 c-11 -11 -8 -20 8 -20 8 0 15 6 15 14 0 14 -12 17 -23 6z"/>
<path d="M1463 699 c-16 -16 -16 -59 0 -79 14 -18 47 -25 47 -11 0 5 9 13 20
16 29 9 25 23 -15 42 -19 9 -35 23 -37 30 -2 11 -5 12 -15 2z m17 -35 c0 -8
-4 -12 -10 -9 -5 3 -10 10 -10 16 0 5 5 9 10 9 6 0 10 -7 10 -16z"/>
<path d="M2847 426 c-15 -7 -24 -16 -20 -20 4 -4 1 -12 -7 -17 -11 -8 2 -9 44
-5 56 5 76 16 76 44 0 15 -55 15 -93 -2z"/>
<path d="M2668 383 c6 -2 18 -2 25 0 6 3 1 5 -13 5 -14 0 -19 -2 -12 -5z"/>
<path d="M2690 365 c-14 -8 -19 -14 -12 -15 8 0 10 -5 6 -12 -4 -7 -4 -10 0
-6 4 3 20 2 35 -3 45 -16 107 26 64 42 -29 12 -66 9 -93 -6z"/>
<path d="M2807 341 c-4 -17 -3 -21 5 -13 5 5 8 16 6 23 -3 8 -7 3 -11 -10z"/>
<path d="M2848 313 c6 -2 18 -2 25 0 6 3 1 5 -13 5 -14 0 -19 -2 -12 -5z"/>
<path d="M2090 10 c0 -5 5 -10 11 -10 5 0 7 5 4 10 -3 6 -8 10 -11 10 -2 0 -4
-4 -4 -10z"/>
<path d="M2130 10 c0 -5 5 -10 11 -10 5 0 7 5 4 10 -3 6 -8 10 -11 10 -2 0 -4
-4 -4 -10z"/>
<path d="M2263 12 c-8 -5 1 -8 22 -8 18 0 31 4 29 8 -7 10 -35 10 -51 0z"/>
</g>
</svg>
