<?xml version="1.0" standalone="no"?>
<!DOCTYPE svg PUBLIC "-//W3C//DTD SVG 20010904//EN"
 "http://www.w3.org/TR/2001/REC-SVG-20010904/DTD/svg10.dtd">
<svg version="1.0" xmlns="http://www.w3.org/2000/svg"
 width="800.000000pt" height="600.000000pt" viewBox="0 0 800.000000 600.000000"
 preserveAspectRatio="xMidYMid meet">

<g transform="translate(0.000000,600.000000) scale(0.100000,-0.100000)"
fill="#000000" stroke="none">
<path d="M3199 5974 c-13 -14 -23 -29 -23 -32 3 -18 -21 -51 -40 -56 -22 -6
-96 -125 -100 -161 -3 -27 -13 -27 -66 -4 -120 54 -275 77 -395 59 -44 -7 -96
-14 -115 -16 -77 -10 -249 -79 -387 -157 -33 -19 -40 -27 -30 -37 10 -10 7
-11 -10 -5 -15 4 -23 2 -23 -5 0 -6 -4 -9 -9 -6 -10 6 -68 -35 -69 -49 0 -5
-6 -11 -13 -14 -8 -2 -9 1 -3 10 7 12 5 12 -9 0 -9 -7 -14 -17 -11 -22 3 -5
-1 -6 -9 -3 -14 5 -77 -49 -77 -67 0 -5 -3 -8 -7 -8 -20 3 -32 -3 -59 -28 -16
-15 -60 -53 -99 -84 -38 -30 -89 -74 -111 -97 -23 -23 -45 -42 -49 -42 -4 0
-19 -12 -35 -27 -15 -16 -34 -33 -41 -39 -8 -6 -24 -22 -35 -35 -20 -23 -152
-146 -223 -208 -32 -28 -51 -32 -51 -11 0 5 7 7 15 4 8 -4 15 -1 15 5 0 6 -7
11 -16 11 -9 0 -14 6 -11 13 2 6 9 11 15 10 6 -2 23 13 38 32 14 19 32 35 40
35 15 0 29 19 20 27 -3 4 -15 -2 -25 -11 -20 -18 -61 -15 -61 5 0 12 17 12 25
-1 12 -19 25 -10 19 14 -5 19 3 29 48 62 29 21 56 43 60 49 5 7 11 6 18 -1 7
-7 5 -16 -10 -29 -11 -10 -20 -25 -20 -34 -1 -13 -3 -13 -15 3 -13 18 -15 18
-21 2 -4 -10 -18 -22 -33 -28 l-26 -11 25 -7 c49 -14 128 58 116 106 -4 15 -2
24 6 24 9 0 9 3 1 11 -9 9 -15 8 -26 -2 -8 -8 -25 -21 -37 -29 -12 -8 -36 -27
-53 -42 -17 -14 -34 -25 -38 -22 -3 2 -14 -5 -24 -16 -19 -21 -55 -27 -55 -10
0 6 12 10 26 10 22 0 24 3 19 23 -5 17 -4 19 4 7 9 -13 12 -12 17 8 4 12 10
22 15 22 5 0 9 8 9 17 0 14 2 15 13 4 10 -10 9 -14 -5 -22 -22 -12 -24 -31 -3
-23 8 4 18 16 21 29 6 25 32 46 117 94 31 18 57 37 57 42 0 5 6 9 14 9 19 0
86 39 86 50 0 5 8 8 18 8 24 -2 92 41 92 58 0 17 -12 18 -28 2 -9 -9 -12 -8
-12 5 0 19 22 22 51 6 18 -9 19 -8 10 9 -9 16 -7 21 8 25 14 3 18 1 14 -9 -8
-20 3 -17 31 10 28 25 36 47 10 25 -10 -8 -18 -9 -22 -2 -11 17 -36 21 -47 7
-5 -7 -23 -16 -40 -19 l-30 -6 33 15 c41 19 40 24 -3 23 -22 -1 -35 -6 -35
-14 0 -7 -7 -13 -15 -13 -9 0 -18 -7 -21 -15 -4 -8 -10 -15 -15 -15 -19 0 -7
22 31 56 22 20 40 41 40 47 0 5 -8 3 -18 -6 -25 -23 -37 -21 -61 9 -12 15 -21
24 -21 20 0 -4 -10 -2 -21 5 -18 9 -19 13 -8 25 8 7 30 16 49 20 28 4 32 3 20
-6 -12 -9 -12 -11 -1 -8 8 3 17 10 19 18 8 23 -70 4 -94 -24 -27 -30 -57 -47
-71 -38 -21 14 -19 38 6 60 l26 23 -36 -15 c-20 -8 -46 -12 -58 -9 -14 4 -26
1 -31 -8 -5 -7 -13 -10 -17 -5 -4 5 -2 11 5 13 6 3 12 11 12 19 0 8 7 14 15
14 8 0 15 5 15 10 0 16 -13 12 -44 -15 -17 -15 -26 -30 -23 -39 4 -9 2 -18 -3
-21 -6 -4 -10 -1 -10 5 0 6 -4 8 -10 5 -7 -4 -7 2 0 19 6 16 6 27 0 31 -18 11
-10 34 12 38 13 2 -8 4 -46 4 -45 0 -71 5 -76 13 -5 9 -20 11 -44 7 l-36 -6
16 25 c16 23 16 24 -12 24 -23 0 -26 -2 -14 -10 12 -8 9 -10 -12 -10 -32 0
-33 3 -12 34 9 15 11 26 5 30 -5 4 -14 -2 -20 -11 -8 -14 -12 -15 -22 -6 -10
10 -9 14 4 19 9 3 17 13 17 22 0 12 -3 13 -11 5 -9 -9 -16 -8 -27 3 -8 8 -20
13 -27 10 -8 -3 -16 1 -19 9 -3 8 -13 11 -24 8 -12 -3 -22 2 -26 12 -3 9 -10
14 -14 11 -5 -3 -18 4 -30 14 -25 24 -36 26 -28 5 8 -21 -7 -19 -37 5 -29 23
-48 10 -23 -16 9 -8 16 -20 16 -26 0 -5 6 -8 14 -5 8 3 16 -2 19 -15 3 -11 10
-17 15 -14 5 3 15 -1 22 -9 7 -8 23 -15 37 -15 13 0 26 -7 29 -15 4 -10 14
-13 28 -9 14 3 27 -1 35 -10 8 -9 20 -16 27 -16 8 0 14 -7 14 -15 0 -8 -6 -15
-14 -15 -8 0 -16 -5 -18 -12 -3 -8 -12 -6 -29 5 -28 18 -142 16 -165 -4 -7 -6
-18 -8 -23 -5 -5 4 -13 2 -16 -4 -5 -8 -11 -8 -20 0 -9 8 -14 6 -19 -5 -3 -8
-16 -15 -29 -15 -13 0 -29 -6 -36 -12 -10 -11 -11 -9 -6 7 6 19 6 19 -8 3 -8
-10 -19 -18 -26 -18 -15 0 -14 -17 2 -23 9 -4 9 -6 -1 -6 -6 -1 -21 8 -31 18
-14 14 -22 16 -30 8 -8 -8 -17 -8 -33 0 -47 23 -55 22 -78 -9 -19 -26 -27 -29
-54 -24 -17 3 -36 13 -42 21 -9 12 -14 12 -38 0 -16 -8 -31 -13 -35 -11 -6 4
-9 -12 -12 -55 -1 -21 -49 -33 -49 -12 0 7 7 16 15 19 8 4 15 10 15 16 0 5 -5
6 -11 2 -9 -5 -10 1 -5 21 6 25 5 27 -8 16 -9 -8 -16 -20 -16 -27 0 -8 -4 -14
-8 -14 -5 0 -15 -11 -22 -25 -7 -13 -16 -23 -19 -20 -10 5 -24 -7 -38 -32 -9
-15 -9 -24 -2 -29 6 -3 13 3 16 14 6 25 63 69 63 49 0 -8 -7 -20 -15 -27 -8
-7 -15 -18 -15 -24 0 -14 -41 -41 -56 -38 -21 4 -24 -91 -24 -763 0 -662 0
-672 20 -693 26 -27 50 -28 50 -3 0 60 95 100 147 63 16 -11 48 -28 71 -37 23
-10 51 -29 63 -43 18 -23 18 -27 4 -35 -26 -14 -177 3 -182 20 -5 15 -54 3
-61 -15 -6 -16 42 -62 65 -62 6 0 13 -3 15 -7 4 -11 65 -53 76 -53 9 0 86 -66
154 -131 23 -23 28 -24 33 -10 3 9 16 28 30 43 l24 28 33 -30 c18 -17 38 -30
46 -30 7 0 11 -4 7 -10 -8 -12 16 -50 32 -50 7 0 13 -6 13 -14 0 -9 7 -12 18
-10 14 4 17 -3 19 -41 2 -54 7 -63 28 -45 12 10 15 10 15 -4 0 -9 -5 -16 -11
-16 -8 0 -8 -5 1 -15 7 -8 19 -15 26 -15 8 0 14 -4 14 -10 0 -5 14 -10 31 -10
28 0 31 -2 25 -25 -5 -19 -2 -25 10 -25 13 0 15 6 11 30 -4 16 -2 32 4 36 6 3
8 13 5 21 -7 17 28 58 42 49 14 -8 26 64 13 77 -6 6 -11 18 -11 27 0 13 1 13
10 0 5 -8 10 -13 10 -10 9 57 7 82 -4 86 -8 3 -12 13 -9 24 3 10 1 20 -4 23
-5 3 -8 22 -7 41 2 22 -1 35 -8 33 -6 -1 -13 4 -15 11 -3 6 0 12 6 12 6 0 11
7 11 16 0 8 4 13 9 10 11 -7 9 44 -3 62 -12 20 52 119 105 161 29 22 53 52 64
78 10 23 22 40 26 37 5 -3 9 11 9 30 0 42 15 54 147 120 51 25 95 50 98 56 3
5 21 17 40 26 19 9 35 20 35 25 0 5 8 9 18 9 9 1 33 14 52 30 19 17 39 30 45
30 5 1 26 14 45 30 19 17 40 30 47 30 7 0 13 5 13 10 0 6 6 10 13 10 6 0 27
14 46 30 18 17 38 30 42 30 5 0 9 6 9 14 0 8 7 16 15 20 8 3 15 1 15 -4 0 -6
5 -10 11 -10 7 0 9 9 6 21 -4 14 -1 19 7 16 7 -3 18 4 25 15 7 12 18 17 30 13
12 -4 21 2 29 20 6 14 20 25 31 25 18 0 52 30 35 30 -5 1 2 10 15 21 29 24 37
19 20 -13 -12 -22 -11 -23 8 -5 11 9 23 17 27 17 4 0 26 15 49 34 23 18 53 37
67 41 14 4 30 12 37 17 17 14 71 0 116 -28 21 -14 42 -22 47 -19 10 6 92 -34
98 -47 2 -5 8 -8 14 -8 6 0 16 -7 22 -14 6 -8 18 -16 26 -18 8 -2 21 -11 28
-20 7 -9 18 -15 25 -12 7 2 22 -5 33 -17 l19 -22 -23 12 c-36 19 -36 7 -1 -20
29 -22 47 -52 83 -143 l16 -39 19 22 c27 31 36 26 11 -9 -15 -21 -18 -34 -11
-47 5 -10 12 -26 15 -37 5 -15 11 -11 36 25 16 24 33 59 36 77 5 24 11 32 21
27 11 -4 14 0 10 14 -5 21 32 61 58 61 8 0 34 9 58 20 23 11 52 21 65 23 13 2
27 8 30 13 4 5 14 10 22 12 47 10 139 56 215 108 142 95 198 187 196 322 -2
177 -107 334 -327 488 l-73 51 20 22 c12 12 18 29 15 38 -4 10 -2 14 8 10 10
-4 23 10 40 45 22 44 89 129 144 184 11 12 9 14 -16 14 -18 0 -38 -10 -53 -26z
m-2294 -224 c3 -5 1 -10 -4 -10 -6 0 -11 5 -11 10 0 6 2 10 4 10 3 0 8 -4 11
-10z m-95 -109 c0 -6 -4 -13 -10 -16 -5 -3 -10 1 -10 9 0 9 5 16 10 16 6 0 10
-4 10 -9z m164 -7 c3 -8 2 -12 -4 -9 -6 3 -10 10 -10 16 0 14 7 11 14 -7z
m190 -50 c9 -23 7 -34 -5 -34 -5 0 -7 5 -4 10 4 6 1 17 -5 25 -7 9 -8 15 -2
15 5 0 13 -7 16 -16z m-765 -37 c-11 -40 -11 -47 2 -24 5 9 14 17 19 17 17 0
-32 -48 -61 -60 -23 -10 -31 -9 -42 1 -7 8 -14 19 -15 24 0 6 -8 12 -18 13
-10 3 -14 0 -10 -7 4 -6 0 -11 -9 -11 -12 0 -15 6 -10 20 4 14 2 20 -9 20 -10
0 -13 -6 -9 -17 6 -16 5 -16 -12 0 -15 16 -16 20 -4 28 24 15 98 -21 99 -48 0
-8 7 -10 17 -6 10 4 12 8 6 10 -16 6 -4 33 13 33 8 0 19 12 24 26 14 37 31 21
19 -19z m709 -6 c-7 -12 -16 -21 -21 -21 -4 0 0 11 10 24 22 29 30 27 11 -3z
m2006 14 c11 -8 16 -15 10 -15 -5 0 -18 7 -28 15 -11 8 -16 15 -10 15 5 0 18
-7 28 -15z m-2644 1 c0 -3 -4 -8 -10 -11 -5 -3 -10 -1 -10 4 0 6 5 11 10 11 6
0 10 -2 10 -4z m560 -26 c0 -5 -4 -10 -10 -10 -5 0 -10 5 -10 10 0 6 5 10 10
10 6 0 10 -4 10 -10z m958 -4 c-7 -8 -15 -12 -17 -11 -5 6 10 25 20 25 5 0 4
-6 -3 -14z m-1278 -4 c0 -5 -7 -17 -15 -28 -15 -19 -20 -8 -9 20 6 17 24 22
24 8z m225 -2 c3 -5 1 -10 -4 -10 -6 0 -11 5 -11 10 0 6 2 10 4 10 3 0 8 -4
11 -10z m348 -4 c4 -10 1 -13 -8 -9 -8 3 -12 9 -9 14 7 12 11 11 17 -5z m-659
-11 c4 -10 -1 -15 -14 -15 -13 0 -18 5 -14 15 4 8 10 15 14 15 4 0 10 -7 14
-15z m226 11 c0 -3 -4 -8 -10 -11 -5 -3 -10 -1 -10 4 0 6 5 11 10 11 6 0 10
-2 10 -4z m254 -27 c-6 -11 -24 -2 -24 11 0 5 7 7 15 4 8 -4 12 -10 9 -15z
m131 11 c3 -5 1 -10 -4 -10 -6 0 -11 5 -11 10 0 6 2 10 4 10 3 0 8 -4 11 -10z
m-45 -17 c0 -5 -5 -15 -10 -23 -8 -12 -10 -11 -10 8 0 12 5 22 10 22 6 0 10
-3 10 -7z m270 -14 c0 -5 -4 -8 -9 -6 -5 1 -16 -5 -23 -15 -12 -15 -15 -14
-33 4 l-20 20 24 -7 c19 -6 23 -4 18 7 -4 11 1 14 19 10 13 -2 24 -8 24 -13z
m-470 1 c0 -5 -5 -10 -11 -10 -5 0 -7 5 -4 10 3 6 8 10 11 10 2 0 4 -4 4 -10z
m-807 -30 c-12 -10 -23 -16 -27 -13 -3 3 5 14 17 23 29 24 37 16 10 -10z
m1142 10 c3 -5 11 -10 16 -10 6 0 7 5 4 10 -3 6 -1 10 4 10 6 0 11 -7 11 -15
0 -8 -6 -15 -12 -15 -16 1 -56 30 -41 30 7 0 15 -4 18 -10z m1916 -7 c13 -16
12 -17 -3 -4 -10 7 -18 15 -18 17 0 8 8 3 21 -13z m-1758 -11 c-12 -2 -23 -12
-25 -22 -2 -14 -7 -17 -18 -10 -23 14 14 50 43 42 l22 -7 -22 -3z m-1363 -32
c-12 -12 -24 -19 -27 -16 -4 3 4 15 17 26 30 26 38 18 10 -10z m1280 15 c0 -8
6 -15 13 -15 8 0 21 -8 30 -18 16 -18 15 -18 -13 -14 -17 2 -30 10 -30 18 0 8
-7 14 -15 14 -8 0 -15 -4 -15 -9 0 -4 -11 -6 -25 -3 -14 2 -25 8 -25 13 0 5
11 7 24 3 16 -4 25 -1 29 10 8 20 27 21 27 1z m1880 -10 c11 -13 10 -14 -4 -9
-9 3 -16 10 -16 15 0 13 6 11 20 -6z m-1985 -15 c3 -5 2 -10 -4 -10 -5 0 -13
5 -16 10 -3 6 -2 10 4 10 5 0 13 -4 16 -10z m-130 -30 c3 -6 -1 -7 -9 -4 -18
7 -21 14 -7 14 6 0 13 -4 16 -10z m230 -10 c8 -13 -5 -13 -25 0 -13 8 -13 10
2 10 9 0 20 -4 23 -10z m100 1 c3 -5 1 -12 -5 -16 -5 -3 -10 1 -10 9 0 18 6
21 15 7z m-188 -7 c-3 -3 -12 -4 -19 -1 -8 3 -5 6 6 6 11 1 17 -2 13 -5z
m-347 -14 c0 -5 -5 -10 -11 -10 -5 0 -7 5 -4 10 3 6 8 10 11 10 2 0 4 -4 4
-10z m190 -15 c-14 -17 -30 -20 -30 -6 0 5 8 12 18 14 9 3 19 5 21 6 2 0 -2
-6 -9 -14z m84 -27 c-8 -12 -34 11 -34 28 0 11 4 10 19 -3 11 -9 18 -20 15
-25z m106 32 c0 -5 -4 -10 -10 -10 -5 0 -10 5 -10 10 0 6 5 10 10 10 6 0 10
-4 10 -10z m190 3 c0 -5 -5 -15 -10 -23 -7 -12 -9 -10 -7 8 1 19 17 33 17 15z
m-222 -21 c2 -7 -2 -10 -12 -6 -9 3 -16 11 -16 16 0 13 23 5 28 -10z m-134 -1
c3 -5 -1 -11 -9 -14 -9 -4 -12 -1 -8 9 6 16 10 17 17 5z m26 -31 c0 -5 -4 -10
-10 -10 -5 0 -10 5 -10 10 0 6 5 10 10 10 6 0 10 -4 10 -10z m-180 -9 c0 -5
-7 -11 -15 -15 -15 -5 -20 5 -8 17 9 10 23 9 23 -2z m76 -15 c11 -8 15 -18 10
-23 -5 -4 -11 -2 -13 5 -3 6 -11 12 -19 12 -8 0 -14 5 -14 10 0 14 13 12 36
-4z m-51 -16 c3 -5 1 -10 -4 -10 -6 0 -11 5 -11 10 0 6 2 10 4 10 3 0 8 -4 11
-10z m105 -14 c0 -2 -7 -9 -15 -16 -13 -11 -14 -10 -9 4 5 14 24 23 24 12z
m1392 -58 c-7 -7 -12 -8 -12 -2 0 14 12 26 19 19 2 -3 -1 -11 -7 -17z m-141
-19 c-12 -13 -21 -19 -21 -14 0 11 32 46 38 41 2 -3 -5 -15 -17 -27z m69 -57
c0 -4 -10 -13 -22 -21 -23 -14 -23 -14 -4 8 20 22 26 25 26 13z m-2290 -52 c0
-5 -4 -10 -10 -10 -5 0 -10 5 -10 10 0 6 5 10 10 10 6 0 10 -4 10 -10z m2233
-37 c-13 -2 -33 -2 -45 0 -13 2 -3 4 22 4 25 0 35 -2 23 -4z m-2173 -47 c0 -2
-37 0 -48 3 -2 1 0 6 3 11 5 9 45 -3 45 -14z m-60 -7 c0 -14 -17 -10 -23 5 -4
10 -1 13 9 9 7 -3 14 -9 14 -14z m921 -25 c-12 -8 -21 -23 -21 -32 0 -12 -3
-13 -11 -5 -8 8 -3 20 17 43 16 17 30 26 32 20 2 -6 -5 -18 -17 -26z m49 6 c0
-5 -4 -10 -10 -10 -5 0 -10 5 -10 10 0 6 5 10 10 10 6 0 10 -4 10 -10z m-120
-56 c-12 -13 -11 -17 1 -25 10 -8 7 -8 -10 -4 -19 6 -23 4 -18 -9 4 -10 1 -16
-8 -16 -22 0 -18 16 12 49 28 30 47 35 23 5z m-815 -14 c3 -5 1 -10 -4 -10 -6
0 -11 5 -11 10 0 6 2 10 4 10 3 0 8 -4 11 -10z m865 -31 c0 -4 -9 -11 -21 -14
-15 -5 -19 -13 -16 -27 3 -12 -1 -27 -10 -36 -13 -13 -16 -13 -25 -1 -7 11
-11 11 -15 2 -2 -7 -9 -13 -14 -13 -18 0 -9 15 20 35 17 11 28 21 26 23 -2 2
3 12 12 21 15 18 43 24 43 10z m-95 -20 c12 -19 -5 -23 -22 -6 -16 16 -16 17
-1 17 9 0 20 -5 23 -11z m99 -13 c-10 -8 -21 -12 -23 -10 -3 2 4 11 15 18 10
8 21 12 23 10 3 -2 -4 -11 -15 -18z m-144 0 c0 -2 -7 -9 -15 -16 -13 -11 -14
-10 -9 4 5 14 24 23 24 12z m-619 -24 c-7 -2 -18 1 -23 6 -8 8 -4 9 13 5 13
-4 18 -8 10 -11z m634 -41 c-3 -6 -14 -11 -23 -11 -15 1 -15 2 2 15 21 16 32
13 21 -4z m35 -11 c0 -5 -5 -10 -11 -10 -5 0 -7 5 -4 10 3 6 8 10 11 10 2 0 4
-4 4 -10z m-650 -32 c0 -6 -6 -5 -15 2 -8 7 -15 14 -15 16 0 2 7 1 15 -2 8 -4
15 -11 15 -16z m570 18 c0 -13 -34 -36 -53 -35 l-22 0 23 9 c12 5 22 14 22 20
0 5 7 10 15 10 8 0 15 -2 15 -4z m-100 -86 c0 -5 -2 -10 -4 -10 -3 0 -8 5 -11
10 -3 6 -1 10 4 10 6 0 11 -4 11 -10z m47 4 c-3 -3 -12 -4 -19 -1 -8 3 -5 6 6
6 11 1 17 -2 13 -5z m-487 -754 c0 -5 -2 -10 -4 -10 -3 0 -8 5 -11 10 -3 6 -1
10 4 10 6 0 11 -4 11 -10z m517 -242 c-3 -8 -6 -5 -6 6 -1 11 2 17 5 13 3 -3
4 -12 1 -19z m-3 -84 c3 -8 2 -12 -4 -9 -6 3 -10 10 -10 16 0 14 7 11 14 -7z
m-97 -90 c-3 -3 -12 -4 -19 -1 -8 3 -5 6 6 6 11 1 17 -2 13 -5z"/>
<path d="M5033 5986 c3 -8 3 -17 -1 -21 -4 -4 -7 -29 -8 -56 0 -26 -2 -51 -5
-54 -3 -2 -20 0 -38 5 -28 8 -31 7 -27 -8 8 -23 -33 -50 -45 -30 -12 19 -11
38 3 38 17 0 -1 14 -37 28 l-30 12 23 -19 c27 -24 28 -34 2 -26 -11 3 -20 2
-20 -3 0 -13 25 -33 32 -26 3 2 8 -2 12 -11 3 -10 2 -14 -5 -10 -5 4 -15 -7
-22 -24 -12 -32 -21 -38 -32 -20 -4 5 1 19 10 29 10 11 14 24 9 31 -5 9 -10 5
-16 -11 -8 -21 -11 -20 -64 36 -31 33 -59 66 -64 74 -5 8 -11 12 -15 8 -4 -3
28 -48 69 -99 42 -51 76 -96 76 -99 0 -8 -52 -30 -72 -30 -10 0 -18 -3 -18 -7
0 -5 -16 -26 -35 -47 -19 -22 -32 -43 -29 -48 3 -4 -2 -9 -10 -9 -9 -1 -22 -2
-28 -3 -7 -1 -11 -10 -9 -21 3 -20 3 -20 -18 -1 -19 17 -21 17 -21 3 0 -10 -4
-17 -9 -17 -5 0 -12 -11 -15 -25 -4 -14 -10 -25 -15 -25 -4 0 -6 -11 -3 -25 3
-16 0 -25 -8 -25 -7 0 -10 -7 -7 -15 4 -8 2 -17 -4 -20 -5 -4 -7 -22 -3 -41 5
-27 3 -34 -10 -34 -9 0 -21 10 -26 23 -8 20 -9 18 -10 -13 -1 -19 -1 -51 0
-70 2 -33 1 -34 -17 -19 -54 48 -165 81 -199 60 -17 -11 -17 -11 3 -6 15 4 33
-2 55 -18 18 -13 53 -35 78 -48 53 -29 98 -74 106 -109 8 -31 33 -60 50 -60
15 0 36 -34 27 -44 -4 -3 0 -17 7 -31 11 -21 12 -34 2 -68 -26 -91 -34 -167
-24 -241 10 -72 7 -121 -8 -141 -5 -5 -13 -29 -20 -53 -6 -24 -20 -52 -31 -63
-10 -10 -19 -28 -19 -39 0 -12 -7 -20 -16 -20 -13 0 -14 -3 -5 -13 15 -19 1
-30 -17 -14 -13 10 -15 9 -10 -11 5 -17 2 -22 -10 -20 -11 2 -17 -4 -17 -17 0
-11 -6 -19 -12 -17 -7 1 -13 -2 -13 -8 0 -12 -36 -50 -47 -50 -5 0 -24 -14
-43 -31 -19 -17 -45 -35 -57 -40 -26 -10 -31 -29 -8 -29 19 0 20 -16 1 -23 -8
-3 -17 -1 -20 6 -3 8 -11 4 -24 -10 -25 -28 -26 -28 -52 -1 l-20 22 0 -22 c0
-13 6 -22 16 -22 9 0 14 -5 12 -12 -6 -18 -28 -21 -28 -4 0 9 -5 16 -11 16 -6
0 -8 8 -4 19 9 30 -12 34 -58 12 -23 -11 -57 -23 -75 -27 -17 -4 -32 -10 -32
-15 0 -5 7 -6 15 -3 8 4 15 1 15 -5 0 -6 -4 -11 -10 -11 -5 0 -19 -8 -30 -17
-11 -10 -24 -17 -28 -16 -4 1 -13 -3 -19 -9 -9 -7 -13 -7 -13 1 0 6 -4 11 -10
11 -5 0 -10 -7 -10 -16 0 -9 -5 -14 -12 -12 -6 2 -22 -7 -36 -20 -18 -19 -26
-22 -32 -12 -4 7 -12 10 -18 6 -6 -3 -23 5 -38 19 -33 31 -50 33 -30 3 18 -26
20 -38 7 -38 -5 0 -12 8 -15 18 -5 16 -18 20 -68 23 -10 0 -20 4 -23 10 -8 12
-45 12 -45 -1 0 -5 -7 -10 -15 -10 -12 0 -13 4 -5 19 16 30 12 33 -12 9 l-22
-22 -6 24 c-6 24 -40 42 -40 21 0 -6 8 -11 18 -12 15 0 15 -1 -2 -8 -25 -10
-68 10 -55 25 9 12 -7 34 -26 34 -7 0 -17 10 -22 23 -10 20 -11 21 -18 3 -5
-11 -3 -21 6 -27 9 -6 10 -9 2 -9 -7 0 -21 10 -33 22 -14 15 -20 18 -20 7 0
-23 -45 -60 -57 -48 -8 8 -13 7 -17 0 -4 -6 -1 -11 6 -11 18 0 43 -40 26 -41
-7 0 -1 -5 15 -11 15 -5 27 -16 27 -24 0 -17 -17 -19 -23 -1 -2 6 -8 9 -12 5
-9 -8 11 -30 43 -47 16 -8 21 -18 17 -30 -3 -12 0 -21 11 -25 12 -4 14 -13 10
-31 -4 -17 -3 -24 6 -23 7 2 14 -7 16 -19 2 -13 8 -23 14 -23 6 0 9 -3 5 -6
-7 -7 7 -26 46 -63 37 -35 224 -85 322 -86 57 0 81 5 125 27 77 38 139 74 165
95 38 32 87 59 120 68 6 1 21 7 35 12 14 6 27 7 30 2 9 -13 37 25 32 41 -5 13
-3 13 12 1 9 -8 13 -17 9 -20 -14 -10 -34 -62 -28 -72 4 -5 2 -9 -3 -9 -5 0
-17 -17 -27 -37 -41 -87 -50 -100 -94 -143 -86 -85 -220 -177 -331 -226 -56
-25 -76 -29 -143 -27 -43 2 -95 7 -115 13 -21 5 -57 10 -82 10 -34 0 -49 5
-60 20 -8 11 -22 20 -31 20 -10 0 -19 6 -22 13 -2 6 -8 9 -12 5 -8 -7 18 -38
32 -38 12 0 43 -58 43 -80 0 -10 8 -28 18 -39 l17 -22 23 21 c12 11 22 28 22
37 0 11 6 14 23 9 12 -3 43 -6 70 -6 26 0 47 -3 47 -8 0 -9 -46 -30 -87 -38
-25 -5 -32 -2 -36 12 -4 13 -5 11 -4 -6 2 -22 6 -25 37 -22 89 7 291 80 383
139 65 42 166 122 231 183 53 49 156 189 156 211 0 5 20 35 45 68 50 66 62
121 25 121 -12 0 -26 12 -35 30 -21 40 -6 72 118 263 31 49 57 92 57 96 0 4
10 17 23 29 18 17 31 20 58 16 22 -4 50 0 73 10 47 20 56 14 85 -57 36 -85 43
-97 63 -97 19 0 25 16 8 22 -6 2 3 18 20 36 34 37 37 44 15 36 -18 -7 -20 7
-3 24 6 6 9 15 5 19 -4 4 -13 1 -19 -5 -21 -21 -27 -13 -13 15 16 31 12 41 -8
25 -8 -7 -17 -9 -20 -6 -3 3 -11 3 -17 -1 -9 -6 -9 -10 1 -16 8 -5 9 -9 3 -9
-5 0 -18 6 -27 13 -15 10 -19 41 -26 195 -5 100 -13 188 -19 195 -5 7 -12 22
-15 35 -4 19 -3 21 8 12 12 -10 14 -4 14 32 0 47 3 67 12 83 4 6 9 23 13 39 5
22 11 27 26 23 11 -3 18 -1 15 3 -6 10 14 59 32 78 7 7 13 16 13 20 1 17 90
101 138 130 63 39 69 39 48 7 -18 -27 -11 -35 8 -10 6 9 22 17 35 18 33 2 87
57 69 69 -11 7 -10 10 2 17 8 5 32 22 52 38 112 85 204 141 246 149 18 4 35
10 38 15 3 5 21 9 41 9 24 0 34 4 30 13 -5 13 17 39 27 30 3 -3 13 0 22 7 12
11 17 11 23 1 6 -10 10 -9 15 4 3 10 1 24 -5 31 -19 23 8 17 32 -7 18 -18 25
-19 46 -10 13 6 28 9 33 6 5 -3 10 0 12 6 3 9 11 8 28 -2 14 -7 36 -12 49 -10
13 1 27 -2 31 -8 4 -7 38 -13 78 -14 50 -1 72 -6 72 -14 0 -7 8 -13 19 -13 10
0 30 -9 44 -20 14 -11 31 -20 39 -20 7 0 22 -7 32 -15 29 -22 43 -18 18 4 -31
26 -28 46 4 25 18 -13 24 -23 20 -39 -4 -16 7 -35 46 -76 29 -29 44 -44 33
-31 -27 33 -10 39 22 8 23 -23 25 -29 13 -37 -11 -8 -9 -9 8 -4 26 8 62 -21
54 -43 -2 -6 4 -12 13 -12 9 0 15 -7 13 -16 -2 -10 3 -19 11 -22 8 -3 11 0 7
7 -5 7 -1 9 9 5 9 -4 13 -13 10 -24 -5 -17 7 -32 35 -42 11 -4 16 4 18 30 1
20 8 40 15 45 9 7 9 10 0 14 -7 2 -13 13 -13 23 0 10 -8 25 -17 32 -10 7 -24
25 -32 40 -17 34 -19 94 -3 91 7 -2 12 8 12 22 0 19 5 25 21 25 18 0 20 4 15
28 -4 15 -20 49 -37 76 -17 27 -28 55 -25 62 4 9 -2 14 -15 14 -13 0 -23 8
-26 20 -4 14 -11 19 -23 15 -10 -3 -21 -1 -25 4 -3 7 0 8 9 5 9 -4 16 -1 16 6
0 6 -9 14 -20 17 -11 3 -20 10 -20 15 0 16 -63 37 -82 27 -22 -12 -23 -5 -2
15 14 15 13 16 -6 16 -13 0 -19 4 -14 11 5 8 -6 9 -37 4 -24 -4 -45 -11 -47
-16 -2 -5 -10 -9 -17 -9 -8 0 -17 -5 -21 -11 -5 -9 1 -10 20 -5 22 5 26 3 26
-13 0 -15 5 -19 17 -14 12 5 15 2 10 -10 -6 -16 14 -41 26 -32 4 3 5 2 2 -2
-3 -3 -16 -7 -30 -9 -14 -1 -35 -6 -46 -9 -15 -5 -19 -4 -15 4 4 6 1 11 -8 11
-8 0 -18 -4 -21 -10 -10 -16 -25 -12 -19 5 4 9 18 22 33 31 l26 15 -27 -4
c-15 -2 -29 -1 -31 2 -2 3 -2 1 -1 -6 5 -21 -28 -38 -72 -38 -27 -1 -40 3 -35
8 5 5 8 15 7 21 -2 6 -1 8 1 4 3 -5 12 -8 20 -8 13 0 13 3 3 15 -10 12 -10 18
0 30 18 22 32 18 25 -6 l-7 -22 23 22 c20 18 21 23 9 31 -8 5 -15 17 -15 26 0
24 -20 28 -39 8 -20 -20 -34 -11 -16 11 7 8 9 15 4 15 -5 0 -19 3 -32 6 -19 5
-21 3 -16 -12 6 -17 5 -17 -10 1 -12 14 -19 16 -22 8 -8 -18 -24 -16 -24 2 0
8 -4 15 -10 15 -5 0 -10 -12 -10 -27 0 -41 -18 -15 -29 40 -6 32 -5 48 3 51 6
2 2 5 -10 5 -28 1 -35 -7 -23 -30 5 -10 13 -28 19 -38 6 -14 6 -21 -3 -25 -9
-5 -9 -7 1 -12 6 -3 12 -21 12 -40 0 -21 -4 -33 -10 -29 -5 3 -10 18 -10 32 0
24 -13 25 -16 2 -3 -20 -4 -21 -17 -11 -24 20 -55 3 -62 -35 -11 -61 -21 -23
-16 60 1 6 12 25 26 41 14 16 25 34 25 40 1 6 9 1 19 -11 22 -26 31 -29 31 -9
0 7 -15 25 -32 40 -28 23 -41 27 -90 25 -48 -2 -58 -6 -69 -26 -7 -12 -9 -26
-6 -29 4 -4 10 2 14 12 10 29 27 36 33 13 3 -11 9 -19 14 -17 15 5 24 -44 16
-92 -4 -25 -8 -36 -9 -25 -1 11 -8 34 -16 50 -14 30 -14 29 -9 -17 7 -55 -10
-67 -20 -15 -7 40 -31 75 -42 64 -5 -4 -3 -11 3 -15 7 -4 14 -24 16 -43 2 -20
13 -53 25 -73 29 -50 28 -58 -4 -18 -14 17 -32 32 -39 32 -25 0 -52 39 -48 68
l5 27 -20 -25 c-19 -23 -22 -23 -39 -8 -10 8 -28 19 -40 22 -16 5 -23 15 -23
32 0 28 12 31 30 9 7 -9 20 -13 28 -10 8 3 21 0 29 -7 12 -10 17 -9 27 2 6 8
17 15 24 16 28 2 31 5 25 19 -3 9 3 25 12 35 18 19 17 20 -6 20 -14 0 -30 -5
-37 -12 -7 -7 -12 -8 -12 -2 0 6 -25 11 -55 12 -73 2 -89 -14 -81 -80 4 -26 4
-48 1 -48 -3 0 -21 8 -40 19 -37 19 -37 34 0 25 19 -5 22 -2 21 25 -1 17 -3
31 -6 31 -3 0 -24 -20 -47 -44 -45 -47 -63 -90 -44 -109 23 -23 10 -26 -25 -5
-34 20 -35 22 -15 29 11 5 21 17 21 27 0 11 7 25 15 32 8 7 15 20 14 29 0 13
-2 14 -6 1 -11 -29 -38 -38 -46 -16 -4 10 -1 13 7 10 16 -6 29 36 20 60 -5 14
-9 14 -33 -3 -14 -10 -32 -20 -39 -22 -10 -3 -8 -12 8 -32 31 -40 14 -49 -18
-10 -25 30 -28 31 -42 15 -14 -15 -15 -15 -18 1 -2 9 -10 17 -18 17 -7 0 -16
11 -20 25 -3 14 -13 25 -21 25 -9 0 -13 -6 -10 -14z m395 -35 c3 -8 -1 -12 -9
-9 -7 2 -15 10 -17 17 -3 8 1 12 9 9 7 -2 15 -10 17 -17z m52 -1 c11 -20 10
-21 -39 -11 -4 1 20 31 25 31 2 0 8 -9 14 -20z m-335 -76 c-9 -9 -19 -13 -23
-10 -3 4 0 11 8 16 24 15 33 11 15 -6z m80 6 c3 -5 1 -10 -4 -10 -6 0 -11 5
-11 10 0 6 2 10 4 10 3 0 8 -4 11 -10z m-35 -9 c0 -6 -4 -13 -10 -16 -5 -3
-10 1 -10 9 0 9 5 16 10 16 6 0 10 -4 10 -9z m140 -1 c0 -5 -4 -10 -10 -10 -5
0 -10 5 -10 10 0 6 5 10 10 10 6 0 10 -4 10 -10z m66 -25 c-11 -8 -18 -15 -15
-16 49 -7 69 -7 69 1 0 21 30 9 50 -21 24 -33 21 -46 -7 -34 -10 5 -24 7 -31
6 -8 -1 -23 5 -33 15 -27 24 -24 7 7 -33 18 -23 21 -33 11 -33 -8 0 -20 -7
-27 -15 -10 -12 -15 -12 -36 2 -29 19 -47 7 -20 -13 11 -7 16 -17 13 -21 -4
-4 -21 8 -37 25 -16 18 -31 32 -33 32 -2 0 -3 -13 -2 -30 1 -17 -2 -27 -8 -23
-6 4 -8 -2 -5 -15 6 -22 -6 -30 -17 -13 -7 12 -64 41 -80 41 -7 0 -18 6 -24
14 -10 12 -8 15 11 19 21 3 20 5 -10 16 -24 10 -31 18 -27 31 5 15 0 17 -35
14 -22 -1 -40 2 -40 7 0 9 13 9 116 -5 12 -1 35 -8 53 -15 25 -11 34 -11 46
-1 9 7 14 19 11 26 -7 18 20 25 50 14 27 -11 28 -36 1 -34 -9 1 -14 -2 -11 -7
3 -5 10 -9 15 -9 6 0 21 -12 35 -27 17 -19 28 -23 35 -16 8 8 4 16 -15 28 -19
13 -25 23 -20 37 3 12 -1 28 -13 40 -10 12 -12 18 -5 14 6 -4 12 -2 12 3 0 6
8 11 18 11 15 -1 15 -2 -2 -15z m788 6 c3 -5 -3 -11 -14 -14 -22 -6 -37 8 -18
16 20 8 26 8 32 -2z m-894 -11 c0 -5 -4 -10 -9 -10 -6 0 -13 5 -16 10 -3 6 1
10 9 10 9 0 16 -4 16 -10z m579 -21 c-19 -11 -24 -3 -8 14 8 9 16 11 18 5 2
-6 -3 -14 -10 -19z m-889 -8 c0 -5 -7 -11 -15 -15 -15 -5 -20 5 -8 17 9 10 23
9 23 -2z m817 -38 c-3 -10 -5 -4 -5 12 0 17 2 24 5 18 2 -7 2 -21 0 -30z
m-241 -10 c-10 -10 -19 5 -10 18 6 11 8 11 12 0 2 -7 1 -15 -2 -18z m-636 7
c0 -5 -4 -10 -10 -10 -5 0 -10 5 -10 10 0 6 5 10 10 10 6 0 10 -4 10 -10z
m585 -30 c10 -11 15 -20 11 -20 -14 0 -46 21 -46 30 0 16 16 11 35 -10z m715
10 c0 -5 -4 -10 -10 -10 -5 0 -10 5 -10 10 0 6 5 10 10 10 6 0 10 -4 10 -10z
m-1069 -41 c21 -22 43 -38 49 -34 5 3 10 -1 10 -9 0 -24 -34 -19 -60 9 -27 29
-40 25 -34 -10 5 -28 -13 -33 -46 -13 -10 7 -22 9 -25 6 -10 -10 19 -49 32
-44 7 3 10 -1 6 -10 -7 -19 -33 -18 -33 1 0 9 -12 18 -28 21 -38 8 -57 38 -35
56 18 15 73 20 73 7 0 -5 5 -9 11 -9 6 0 0 15 -13 33 l-23 32 29 -22 c38 -30
50 -29 30 2 -28 43 11 32 57 -16z m-241 15 c0 -2 -9 -4 -21 -4 -11 0 -18 4
-14 10 5 8 35 3 35 -6z m584 -23 c17 -19 17 -19 -6 -14 -49 10 -54 15 -33 23
11 5 20 9 21 9 0 1 9 -8 18 -18z m742 5 c21 -21 17 -27 -13 -21 l-28 6 28 -21
c15 -12 27 -30 27 -40 0 -16 -3 -17 -37 -4 -21 7 -49 14 -63 14 -24 1 -24 1 5
14 25 10 27 13 12 19 -10 4 -15 12 -12 18 4 6 13 8 21 5 8 -3 14 -1 14 3 0 5
-6 12 -12 14 -7 3 0 6 15 6 16 1 35 -5 43 -13z m-1276 -32 c0 -8 -4 -14 -10
-14 -5 0 -10 9 -10 21 0 11 5 17 10 14 6 -3 10 -13 10 -21z m309 -28 c10 -12
8 -13 -9 -9 -25 7 -37 23 -17 23 8 0 20 -6 26 -14z m845 -11 c11 -8 29 -15 40
-15 12 0 32 -10 46 -21 l25 -20 -25 6 c-40 11 -120 49 -120 57 0 12 13 9 34
-7z m-1124 -15 c0 -5 7 -10 15 -10 8 0 15 -4 15 -10 0 -5 -13 -7 -30 -3 -21 4
-30 2 -30 -7 0 -7 -9 -21 -21 -31 -21 -18 -21 -18 19 -13 26 3 43 0 51 -10 10
-11 8 -14 -11 -13 -13 1 -35 -2 -49 -6 -17 -4 -32 -1 -45 8 -18 15 -18 16 11
40 17 14 26 25 21 25 -5 0 -1 9 9 20 19 21 45 27 45 10z m1449 -39 c7 -5 12
-13 10 -18 -2 -6 -13 -2 -23 8 -20 19 -12 26 13 10z m-1392 -7 c-3 -3 -12 -4
-19 -1 -8 3 -5 6 6 6 11 1 17 -2 13 -5z m123 -10 c0 -2 -7 -4 -15 -4 -8 0 -15
4 -15 10 0 5 7 7 15 4 8 -4 15 -8 15 -10z m951 1 c-1 -15 -24 -12 -29 3 -3 9
2 13 12 10 10 -1 17 -7 17 -13z m309 -35 c0 -5 -4 -10 -10 -10 -5 0 -10 5 -10
10 0 6 5 10 10 10 6 0 10 -4 10 -10z m-1526 -30 c32 -33 49 -39 39 -14 -4 12
0 14 23 8 40 -9 40 -10 1 -29 -39 -18 -37 -19 -91 43 -29 33 -5 26 28 -8z
m316 -4 c0 -3 -4 -8 -10 -11 -5 -3 -10 -1 -10 4 0 6 5 11 10 11 6 0 10 -2 10
-4z m-530 -46 c0 -15 -5 -12 -26 11 -19 22 -19 22 4 10 12 -6 22 -16 22 -21z
m-22 -33 c31 -47 27 -54 -8 -14 -30 35 -36 47 -22 47 4 0 17 -15 30 -33z m432
26 c0 -7 -81 -22 -94 -17 -30 11 -5 23 44 21 28 -1 50 -3 50 -4z m-120 -13 c0
-5 -4 -10 -10 -10 -5 0 -10 5 -10 10 0 6 5 10 10 10 6 0 10 -4 10 -10z m0 -70
c-8 -5 -24 -9 -35 -9 -16 1 -16 2 5 9 35 11 48 11 30 0z m-243 -43 c4 -7 0 -8
-11 -4 -10 4 -22 7 -27 7 -5 0 -9 4 -9 9 0 12 38 2 47 -12z m167 8 c-6 -16
-24 -21 -24 -7 0 11 11 22 21 22 5 0 6 -7 3 -15z m-380 -11 c10 -25 -1 -29
-14 -5 -6 12 -7 21 -1 21 5 0 12 -7 15 -16z m339 9 c-7 -2 -19 -2 -25 0 -7 3
-2 5 12 5 14 0 19 -2 13 -5z m82 -13 c-3 -5 -10 -10 -16 -10 -5 0 -9 5 -9 10
0 6 7 10 16 10 8 0 12 -4 9 -10z m183 -2 c-2 -6 -10 -14 -16 -16 -7 -2 -10 2
-6 12 7 18 28 22 22 4z m1306 -3 c3 -8 1 -15 -4 -15 -6 0 -10 7 -10 15 0 8 2
15 4 15 2 0 6 -7 10 -15z m-1597 -1 c21 -6 21 -6 2 -25 -24 -24 -68 -27 -49
-4 10 12 10 15 -4 15 -9 0 -16 5 -16 10 0 11 33 13 67 4z m142 -35 c-13 -10
-28 -17 -33 -16 -12 4 -21 28 -9 26 22 -4 44 2 38 11 -4 6 1 7 11 3 14 -5 13
-8 -7 -24z m-86 1 c-3 -12 -14 -20 -26 -20 -20 0 -20 0 -1 19 25 26 33 26 27
1z m-143 0 c0 -5 -4 -10 -10 -10 -5 0 -10 5 -10 10 0 6 5 10 10 10 6 0 10 -4
10 -10z m190 -27 c0 -9 -93 -54 -98 -48 -9 8 11 25 29 25 10 0 19 4 19 9 0 8
16 16 43 20 4 0 7 -2 7 -6z m-309 -225 c11 -21 11 -22 -4 -9 -10 7 -17 17 -17
22 0 15 9 10 21 -13z m82 -18 c-3 -11 -9 -20 -14 -20 -10 0 -11 12 -3 34 9 22
23 10 17 -14z m-1423 -970 c0 -5 -5 -10 -11 -10 -5 0 -7 5 -4 10 3 6 8 10 11
10 2 0 4 -4 4 -10z m1028 -61 c4 -24 3 -24 -12 -4 -19 24 -20 38 -3 33 6 -3
13 -15 15 -29z"/>
<path d="M5470 5812 c0 -12 19 -26 26 -19 2 2 -2 10 -11 17 -9 8 -15 8 -15 2z"/>
<path d="M5160 5770 c0 -5 5 -10 10 -10 6 0 10 5 10 10 0 6 -4 10 -10 10 -5 0
-10 -4 -10 -10z"/>
<path d="M5281 5751 c-1 -9 -9 -12 -25 -9 l-25 5 27 -28 c21 -22 28 -25 34
-15 5 8 4 25 -1 38 -6 12 -10 17 -10 9z"/>
<path d="M5080 5660 c0 -5 5 -10 10 -10 6 0 10 5 10 10 0 6 -4 10 -10 10 -5 0
-10 -4 -10 -10z"/>
<path d="M5259 5978 c10 -28 41 -37 41 -13 0 11 -5 15 -15 11 -9 -3 -15 0 -15
9 0 8 -4 15 -10 15 -6 0 -6 -9 -1 -22z"/>
<path d="M5321 5986 c-8 -10 -9 -16 -1 -21 5 -3 13 1 16 10 9 22 -1 29 -15 11z"/>
<path d="M5836 5991 c-5 -7 -3 -18 3 -24 14 -14 20 -6 11 17 -5 15 -9 16 -14
7z"/>
<path d="M4850 5981 c0 -5 7 -12 16 -15 14 -5 15 -4 4 9 -14 17 -20 19 -20 6z"/>
<path d="M4650 5962 c0 -5 7 -15 15 -22 8 -7 15 -8 15 -2 0 5 -7 15 -15 22 -8
7 -15 8 -15 2z"/>
<path d="M3660 5936 c7 -9 23 -15 37 -13 38 5 31 22 -11 25 -35 3 -38 2 -26
-12z"/>
<path d="M4790 5941 c0 -5 9 -11 21 -14 16 -4 18 -3 8 9 -13 16 -29 19 -29 5z"/>
<path d="M4850 5941 c0 -5 7 -11 14 -14 10 -4 13 -1 9 9 -6 15 -23 19 -23 5z"/>
<path d="M3514 5919 c-3 -5 13 -9 36 -9 23 0 50 -5 61 -10 13 -7 25 -8 37 -1
16 10 16 10 0 11 -10 0 -18 4 -18 10 0 12 -108 11 -116 -1z"/>
<path d="M4892 5919 c2 -6 8 -10 13 -10 5 0 11 4 13 10 2 6 -4 11 -13 11 -9 0
-15 -5 -13 -11z"/>
<path d="M4970 5910 c0 -5 5 -10 11 -10 5 0 7 5 4 10 -3 6 -8 10 -11 10 -2 0
-4 -4 -4 -10z"/>
<path d="M925 5892 c6 -6 26 -13 45 -16 23 -5 30 -4 20 2 -23 14 -77 25 -65
14z"/>
<path d="M4800 5890 c20 -13 33 -13 25 0 -3 6 -14 10 -23 10 -15 0 -15 -2 -2
-10z"/>
<path d="M4982 5891 c-10 -6 -9 -10 7 -14 14 -3 21 0 21 9 0 16 -9 18 -28 5z"/>
<path d="M1038 5863 c7 -3 16 -2 19 1 4 3 -2 6 -13 5 -11 0 -14 -3 -6 -6z"/>
<path d="M4810 5845 c0 -8 5 -15 10 -15 6 0 10 7 10 15 0 8 -4 15 -10 15 -5 0
-10 -7 -10 -15z"/>
<path d="M5550 5840 c0 -5 5 -10 10 -10 6 0 10 5 10 10 0 6 -4 10 -10 10 -5 0
-10 -4 -10 -10z"/>
<path d="M1024 5805 c-14 -11 -15 -14 -4 -14 8 0 24 6 34 14 15 11 16 15 5 15
-8 0 -24 -7 -35 -15z"/>
<path d="M1035 5720 c-17 -7 -15 -9 13 -9 17 -1 32 4 32 9 0 12 -17 12 -45 0z"/>
<path d="M1290 5619 c0 -5 5 -7 10 -4 6 3 10 8 10 11 0 2 -4 4 -10 4 -5 0 -10
-5 -10 -11z"/>
<path d="M125 5600 c-3 -6 1 -7 9 -4 18 7 21 14 7 14 -6 0 -13 -4 -16 -10z"/>
<path d="M285 5599 c-10 -15 3 -25 16 -12 7 7 7 13 1 17 -6 3 -14 1 -17 -5z"/>
<path d="M327 5603 c-4 -3 -7 -13 -7 -21 0 -12 3 -12 15 -2 8 7 15 16 15 21 0
11 -14 12 -23 2z"/>
<path d="M1705 5600 c3 -5 8 -10 11 -10 2 0 4 5 4 10 0 6 -5 10 -11 10 -5 0
-7 -4 -4 -10z"/>
<path d="M61 5527 c-13 -21 -12 -21 5 -5 10 10 16 20 13 22 -3 3 -11 -5 -18
-17z"/>
<path d="M3431 5537 c-25 -6 -47 -18 -49 -26 -4 -11 2 -12 24 -6 16 5 82 9
148 9 96 1 123 -2 145 -16 46 -31 47 -19 1 14 -40 30 -50 32 -134 35 -50 1
-111 -3 -135 -10z"/>
<path d="M1575 5520 c-3 -5 -2 -10 4 -10 5 0 13 5 16 10 3 6 2 10 -4 10 -5 0
-13 -4 -16 -10z"/>
<path d="M1477 5513 c-4 -3 -7 -11 -7 -17 0 -6 5 -5 12 2 6 6 9 14 7 17 -3 3
-9 2 -12 -2z"/>
<path d="M1780 5510 c8 -5 20 -10 25 -10 6 0 3 5 -5 10 -8 5 -19 10 -25 10 -5
0 -3 -5 5 -10z"/>
<path d="M1600 5480 c0 -5 -9 -10 -19 -10 -10 0 -21 -7 -25 -15 -6 -17 9 -21
19 -5 4 6 10 8 15 5 4 -3 11 3 15 13 6 15 8 15 25 -5 10 -13 24 -23 31 -23 6
0 0 11 -15 25 -28 26 -46 32 -46 15z"/>
<path d="M1700 5428 c0 -19 2 -20 10 -8 13 19 13 30 0 30 -5 0 -10 -10 -10
-22z"/>
<path d="M1517 5243 c-10 -9 -9 -23 2 -23 5 0 11 7 15 15 5 15 -5 20 -17 8z"/>
<path d="M6487 5210 c-8 -11 -17 -17 -22 -12 -5 4 -5 1 -1 -5 8 -15 46 -18 46
-4 0 5 3 16 6 25 9 23 -12 20 -29 -4z"/>
<path d="M1438 5180 c-10 -11 -14 -22 -9 -24 4 -3 18 6 29 19 25 29 6 33 -20
5z"/>
<path d="M6410 5169 c0 -5 6 -9 13 -9 14 0 53 -41 49 -53 -1 -4 5 -10 13 -13
8 -4 15 -13 15 -20 0 -16 56 -75 63 -68 2 3 7 -14 11 -36 4 -23 11 -38 16 -35
10 6 9 23 -5 78 -5 19 -12 26 -22 23 -19 -8 -38 13 -45 46 -3 19 -1 25 8 21 7
-2 14 -14 16 -26 3 -24 28 -36 28 -14 0 9 -8 23 -17 33 -10 10 -18 20 -18 24
0 12 -33 40 -47 40 -9 -1 -7 -5 5 -14 20 -16 22 -26 4 -26 -7 0 -20 13 -29 28
-16 26 -58 42 -58 21z"/>
<path d="M1374 5125 c-4 -8 -12 -15 -20 -15 -8 0 -14 -7 -14 -15 0 -8 4 -15 8
-15 10 0 52 43 52 53 0 13 -21 7 -26 -8z"/>
<path d="M3677 5094 c-14 -15 -6 -22 36 -33 57 -14 143 -72 139 -94 -4 -22 82
-77 119 -77 16 0 39 5 53 11 19 9 40 9 87 0 67 -14 85 -7 89 34 4 36 0 44 -15
39 -8 -4 -33 1 -55 10 -52 21 -84 20 -151 -2 -75 -25 -107 -19 -124 23 -9 20
-31 42 -57 58 -47 27 -109 43 -121 31z"/>
<path d="M3640 5081 c0 -6 4 -13 10 -16 6 -3 7 1 4 9 -7 18 -14 21 -14 7z"/>
<path d="M6600 4912 c0 -5 6 -17 14 -27 13 -18 14 -18 9 8 -5 24 -23 39 -23
19z"/>
<path d="M5821 4880 c-13 -11 -19 -20 -13 -20 7 0 6 -8 -1 -24 -11 -24 -12
-24 -26 -4 -13 20 -14 20 -37 -7 -29 -34 -38 -60 -30 -91 6 -21 9 -23 20 -12
7 7 23 20 35 28 11 8 21 20 21 27 0 6 4 15 10 18 6 4 7 -1 3 -11 -12 -32 14
-6 35 35 22 42 20 53 -6 44 -14 -5 -14 -3 2 15 24 27 19 28 -13 2z"/>
<path d="M6640 4890 c0 -5 4 -10 9 -10 6 0 13 5 16 10 3 6 -1 10 -9 10 -9 0
-16 -4 -16 -10z"/>
<path d="M5898 4872 c-16 -9 -28 -23 -28 -31 0 -10 10 -5 30 14 42 40 41 45
-2 17z"/>
<path d="M6675 4830 c3 -5 8 -10 11 -10 2 0 4 5 4 10 0 6 -5 10 -11 10 -5 0
-7 -4 -4 -10z"/>
<path d="M6650 4801 c0 -5 7 -12 16 -15 14 -5 15 -4 4 9 -14 17 -20 19 -20 6z"/>
<path d="M6148 4782 c-57 -5 -45 -17 17 -18 30 -1 62 -8 71 -15 14 -12 16 -11
13 6 -5 22 -42 32 -101 27z"/>
<path d="M6078 4763 c7 -3 16 -2 19 1 4 3 -2 6 -13 5 -11 0 -14 -3 -6 -6z"/>
<path d="M3488 4753 c7 -3 16 -2 19 1 4 3 -2 6 -13 5 -11 0 -14 -3 -6 -6z"/>
<path d="M6089 4736 c-2 -2 -26 -7 -53 -10 -72 -10 -153 -58 -243 -142 -20
-19 -3 -24 32 -9 19 7 36 11 39 8 3 -4 14 0 23 8 42 33 183 85 207 76 8 -3 18
-1 24 5 7 7 16 7 27 0 21 -11 75 6 75 25 0 7 1 16 3 20 3 11 -57 21 -79 13
-10 -4 -26 -4 -35 1 -9 5 -18 7 -20 5z"/>
<path d="M5882 4705 c-42 -24 -162 -114 -162 -122 0 -8 69 33 123 73 31 24 61
44 66 44 5 0 14 7 21 15 18 22 1 18 -48 -10z"/>
<path d="M1837 4703 c-4 -3 -7 -13 -7 -22 1 -13 3 -13 11 2 11 19 8 33 -4 20z"/>
<path d="M4065 4629 c32 -29 50 -39 67 -36 l23 4 -22 8 c-13 4 -23 11 -23 16
0 5 -5 9 -11 9 -6 0 -22 9 -36 20 -45 35 -44 21 2 -21z"/>
<path d="M4398 4560 c-25 -52 -55 -115 -67 -139 -25 -53 -24 -51 -8 -51 13 1
29 31 77 155 18 44 36 85 42 92 5 7 8 18 5 25 -3 7 -25 -30 -49 -82z"/>
<path d="M3167 4577 c-40 -12 -81 -32 -99 -49 -16 -15 -34 -28 -39 -28 -18 0
1 -101 21 -120 5 -4 59 -76 66 -88 4 -6 78 31 112 56 22 17 31 30 27 41 -5 13
-4 14 6 4 20 -20 26 -17 83 40 70 70 77 91 39 129 -25 25 -39 30 -89 33 -38 1
-83 -5 -127 -18z m-121 -114 c-10 -10 -19 5 -10 18 6 11 8 11 12 0 2 -7 1 -15
-2 -18z m184 -83 c0 -5 -4 -10 -10 -10 -5 0 -10 5 -10 10 0 6 5 10 10 10 6 0
10 -4 10 -10z"/>
<path d="M5011 4533 c-22 -4 -141 -117 -141 -133 0 -4 12 -7 28 -6 17 1 26 6
24 14 -1 8 2 10 8 7 16 -10 62 4 55 15 -6 10 10 12 95 12 155 0 162 -1 167
-22 3 -11 10 -20 17 -21 6 0 -24 -7 -68 -15 -43 -8 -85 -19 -95 -24 -12 -8 -6
-9 21 -4 63 10 65 -7 4 -26 -31 -10 -67 -25 -81 -34 -28 -19 -35 -20 -35 -6 0
5 14 17 31 25 17 9 29 19 26 21 -8 8 -79 -31 -113 -63 -33 -29 -69 -97 -65
-122 1 -7 -2 -10 -8 -6 -12 7 -15 -8 -4 -18 3 -4 12 2 20 13 8 11 18 20 23 20
13 0 -2 -44 -19 -57 -12 -9 -13 -12 -2 -13 9 0 11 -8 7 -25 -4 -14 -5 -25 -3
-25 10 0 67 32 72 41 4 5 13 5 25 -1 10 -5 28 -10 38 -10 24 0 102 40 102 52
0 4 6 8 13 8 14 0 97 71 97 84 0 4 -15 -3 -34 -17 -62 -47 -135 -86 -156 -82
-11 2 -20 0 -20 -5 0 -4 -11 -3 -25 3 -31 15 -31 22 0 53 14 14 25 31 25 39 0
8 6 15 13 15 8 0 32 13 54 29 22 16 49 32 61 35 11 4 24 16 27 26 5 16 9 17
24 8 14 -9 26 -8 50 2 44 18 39 32 -9 26 -42 -5 -73 1 -66 13 4 5 144 7 153 2
1 -1 -2 -15 -7 -31 -5 -17 -5 -28 -1 -25 5 2 11 18 15 35 7 37 26 31 27 -8 l1
-27 9 30 c6 23 4 39 -11 68 -28 52 -56 81 -74 74 -8 -3 -19 0 -25 7 -6 7 -23
12 -38 10 -15 -1 -33 2 -40 7 -31 26 -134 43 -192 32z m-26 -279 c-9 -9 -19
-13 -23 -10 -3 4 0 11 8 16 24 15 33 11 15 -6z"/>
<path d="M2738 4303 c-1 -5 -25 -19 -52 -33 -27 -14 -56 -37 -65 -52 -9 -16
-19 -28 -22 -28 -4 0 -26 -25 -49 -55 l-42 -55 21 -45 c12 -25 23 -45 24 -45
2 0 19 21 37 47 l33 46 -26 -7 c-21 -5 -25 -3 -20 9 3 9 12 14 19 11 8 -3 14
-1 14 4 0 6 9 10 19 10 15 0 21 -10 26 -40 8 -46 26 -52 42 -12 6 15 18 38 27
52 25 42 56 115 56 133 0 36 -32 82 -42 60z m4 -115 c-7 -7 -12 -8 -12 -2 0 6
3 14 7 17 3 4 9 5 12 2 2 -3 -1 -11 -7 -17z"/>
<path d="M4244 4225 c-4 -8 -12 -15 -20 -15 -8 0 -14 -5 -14 -10 0 -15 36 6
44 25 3 8 3 15 0 15 -2 0 -7 -7 -10 -15z"/>
<path d="M4130 4209 c0 -5 5 -7 10 -4 6 3 10 8 10 11 0 2 -4 4 -10 4 -5 0 -10
-5 -10 -11z"/>
<path d="M3877 4183 c6 -16 25 -13 31 5 2 6 -6 10 -16 9 -12 -1 -18 -6 -15
-14z"/>
<path d="M4830 4185 c0 -8 7 -15 15 -15 8 0 15 7 15 15 0 8 -7 15 -15 15 -8 0
-15 -7 -15 -15z"/>
<path d="M1964 4180 c-6 -6 -27 -11 -47 -12 -20 -1 -34 -5 -31 -10 3 -4 -5 -7
-17 -5 -12 1 -24 -3 -26 -10 -3 -7 3 -9 16 -6 12 3 21 1 21 -6 0 -5 6 -8 14
-5 8 3 24 0 36 -6 12 -6 24 -9 27 -6 3 3 -6 10 -21 15 -14 6 -26 15 -26 20 0
11 39 3 58 -12 7 -5 15 -7 19 -4 6 7 32 -21 33 -35 0 -4 -11 -5 -24 -2 -28 5
-43 -11 -27 -30 13 -15 5 -26 -21 -26 -10 0 -18 -4 -18 -10 0 -5 6 -10 13 -10
6 0 26 -14 44 -30 18 -17 36 -30 41 -30 5 0 14 -10 20 -22 8 -17 11 -19 11 -6
1 9 -7 25 -16 34 -20 19 -22 20 32 -2 10 -4 15 0 15 10 0 10 6 13 15 10 8 -4
15 -2 15 2 0 5 14 16 32 23 42 19 118 70 118 80 0 13 -12 20 -26 14 -8 -3 -11
-9 -8 -14 3 -5 -2 -6 -10 -3 -18 7 -22 24 -6 24 6 0 10 5 10 11 0 8 -4 8 -12
2 -14 -11 -69 -10 -87 2 -6 3 -11 1 -11 -4 0 -6 -5 -11 -11 -11 -6 0 -8 7 -5
16 8 22 -41 69 -58 55 -7 -6 -15 -9 -17 -7 -12 10 -57 14 -65 6z m110 -26 c12
-5 13 -9 3 -25 -12 -20 -37 -26 -37 -9 0 6 5 10 11 10 6 0 9 7 5 15 -6 17 -4
18 18 9z"/>
<path d="M4133 4183 c-16 -6 -17 -39 -1 -49 8 -5 9 -2 5 10 -4 10 -1 19 8 22
8 4 15 10 15 15 0 10 -8 10 -27 2z"/>
<path d="M6030 4186 c0 -2 29 -25 63 -49 104 -74 157 -147 107 -147 -14 0 -18
-5 -13 -17 6 -16 5 -16 -10 -4 -9 7 -17 10 -17 6 0 -4 -6 -2 -14 4 -11 10 -16
9 -24 -5 -8 -15 -11 -15 -31 5 -27 27 -47 22 -43 -10 2 -22 1 -22 -29 9 -33
34 -43 33 -86 -7 -13 -12 -25 -17 -28 -11 -11 18 -26 10 -20 -10 4 -11 2 -20
-4 -20 -6 0 -11 5 -11 10 0 18 -18 11 -25 -10 -3 -11 -10 -20 -16 -20 -10 0
-39 -22 -77 -58 l-24 -23 8 23 c25 83 86 160 154 197 19 10 41 28 49 41 15 22
15 23 -6 12 -12 -7 -33 -12 -46 -12 -35 0 -97 -49 -137 -108 -19 -28 -44 -54
-55 -57 -45 -16 -110 -15 -152 1 -36 14 -46 15 -53 4 -4 -7 -17 -10 -29 -7
-11 3 -25 -1 -32 -9 -17 -21 -27 -17 -49 19 l-20 32 1 -60 c0 -87 17 -128 54
-136 28 -6 29 -7 8 -14 -13 -4 -23 -14 -23 -21 0 -21 -30 -17 -31 4 0 14 -2
14 -8 -3 -5 -11 -7 -23 -4 -27 2 -4 -2 -18 -9 -30 -14 -26 -22 -115 -12 -138
4 -8 9 -24 11 -34 2 -11 7 -24 12 -30 5 -6 12 -26 16 -43 3 -18 11 -33 16 -33
6 0 8 -4 4 -9 -3 -5 -1 -12 5 -16 6 -4 8 -11 4 -16 -5 -9 -54 38 -54 52 0 4
-9 9 -20 12 -12 3 -20 14 -20 26 0 19 -11 26 -35 21 -5 -1 -2 7 8 18 23 25 10
36 -21 16 -13 -8 -27 -13 -30 -9 -4 3 0 10 7 14 7 5 10 14 6 20 -5 9 -11 9
-22 -1 -14 -11 -15 -10 -8 11 5 16 4 21 -4 17 -6 -4 -11 -2 -11 3 0 6 -6 11
-13 11 -7 0 -23 9 -35 20 -12 11 -27 20 -34 20 -13 1 -61 68 -88 122 -7 15
-17 25 -22 22 -5 -3 9 -39 30 -79 28 -52 36 -77 28 -85 -7 -7 -5 -21 8 -45 11
-19 22 -35 25 -35 3 0 14 14 23 30 9 17 22 30 28 30 17 0 11 -18 -10 -33 -11
-8 -17 -17 -13 -20 3 -4 1 -7 -6 -7 -8 0 -10 -7 -6 -20 9 -27 -1 -25 -30 6
-16 17 -25 22 -25 13 0 -8 9 -20 21 -27 20 -13 20 -14 -20 -48 -23 -20 -41
-40 -41 -44 0 -5 12 -22 28 -38 15 -16 49 -55 75 -86 l49 -57 25 26 c14 14 29
25 33 25 3 0 7 -24 8 -52 1 -38 6 -56 19 -65 10 -7 23 -16 29 -21 28 -25 133
-92 142 -92 5 0 17 -16 27 -35 9 -20 35 -53 58 -75 42 -38 87 -109 87 -136 0
-8 6 -17 14 -20 7 -3 21 -23 31 -45 10 -21 21 -39 24 -39 3 0 21 -29 39 -64
39 -73 108 -153 137 -158 12 -2 19 2 18 9 -2 7 4 10 12 7 8 -4 15 -12 15 -19
0 -7 7 -15 15 -19 8 -3 15 -10 15 -16 0 -6 -4 -8 -10 -5 -5 3 -10 4 -10 0 0
-3 10 -10 23 -16 45 -21 86 -46 117 -72 33 -28 31 -23 117 -332 54 -199 60
-250 55 -475 -4 -192 -7 -218 -24 -242 -22 -31 -38 -36 -38 -12 0 8 -14 29
-30 46 -23 23 -36 29 -55 24 -20 -5 -27 -1 -40 24 -9 17 -24 30 -34 30 -11 0
-30 14 -43 31 -13 17 -33 41 -46 54 -23 23 -23 23 -3 37 11 8 25 26 32 41 10
23 10 30 -4 45 -10 10 -17 23 -17 29 0 6 -9 22 -20 36 -20 25 -20 26 -1 39 25
18 33 97 11 108 -8 4 -26 13 -40 20 -14 7 -38 16 -55 20 -17 3 -31 13 -33 23
-3 14 2 16 28 11 22 -5 36 -2 51 12 51 46 43 87 -21 117 -53 25 -57 43 -15 68
28 17 33 24 25 39 -7 13 -5 21 5 30 16 14 19 47 6 68 -5 8 -25 12 -57 11 -27
-1 -63 1 -81 5 -29 7 -32 10 -26 37 4 20 -2 43 -18 74 -29 54 -64 70 -119 55
-22 -6 -47 -7 -61 -2 -19 8 -23 17 -26 66 -5 81 -13 93 -75 101 -37 5 -57 14
-71 31 -13 17 -29 24 -53 24 -28 0 -34 4 -34 22 0 12 -11 34 -25 48 -25 26
-25 27 -10 71 15 41 15 45 -2 57 -10 7 -29 11 -43 7 -14 -3 -32 -6 -40 -6 -29
-1 -71 -22 -81 -40 -18 -34 -119 -22 -119 14 0 4 16 6 35 3 31 -5 35 -3 35 17
0 12 7 30 14 40 31 40 -10 95 -61 82 -16 -4 -34 0 -50 10 -14 10 -32 14 -41
10 -9 -4 -57 -9 -107 -10 -95 -3 -256 -14 -315 -21 -19 -3 -75 -6 -125 -8
-101 -3 -131 -10 -160 -36 -22 -20 -93 -42 -107 -34 -4 3 -8 0 -8 -7 0 -7 -10
-9 -25 -7 -16 4 -25 0 -28 -11 -3 -14 -5 -13 -12 2 -5 12 -1 31 12 55 12 20
24 58 27 85 4 26 11 47 17 47 5 0 9 4 9 9 0 11 -69 81 -79 81 -4 0 -31 -23
-59 -50 -34 -33 -52 -58 -52 -74 0 -20 -7 -25 -37 -31 -49 -9 -63 -21 -63 -56
0 -31 -9 -36 -28 -17 -9 9 -18 9 -36 0 -16 -7 -28 -8 -31 -2 -4 6 -14 10 -24
10 -10 0 -24 7 -31 15 -15 18 -61 20 -78 3 -8 -8 -15 -8 -25 1 -11 8 -27 9
-59 2 -24 -6 -54 -8 -66 -4 -30 7 -28 -11 3 -25 16 -8 25 -20 25 -35 0 -27 21
-48 68 -67 17 -7 32 -17 32 -22 0 -5 8 -8 18 -7 25 4 63 -11 56 -22 -3 -5 -14
-7 -24 -4 -12 4 -22 -1 -28 -12 -8 -13 -26 -18 -79 -21 -74 -3 -110 9 -83 29
13 9 13 10 -2 5 -9 -3 -31 2 -49 11 -31 15 -90 18 -168 8 -31 -4 -61 11 -61
31 0 5 5 3 12 -4 17 -17 28 -15 21 5 -5 13 -2 15 12 10 15 -6 16 -5 6 7 -7 8
-19 12 -27 9 -8 -3 -14 0 -14 6 0 6 5 11 10 11 6 0 10 5 10 11 0 7 -12 10 -30
7 -33 -5 -40 6 -12 21 16 9 16 10 0 16 -9 4 -22 4 -28 0 -18 -11 -40 15 -40
46 0 33 -5 35 -26 14 -21 -21 -34 -19 -34 5 0 11 -5 20 -11 20 -6 0 -13 -9
-16 -20 -6 -23 -10 -24 -46 -7 -24 11 -32 25 -28 50 1 4 -6 31 -15 59 -14 41
-15 54 -5 70 11 17 8 34 -15 104 -16 46 -32 84 -36 84 -4 0 -5 7 -1 16 4 11 2
15 -6 13 -17 -6 -16 -10 15 -76 21 -44 25 -59 15 -72 -23 -32 -24 -45 -10 -85
8 -23 13 -48 11 -57 -4 -22 -129 -77 -172 -76 -19 0 -66 -9 -105 -21 -38 -12
-79 -21 -90 -21 -11 1 -40 -2 -65 -6 -75 -10 -217 -14 -247 -6 -22 6 -28 13
-29 39 -1 21 3 32 12 32 7 0 16 5 20 12 5 7 2 9 -9 5 -9 -3 -18 -1 -21 6 -3 8
-7 9 -13 2 -15 -19 -52 -35 -68 -29 -8 3 -15 1 -15 -5 0 -6 -6 -11 -14 -11 -7
0 -19 -7 -26 -15 -7 -8 -16 -13 -20 -10 -11 7 -40 -64 -49 -122 -4 -29 -6 -53
-5 -53 10 0 54 45 54 54 0 6 15 17 32 24 18 8 43 18 55 24 12 6 30 7 40 4 17
-7 35 -11 148 -36 22 -5 103 -19 180 -32 136 -23 143 -23 223 -8 45 9 82 14
82 11 -1 -15 -19 -33 -28 -27 -6 3 -13 2 -17 -4 -3 -5 -1 -10 5 -10 6 0 8 -4
5 -10 -3 -5 -15 -10 -25 -10 -10 0 -21 -6 -23 -12 -4 -9 -8 -9 -14 -3 -4 6
-29 12 -55 13 -39 3 -48 1 -48 -12 0 -19 -16 -21 -23 -3 -4 8 -8 9 -14 2 -16
-21 -60 -34 -72 -22 -8 8 -11 8 -11 -1 0 -7 -9 -12 -19 -12 -45 0 18 -64 64
-65 6 0 11 -10 13 -21 2 -12 13 -24 25 -28 29 -7 36 3 13 20 -11 7 -17 17 -13
20 4 4 14 -2 24 -14 10 -11 30 -23 46 -26 22 -5 27 -3 27 14 0 11 4 20 9 20 5
0 7 -9 4 -20 -4 -16 -1 -20 13 -17 11 1 24 6 31 10 6 4 18 5 26 1 10 -3 17 3
21 21 4 17 12 25 20 22 16 -7 26 32 26 107 1 49 16 86 38 86 5 0 12 -6 15 -13
5 -14 61 -44 185 -97 66 -29 76 -31 104 -19 27 11 32 11 36 -1 3 -8 25 -34 49
-59 23 -25 42 -50 40 -56 -2 -5 -20 -11 -40 -13 -41 -4 -77 -41 -98 -101 -8
-24 -16 -30 -29 -26 -10 3 -21 1 -25 -5 -3 -5 -14 -10 -24 -10 -10 0 -26 -9
-36 -20 -10 -11 -35 -25 -56 -30 -21 -6 -43 -20 -49 -30 -6 -11 -19 -20 -30
-20 -18 0 -37 -25 -60 -82 -12 -28 -44 -49 -33 -21 5 12 1 14 -24 9 -40 -9
-63 15 -39 40 42 41 68 115 73 208 3 53 1 102 -5 116 -9 21 -11 15 -12 -40 -1
-36 -3 -72 -4 -80 -2 -8 -3 -23 -4 -32 -3 -31 -22 -19 -23 15 -1 29 -2 29 -10
-11 -9 -46 -34 -82 -42 -59 -2 6 3 17 12 24 14 10 13 12 -6 10 -12 0 -20 -4
-18 -7 4 -6 -30 -40 -40 -40 -2 0 -2 7 1 15 9 23 -3 18 -35 -15 -15 -17 -43
-35 -62 -42 -19 -6 -44 -19 -57 -29 -25 -19 -52 -16 -52 7 0 19 -19 18 -26 -1
-4 -8 -11 -15 -16 -15 -6 0 -16 -7 -23 -16 -10 -14 -14 -14 -26 -3 -40 39 -48
42 -64 26 -8 -9 -15 -23 -15 -31 0 -13 -4 -12 -20 4 -11 11 -20 29 -20 39 0
30 -15 33 -18 3 -3 -33 -22 -55 -22 -25 0 25 -16 39 -23 21 -3 -7 -6 -2 -6 13
-1 14 4 30 11 37 9 9 9 12 1 12 -7 0 -18 -9 -27 -21 l-14 -21 -4 23 c-2 13 -9
23 -16 22 -6 -2 -12 6 -12 18 0 15 -5 19 -16 15 -8 -3 -13 -2 -11 2 3 4 1 17
-4 30 -7 19 -12 21 -28 12 -23 -12 -31 -13 -30 -2 3 12 -25 72 -33 72 -4 0 -8
-4 -8 -10 0 -5 -5 -10 -11 -10 -6 0 -9 7 -5 15 3 8 -4 21 -16 29 -25 18 -34
56 -16 68 9 5 6 8 -9 8 -15 0 -23 7 -25 22 -2 18 -12 24 -41 29 -39 6 -62 19
-34 19 10 0 17 7 17 15 0 8 5 15 10 15 6 0 10 5 10 10 0 6 -11 8 -26 4 -17 -4
-29 -2 -35 7 -7 12 -10 12 -18 1 -7 -11 -9 -11 -14 2 -7 17 -37 22 -37 7 0 -5
-9 -7 -20 -4 -11 3 -20 9 -20 14 0 5 -4 9 -10 9 -12 0 -9 -42 4 -51 12 -9 -2
-29 -20 -29 -8 0 -14 -7 -14 -16 0 -14 2 -14 22 0 30 21 37 20 31 -3 -3 -12
-11 -17 -19 -14 -8 3 -21 0 -29 -7 -12 -10 -16 -9 -20 2 -3 8 -5 21 -3 29 5
21 -60 15 -77 -8 -10 -12 -14 -14 -15 -4 0 9 -8 11 -24 7 -14 -3 -28 -2 -31 4
-11 18 -42 11 -58 -12 -8 -13 -19 -19 -23 -15 -5 4 -2 12 6 17 22 13 5 23 -19
11 -12 -6 -30 -15 -41 -21 -23 -11 -37 4 -21 23 5 7 6 19 2 26 -6 10 -10 9
-14 -3 -9 -24 -27 -19 -28 7 l0 22 -10 -23 c-12 -31 -32 -17 -25 17 l5 26 -12
-27 c-12 -31 -42 -40 -33 -10 8 24 -33 47 -68 38 -15 -4 -26 -2 -26 4 0 5 3
10 8 10 4 0 13 9 20 20 11 18 10 19 -13 10 -21 -8 -25 -7 -25 9 0 11 -6 22
-12 25 -10 5 -10 7 0 12 20 10 14 22 -13 22 -15 0 -25 -6 -25 -14 0 -8 5 -14
10 -14 6 0 10 -8 9 -17 0 -15 -3 -14 -17 6 -25 36 -26 64 -3 56 23 -7 37 10
46 58 8 40 -3 49 -23 17 -7 -11 -18 -17 -27 -14 -10 4 -15 0 -15 -14 0 -11 -7
-22 -15 -26 -12 -4 -14 0 -9 19 3 14 -1 38 -10 56 -19 37 -19 39 -7 39 5 0 12
-13 16 -30 8 -35 5 -34 40 -16 19 10 23 16 14 22 -7 4 -15 2 -17 -4 -2 -7 -8
-10 -13 -7 -5 4 1 19 12 34 17 23 19 33 10 47 -10 18 -10 18 -11 -3 0 -26 -18
-39 -32 -25 -8 8 -19 5 -40 -9 -15 -11 -28 -15 -28 -10 0 6 16 19 35 28 25 12
35 23 35 40 0 13 -5 23 -11 23 -5 0 -8 4 -5 9 3 5 -1 14 -9 21 -10 9 -15 9
-15 1 0 -6 5 -11 11 -11 8 0 8 -5 -1 -15 -10 -11 -10 -18 -1 -29 10 -11 7 -18
-11 -30 -21 -15 -24 -15 -35 1 -7 9 -13 22 -13 27 0 6 5 3 11 -6 12 -22 29
-23 29 -3 0 8 -4 15 -9 15 -5 0 -12 12 -15 26 -5 18 -12 24 -22 20 -12 -5 -12
-1 2 24 10 16 22 27 26 24 12 -8 38 15 38 32 0 22 -17 16 -24 -8 -7 -22 -7
-22 -15 -3 -8 19 -8 19 -15 -2 -7 -23 -26 -32 -26 -13 0 6 4 10 10 10 5 0 9 3
8 8 0 4 3 16 7 26 6 13 4 21 -3 24 -7 2 -12 11 -12 20 -1 15 -2 14 -11 -2 -9
-14 -8 -21 2 -28 11 -7 11 -11 2 -15 -7 -2 -13 -11 -13 -19 0 -9 -5 -12 -11
-8 -6 3 -15 0 -20 -7 -14 -22 -11 -29 9 -22 15 6 15 5 -2 -12 -14 -14 -21 -16
-24 -7 -4 14 -32 17 -32 3 0 -5 6 -11 13 -14 9 -3 8 -8 -3 -23 -14 -17 -14
-18 2 -6 10 8 18 9 22 3 7 -11 -52 -46 -62 -37 -3 3 0 6 6 6 7 0 12 5 12 11 0
6 -7 9 -15 5 -21 -8 -20 30 1 42 11 6 13 11 5 16 -6 4 -14 0 -17 -8 -10 -26
-27 -18 -20 9 4 16 1 31 -7 39 -7 7 -12 30 -12 50 1 20 -3 36 -9 36 -6 0 -31
-23 -57 -51 -43 -49 -48 -52 -97 -53 -29 -1 -52 2 -52 7 0 5 -7 6 -16 3 -10
-4 -27 5 -45 24 -16 16 -32 29 -34 30 -3 0 -10 0 -16 0 -6 0 -9 7 -5 15 3 9 0
15 -8 15 -12 0 -56 44 -56 56 0 3 -7 12 -15 21 -8 8 -13 19 -10 24 4 5 1 9 -4
9 -6 0 -11 7 -11 16 0 17 4 16 70 -1 l25 -7 -25 21 c-14 11 -30 21 -36 21 -18
0 -12 30 7 30 24 0 49 11 49 21 0 5 -7 9 -15 9 -8 0 -15 3 -15 8 0 4 -10 13
-22 21 -22 14 -22 13 -6 -12 17 -24 16 -25 -7 -23 -18 1 -23 6 -20 17 4 13 0
15 -19 12 -27 -6 -66 -55 -49 -60 7 -3 8 -17 2 -44 -5 -22 -7 -44 -4 -50 4 -5
1 -9 -6 -9 -8 0 -6 -6 4 -18 10 -10 17 -27 17 -38 0 -10 6 -28 13 -40 6 -12
24 -44 39 -71 29 -55 42 -63 94 -63 20 0 34 -5 35 -12 2 -20 -1 -41 -8 -58 -4
-8 -8 -28 -9 -45 -2 -16 -7 -51 -12 -77 -5 -27 -5 -48 0 -48 4 0 8 9 8 19 0
11 5 23 10 26 6 3 10 18 10 32 0 24 2 25 39 19 48 -7 131 18 167 51 14 13 29
21 34 18 4 -3 6 3 3 14 -3 10 0 22 6 25 6 4 11 16 11 27 0 10 4 19 9 19 5 0 7
-18 5 -40 -2 -21 1 -42 6 -45 13 -8 13 -35 0 -35 -5 0 -10 8 -10 18 0 14 -2
15 -10 2 -6 -10 -4 -20 6 -31 7 -8 14 -23 14 -32 0 -9 7 -17 15 -17 8 0 15 -4
15 -10 0 -5 -5 -10 -10 -10 -6 0 -9 -13 -8 -30 1 -17 8 -30 15 -30 7 0 13 -5
13 -11 0 -5 4 -8 9 -4 14 8 40 -33 34 -56 -4 -13 0 -19 12 -19 12 0 16 6 12
20 -3 11 -2 20 3 20 4 0 10 -11 12 -25 3 -13 2 -22 -3 -20 -4 3 -10 1 -14 -4
-3 -5 -14 -9 -25 -8 -10 1 -16 5 -14 9 3 4 1 8 -4 8 -5 0 -13 10 -16 23 -7 21
-7 21 -15 2 -5 -11 -5 -24 0 -29 5 -6 9 -18 9 -28 0 -10 10 -20 24 -24 13 -3
23 -12 22 -20 -3 -21 -16 -30 -16 -11 0 9 -7 17 -16 17 -8 0 -20 13 -25 29 -7
20 -15 28 -25 24 -8 -3 -18 4 -24 18 l-11 24 6 -25 c2 -14 5 -28 5 -32 0 -5 7
-8 15 -8 8 0 15 -4 15 -10 0 -21 -31 -9 -40 15 -5 14 -14 25 -19 25 -5 0 -5
-12 2 -29 9 -25 8 -33 -6 -49 -9 -10 -17 -26 -17 -35 0 -20 -16 -31 -25 -17
-6 10 -78 50 -90 50 -17 0 0 -20 25 -29 17 -5 30 -15 30 -20 0 -6 7 -11 15
-11 8 0 15 -7 15 -15 0 -8 5 -15 10 -15 6 0 10 -6 10 -13 0 -7 10 -21 22 -32
14 -11 18 -20 11 -22 -18 -6 -62 29 -63 49 0 18 -55 68 -73 67 -26 -1 -51 -16
-40 -22 7 -4 14 -3 18 2 3 6 13 3 24 -8 10 -10 24 -20 32 -23 8 -3 10 -10 4
-24 -8 -18 -9 -18 -12 3 -3 14 -11 21 -23 20 -21 -1 -34 -23 -23 -40 4 -7 0
-8 -11 -4 -15 6 -17 3 -11 -23 4 -17 3 -30 -2 -30 -17 1 -39 26 -40 45 -3 65
-17 124 -31 130 -22 8 -27 -2 -11 -21 7 -9 12 -30 10 -46 -1 -16 3 -36 9 -43
7 -8 10 -26 8 -40 -3 -13 -1 -22 3 -19 5 3 9 -6 9 -19 0 -33 21 -91 29 -79 3
6 6 -9 7 -32 1 -27 8 -51 20 -64 31 -33 44 -51 44 -57 0 -24 177 -208 191
-199 5 3 9 -2 9 -10 0 -9 -5 -16 -12 -16 -6 0 -8 -3 -5 -6 4 -4 13 -1 21 5 16
13 29 1 21 -21 -3 -8 3 -13 20 -14 14 -1 25 1 25 5 0 16 155 85 189 84 36 -1
76 -18 101 -43 19 -19 25 -70 9 -70 -8 0 -10 -12 -6 -34 5 -30 2 -35 -19 -40
-13 -4 -24 -11 -24 -17 0 -12 14 -10 85 12 22 6 64 14 93 16 28 3 52 8 52 12
0 4 14 6 30 3 17 -2 36 0 43 4 6 5 39 9 72 9 33 0 62 3 65 6 10 12 73 22 66
10 -4 -6 0 -11 8 -11 9 0 15 3 13 8 -1 4 2 7 8 7 5 0 9 -3 8 -7 -5 -15 16 -8
25 7 4 9 25 18 45 22 35 5 37 4 37 -20 0 -38 39 -72 55 -47 3 5 11 7 18 5 7
-2 40 -6 74 -9 34 -2 68 -8 75 -12 7 -4 21 -9 32 -9 10 -1 24 -9 31 -18 6 -9
23 -19 38 -22 15 -4 30 -11 33 -16 3 -5 14 -9 25 -9 10 0 19 -6 19 -14 0 -8
10 -16 23 -20 12 -3 31 -13 42 -23 11 -10 32 -24 47 -32 39 -20 58 -53 65
-111 3 -27 10 -47 14 -44 5 3 9 -1 9 -10 0 -8 -6 -17 -12 -20 -10 -5 -10 -7 0
-12 6 -3 12 -12 12 -20 0 -8 10 -14 22 -14 20 0 18 -3 -13 -31 -19 -18 -26
-29 -16 -26 11 4 17 1 17 -9 0 -12 6 -15 23 -11 l22 6 -24 -20 c-13 -10 -19
-19 -14 -19 5 0 10 -13 10 -30 0 -24 -3 -27 -14 -19 -10 9 -13 8 -13 -5 0 -9
7 -16 15 -16 19 0 19 -11 0 -36 -20 -26 -19 -31 6 -30 12 1 24 -5 26 -12 3 -8
-1 -10 -14 -6 -15 6 -16 4 -6 -7 18 -18 16 -27 -5 -32 -16 -4 -16 -5 1 -6 23
-1 22 -13 -3 -29 -11 -7 -20 -18 -19 -25 0 -9 2 -9 6 1 6 14 33 16 33 2 0 -5
-5 -10 -11 -10 -6 0 -8 -8 -4 -19 7 -24 -13 -40 -56 -43 -19 -1 -37 -7 -42
-13 -5 -7 -10 -6 -16 4 -7 10 -11 9 -22 -6 -8 -11 -31 -25 -52 -32 -20 -7 -37
-17 -37 -22 0 -13 -47 -11 -56 2 -5 8 -10 6 -16 -5 -13 -23 -2 -35 25 -29 l22
5 -24 -17 c-19 -15 -25 -15 -32 -4 -7 11 -10 9 -15 -8 -4 -13 -10 -23 -15 -23
-5 0 -6 -6 -3 -14 3 -8 0 -25 -7 -37 -11 -21 -13 -22 -18 -6 -6 15 -12 12 -46
-21 -22 -21 -42 -47 -43 -58 -5 -25 -22 -34 -51 -27 -17 4 -28 0 -39 -13 -10
-14 -16 -16 -19 -6 -4 10 -9 10 -27 -1 -14 -10 -40 -14 -71 -12 -27 2 -54 1
-60 -3 -5 -4 -26 -8 -45 -10 -39 -4 -39 -4 -95 3 -71 9 -108 5 -152 -19 -37
-19 -37 -20 -22 -82 12 -47 19 -52 43 -29 9 9 17 11 21 5 12 -19 26 -10 19 12
-6 20 -5 21 10 9 18 -15 22 -1 5 16 -8 8 -5 13 12 18 26 7 64 22 92 37 20 10
38 2 21 -10 -5 -4 -20 -20 -32 -36 -14 -19 -22 -23 -22 -13 0 11 -9 15 -30 15
-25 -1 -28 -3 -18 -16 8 -9 14 -10 16 -3 5 16 22 13 22 -4 0 -8 -4 -15 -10
-15 -5 0 -10 -6 -10 -12 -1 -19 -50 -76 -50 -58 0 13 -1 13 -10 0 -5 -8 -13
-15 -17 -16 -4 0 -16 -4 -26 -9 -26 -11 -34 3 -11 20 10 8 14 15 8 15 -5 0
-15 -5 -21 -11 -16 -16 -44 -4 -37 16 5 12 -2 15 -34 15 -23 0 -43 -5 -45 -12
-8 -20 -28 13 -21 35 3 9 1 17 -5 17 -6 0 -11 -13 -11 -29 0 -17 -5 -33 -12
-37 -8 -5 -9 -2 -5 10 4 10 1 19 -9 23 -9 3 -14 15 -12 32 2 20 -1 25 -14 23
-21 -3 -26 34 -5 41 6 2 9 8 5 12 -4 4 -14 3 -21 -3 -19 -16 -28 -4 -20 26 5
22 3 24 -16 19 -23 -6 -27 3 -9 21 9 9 8 15 -7 26 -11 8 -23 12 -27 10 -5 -3
-8 0 -8 5 0 6 -13 11 -30 11 -25 0 -30 4 -30 25 0 25 -19 37 -21 13 0 -7 -4
-3 -9 9 -5 13 -16 23 -25 23 -8 0 -15 4 -15 9 0 6 -8 10 -17 10 -15 0 -59 8
-108 21 -5 1 -18 2 -29 1 -15 -1 -17 -6 -12 -32 6 -32 82 -161 98 -167 12 -5
10 -62 -3 -62 -6 0 -8 -8 -4 -19 3 -11 1 -22 -4 -25 -5 -4 -8 -18 -5 -31 2
-14 0 -25 -6 -25 -5 0 -10 -4 -10 -10 0 -5 7 -10 15 -10 10 0 15 -10 15 -27
-1 -27 -1 -28 -16 -8 -16 19 -16 19 -10 -10 13 -65 26 -255 18 -254 -4 0 -16
4 -27 8 -13 5 -24 3 -31 -7 -14 -19 -34 -7 -34 19 0 10 -4 19 -10 19 -5 0 -10
5 -10 10 0 6 7 10 15 10 8 0 15 9 15 20 0 11 7 23 15 26 15 6 10 64 -7 75 -5
3 -8 19 -6 34 3 25 -1 30 -27 35 -17 4 -43 14 -57 24 -27 17 -27 17 -32 -6 -7
-32 -3 -88 7 -88 4 0 7 6 7 13 0 8 3 8 9 -2 12 -19 -9 -53 -31 -48 -18 5 -30
-13 -34 -51 -3 -25 -24 -56 -32 -48 -10 10 -11 76 -1 76 6 0 8 -4 5 -8 -2 -4
-1 -14 4 -22 6 -9 8 -2 7 20 -1 23 -7 34 -20 36 -16 2 -21 -7 -18 -33 1 -6 -9
-14 -21 -16 l-23 -4 23 -2 c15 -1 22 -6 18 -13 -3 -7 -8 -20 -12 -28 -7 -20
-52 -41 -60 -28 -3 5 -17 14 -31 19 -21 8 -23 12 -13 24 18 22 6 29 -14 10
-21 -22 -20 -32 4 -45 11 -6 20 -14 20 -18 0 -12 -81 -13 -96 -1 -7 6 -18 8
-23 5 -5 -4 -14 1 -19 10 -5 9 -15 14 -21 10 -6 -4 -8 -12 -5 -18 5 -7 0 -9
-14 -6 -12 4 -22 2 -22 -3 0 -5 -5 -9 -11 -9 -7 0 -9 9 -6 21 3 12 3 18 0 15
-4 -3 -12 -1 -20 6 -18 15 -29 2 -13 -17 11 -14 7 -19 -12 -16 -5 0 -8 -27 -8
-60 0 -54 2 -60 15 -49 13 10 15 9 15 -10 0 -19 4 -21 32 -15 60 12 67 16 70
38 2 15 10 22 26 23 20 1 22 -2 16 -34 -5 -25 -4 -33 5 -28 6 4 11 2 11 -3 0
-6 4 -11 10 -11 5 0 7 6 4 14 -3 8 -1 17 5 21 19 11 12 -31 -10 -59 -12 -15
-30 -26 -45 -26 -15 0 -24 -6 -24 -15 0 -13 172 -15 1511 -15 l1510 0 -2 23
c-2 12 0 27 4 33 4 7 0 11 -11 10 -9 0 -20 -8 -24 -16 -5 -12 -7 -12 -7 2 -1
21 25 37 49 31 10 -3 21 0 24 6 5 7 -5 11 -28 11 -19 0 -36 -6 -39 -12 -3 -9
-9 -7 -20 7 -14 18 -14 21 1 29 20 11 32 27 32 41 -1 6 -5 2 -11 -8 -8 -14
-14 -16 -25 -6 -8 7 -12 20 -9 30 7 22 -2 59 -15 59 -5 0 -7 -7 -3 -16 4 -12
2 -15 -8 -12 -9 3 -13 16 -11 36 2 19 -1 32 -8 32 -7 0 -8 6 0 19 8 17 7 19
-15 16 -16 -1 -25 3 -25 11 0 8 5 14 10 14 6 0 10 12 10 28 -1 25 -2 25 -14 9
-12 -15 -14 -10 -20 41 -4 32 -3 67 1 78 6 17 5 17 -10 5 -15 -12 -17 -10 -15
25 1 22 -1 55 -5 74 -5 25 -4 29 2 15 9 -19 10 -19 10 2 1 13 -8 32 -19 43
-24 24 -26 34 -5 26 9 -3 15 0 15 9 0 8 -6 15 -12 15 -9 0 -8 4 2 10 8 5 10
10 4 10 -7 0 -14 9 -17 20 -3 11 -13 20 -22 20 -12 0 -16 6 -12 20 3 11 2 20
-3 20 -13 0 -18 64 -6 72 8 6 8 8 -1 8 -23 0 -6 254 27 395 7 28 14 66 16 85
7 67 15 100 23 100 5 0 12 12 15 26 8 31 11 29 20 -9 4 -19 3 -26 -4 -22 -6 3
-10 -3 -10 -15 0 -39 30 -17 63 44 32 60 68 101 98 111 9 3 19 18 22 33 7 34
42 80 71 93 11 5 35 18 51 28 46 30 124 24 201 -16 28 -14 33 -14 68 2 44 21
33 35 -26 35 -21 0 -38 3 -38 8 0 8 -9 9 -160 12 -58 2 -116 -1 -130 -5 -19
-5 -21 -4 -10 4 13 9 13 12 -2 28 -17 16 -18 16 -18 -2 0 -10 -3 -15 -6 -12
-4 3 -15 2 -25 -3 -12 -7 -20 -7 -24 0 -3 5 -1 10 5 10 6 0 15 10 20 23 6 12
14 29 19 37 29 50 51 100 51 117 0 14 17 29 56 49 31 16 62 37 68 46 7 10 16
15 21 10 4 -4 5 1 2 11 -6 15 -4 16 14 6 18 -9 26 -6 54 23 18 18 43 40 55 50
l22 16 -31 28 c-17 15 -28 31 -24 37 3 6 1 7 -5 3 -7 -4 -25 1 -41 10 -30 18
-30 18 -8 29 12 6 28 23 35 38 8 16 25 33 38 39 13 6 24 15 24 20 0 4 10 8 21
8 16 0 19 3 11 13 -18 21 -7 52 16 51 14 0 24 8 30 26 7 19 32 37 103 71 107
53 193 83 213 76 8 -3 16 -3 19 0 10 10 109 13 121 4 6 -5 29 -11 51 -14 137
-18 295 -60 327 -87 l23 -19 -60 -2 c-33 -1 -65 -1 -72 0 -6 1 -14 -3 -18 -9
-9 -15 -25 -12 -25 5 0 20 -7 19 -32 -4 -11 -11 -26 -17 -34 -14 -8 3 -14 1
-14 -4 0 -6 -11 -15 -25 -21 -31 -14 -34 -36 -4 -27 15 5 19 4 15 -4 -4 -6 -4
-16 0 -22 4 -8 12 -3 20 12 l13 24 1 -25 c1 -25 1 -25 10 -2 12 28 30 28 59 1
l23 -22 -7 22 c-4 12 -2 21 4 21 6 0 11 -4 11 -10 0 -5 7 -10 16 -10 9 0 12
-5 8 -12 -5 -7 -3 -8 6 -3 8 5 58 10 112 12 87 4 104 2 144 -19 25 -12 55 -31
66 -43 31 -32 68 -95 75 -126 3 -16 11 -29 19 -29 7 0 19 -6 26 -13 7 -7 25
-18 41 -24 22 -10 27 -10 27 1 0 8 -3 16 -7 19 -5 2 -2 2 5 1 6 -2 12 6 12 17
0 11 6 19 13 18 6 0 22 2 35 6 19 6 23 14 20 41 -1 19 1 34 5 34 8 0 142 -138
162 -168 7 -9 15 -30 19 -45 8 -32 186 -217 209 -217 23 0 79 -83 132 -195 26
-55 52 -108 57 -118 5 -10 6 -22 3 -27 -3 -5 -1 -11 5 -15 5 -3 10 -19 10 -34
0 -15 5 -32 10 -37 6 -6 12 -36 14 -67 5 -63 12 -81 28 -71 7 5 9 -3 6 -21 -4
-18 1 -39 13 -59 10 -17 19 -41 19 -53 0 -12 5 -25 10 -28 6 -3 10 -16 10 -29
0 -12 9 -42 21 -65 14 -30 17 -47 10 -54 -15 -15 28 -45 102 -72 34 -12 73
-27 87 -32 46 -18 150 -53 160 -53 5 0 1 13 -8 29 -22 39 -8 51 24 20 25 -24
26 -24 40 -5 8 11 14 25 14 32 0 14 51 54 107 82 32 17 48 35 68 74 15 29 43
76 64 103 21 28 64 92 96 143 32 52 64 96 72 99 16 6 168 -13 184 -22 5 -4 -1
-21 -14 -38 -20 -27 -79 -122 -122 -195 -25 -42 -88 -133 -96 -138 -33 -20 39
-55 237 -114 113 -34 239 -124 300 -216 20 -30 50 -89 66 -132 16 -42 33 -86
38 -97 4 -11 11 -33 15 -50 4 -16 18 -55 32 -85 50 -109 91 -206 118 -283 l28
-77 369 0 368 0 0 480 c-1 264 -4 480 -8 480 -16 -1 -30 -17 -35 -40 -4 -25
-4 -25 -6 3 -1 17 -7 27 -17 27 -8 0 -12 5 -9 10 3 6 1 10 -4 10 -14 0 -14
-27 -1 -35 6 -3 10 -13 10 -22 0 -11 -8 -8 -26 13 -17 19 -28 25 -31 17 -5
-15 -33 -18 -33 -4 0 9 -41 23 -48 16 -2 -2 5 -14 17 -26 11 -12 18 -26 15
-31 -4 -6 -12 1 -18 14 -8 15 -20 22 -34 21 -15 -2 -22 3 -22 13 0 14 -3 14
-15 4 -12 -10 -15 -10 -15 3 0 8 6 18 13 20 6 3 2 6 -10 6 -18 1 -21 -3 -17
-24 2 -14 0 -25 -6 -25 -5 0 -10 8 -11 18 0 9 -3 12 -6 5 -3 -9 -11 -7 -26 7
-11 11 -30 20 -41 20 -20 0 -19 1 2 16 18 13 26 13 38 3 8 -6 17 -9 21 -5 12
12 -32 36 -55 31 -13 -3 -21 -2 -19 2 3 5 -4 9 -16 8 -12 0 -23 4 -24 10 -3
18 -38 23 -55 7 -15 -12 -22 -13 -48 -2 -16 7 -30 17 -30 22 0 5 5 6 11 2 7
-4 10 -1 7 6 -2 8 -20 19 -39 26 -19 7 -28 13 -21 13 19 1 14 19 -9 31 -25 14
-36 6 -21 -13 7 -8 9 -16 6 -20 -11 -10 -34 5 -34 22 0 24 -60 16 -61 -8 0
-12 -2 -12 -9 4 -7 17 -9 17 -9 3 -1 -21 -17 -24 -24 -5 -4 9 -6 9 -6 0 -1 -7
-7 -10 -15 -7 -8 3 -16 -2 -19 -13 -3 -14 -5 -12 -11 10 -6 20 -15 27 -32 27
-13 0 -24 5 -24 11 0 6 -6 9 -13 6 -7 -3 -29 3 -49 13 -27 13 -59 17 -139 16
-57 -1 -115 3 -129 8 -14 5 -27 10 -30 10 -3 1 -11 5 -17 9 -7 5 -13 5 -13 0
-1 -4 -7 3 -15 17 -14 26 -13 64 6 136 8 32 19 46 49 63 21 11 51 21 67 21 17
0 52 7 79 15 27 8 61 15 76 15 29 0 46 15 25 23 -7 3 -32 2 -55 -3 -30 -5 -42
-4 -42 5 0 13 -48 61 -58 59 -20 -4 -54 19 -63 43 -12 32 -5 119 14 175 18 50
41 74 93 94 24 9 44 21 44 27 0 5 5 5 13 -2 8 -6 49 -16 93 -21 111 -15 366
-60 384 -67 20 -8 18 -8 75 -17 28 -4 55 -11 60 -16 9 -6 46 -15 112 -25 55
-8 52 -29 -4 -40 -34 -6 -36 -8 -20 -20 22 -16 22 -25 -3 -25 -13 0 -18 -5
-14 -15 8 -20 20 -19 45 6 36 36 34 11 -2 -27 -27 -29 -30 -35 -14 -32 11 1
20 -2 20 -9 0 -6 4 -15 9 -20 5 -4 6 3 2 19 -3 15 -2 29 4 33 5 3 12 -5 16
-19 3 -14 12 -30 20 -37 12 -10 13 -6 8 22 -3 19 -7 40 -10 47 -2 6 3 12 11
12 21 0 28 19 15 35 -7 9 -8 15 -2 15 18 0 23 -33 6 -51 -9 -9 -14 -25 -12
-35 4 -24 28 -30 28 -7 1 17 2 17 15 -2 15 -18 61 -35 153 -54 l42 -8 0 182
c0 137 -3 185 -12 189 -10 5 -10 7 0 12 23 11 12 34 -19 41 -24 4 -30 10 -26
25 3 11 0 22 -9 25 -23 9 -16 19 26 36 22 8 40 20 40 26 0 6 -7 8 -15 5 -10
-4 -15 0 -15 12 0 16 -15 12 -15 -4 0 -13 -16 -32 -26 -32 -5 0 -8 6 -7 12 2
7 -4 13 -12 13 -8 0 -14 -5 -13 -11 3 -17 -37 -5 -44 12 -3 8 -11 14 -19 14
-7 0 -11 -6 -8 -14 3 -7 -2 -16 -11 -20 -9 -3 -13 -2 -10 3 3 6 -1 13 -8 18
-7 4 -16 15 -19 24 -8 20 -55 14 -60 -7 -2 -9 -8 -10 -17 -5 -19 12 -6 62 13
55 8 -3 17 3 20 14 6 18 33 32 64 32 7 0 10 -5 6 -11 -8 -13 35 -3 51 12 15
15 28 10 15 -6 -7 -8 -9 -15 -4 -15 14 0 31 14 36 29 7 22 37 21 44 -1 6 -19
6 -19 20 -1 13 17 13 17 14 -4 0 -13 5 -23 10 -23 7 0 10 118 9 350 0 193 -3
350 -6 350 -15 0 -43 -23 -43 -35 0 -8 -5 -15 -11 -15 -6 0 -8 9 -4 22 6 16 4
20 -9 15 -8 -3 -18 -2 -22 4 -3 5 -14 7 -25 4 -11 -4 -19 -2 -19 4 0 6 5 11
11 11 5 0 7 5 3 11 -3 6 -16 8 -27 5 -12 -3 -25 1 -31 9 -17 23 -91 20 -120
-4 -14 -12 -16 -10 -16 9 0 19 -2 20 -15 10 -8 -7 -25 -10 -40 -6 -19 5 -23 3
-19 -8 4 -11 0 -13 -15 -9 -12 3 -21 9 -21 14 0 5 -6 9 -13 9 -14 0 -43 49
-57 98 -12 42 22 125 70 171 44 41 131 73 205 74 86 1 131 -17 161 -64 13 -21
29 -39 34 -39 6 0 10 -12 11 -27 0 -16 4 -37 9 -48 5 -12 9 85 9 239 l1 259
-185 -7 c-154 -5 -190 -4 -221 9 -29 12 -45 13 -77 4 -45 -12 -181 3 -251 27
-45 16 -95 18 -116 4 -12 -7 -8 -11 17 -16 18 -3 31 -9 31 -13 -1 -3 6 -20 15
-38 21 -40 11 -109 -31 -203 -12 -28 -16 -31 -21 -17 -6 16 -8 16 -26 3 -11
-9 -26 -16 -34 -16 -8 0 -19 -7 -25 -16 -14 -18 -50 -8 -42 12 7 17 -3 44 -16
44 -5 0 -6 -10 -3 -21 5 -15 3 -20 -6 -17 -8 3 -15 13 -17 24 -4 27 -36 94
-44 94 -5 0 -8 -7 -8 -15 0 -8 5 -15 10 -15 6 0 10 -4 10 -10 0 -5 -6 -9 -12
-7 -7 1 -18 25 -24 52 -6 28 -15 49 -21 48 -6 -1 -9 6 -6 16 3 10 -2 32 -10
47 -13 25 -15 52 -7 89 1 6 1 12 0 15 -1 3 -4 16 -6 30 -6 45 -13 105 -13 118
-1 7 -5 11 -9 8 -5 -3 -9 -28 -10 -57 0 -31 -7 -58 -16 -68 -9 -10 -16 -23
-16 -29 0 -7 -6 -12 -14 -12 -23 0 -41 -31 -42 -72 0 -23 -6 -43 -15 -49 -10
-7 -11 -11 -2 -17 12 -8 13 -29 1 -48 -4 -6 -5 -25 -3 -42 3 -25 0 -32 -13
-32 -15 0 -15 -2 -2 -10 12 -7 12 -12 2 -22 -9 -9 -12 -9 -12 0 0 7 -4 12 -10
12 -5 0 -10 -11 -10 -25 0 -41 -25 -19 -39 35 -7 28 -17 50 -23 50 -5 0 -7 -4
-4 -9 3 -5 -1 -12 -10 -15 -14 -5 -15 -1 -10 29 5 27 3 37 -9 41 -8 3 -15 14
-15 24 0 20 -17 36 -27 26 -3 -3 -1 -11 5 -18 16 -20 26 -88 13 -88 -6 0 -11
5 -11 11 0 6 -9 22 -20 36 -11 14 -18 29 -15 33 3 4 -6 7 -20 6 -25 -1 -34
-19 -15 -31 5 -3 7 -12 3 -20 -3 -9 0 -22 6 -29 8 -10 9 -16 1 -21 -7 -4 -5
-13 5 -28 8 -12 15 -26 15 -32 0 -5 -4 -3 -10 5 -14 23 -24 3 -12 -25 8 -17 8
-25 1 -25 -6 0 -8 -8 -5 -18 3 -9 2 -32 -3 -50 -6 -20 -6 -34 0 -38 6 -4 6
-10 -1 -19 -6 -7 -7 -21 -4 -31 6 -16 5 -17 -7 -6 -19 18 -31 15 -21 -5 13
-27 15 -102 3 -83 -15 22 -20 10 -27 -59 -5 -46 -10 -61 -20 -57 -8 3 -14 -1
-14 -8 0 -7 -7 -19 -15 -26 -9 -7 -14 -19 -11 -26 3 -7 -4 -16 -15 -19 -10 -4
-19 -11 -19 -16 0 -5 -6 -9 -14 -9 -9 0 -12 -7 -9 -18 4 -15 -1 -19 -27 -19
-28 0 -31 3 -25 24 3 13 1 23 -5 23 -7 0 -9 9 -5 21 6 19 5 20 -7 8 -8 -7 -12
-23 -10 -36 3 -17 0 -23 -9 -21 -8 2 -14 -4 -14 -12 0 -8 6 -15 13 -15 6 0 12
-4 11 -10 0 -5 -7 -9 -15 -7 -9 2 -22 -2 -30 -9 -7 -6 -20 -9 -29 -6 -22 9
-26 -6 -9 -37 7 -16 14 -29 14 -30 0 -1 -9 -2 -20 -3 -21 -2 -22 0 -24 77 -2
70 64 180 101 166 8 -3 11 -1 8 5 -4 5 10 25 30 44 20 19 34 39 31 44 -3 5 3
7 14 4 14 -4 20 0 20 11 0 10 -4 14 -10 11 -5 -3 -10 -1 -10 5 0 6 12 15 26
20 14 6 22 15 19 20 -4 6 -1 17 5 25 8 10 9 15 2 15 -6 0 -14 -4 -17 -10 -3
-5 -15 -10 -26 -10 -10 0 -19 -4 -19 -10 0 -5 -5 -10 -11 -10 -6 0 -22 -9 -36
-20 -14 -11 -36 -20 -48 -20 -21 0 -22 3 -14 43 12 65 -6 66 -26 0 -10 -32
-22 -62 -27 -68 -4 -5 -8 -21 -8 -37 0 -20 -4 -26 -15 -22 -9 4 -15 0 -15 -10
0 -9 -4 -16 -10 -16 -5 0 -10 -7 -10 -15 0 -8 -6 -15 -12 -15 -7 0 -25 -7 -40
-14 -17 -9 -30 -11 -34 -5 -3 5 -13 7 -22 5 -20 -7 -102 59 -102 81 0 11 -4
11 -20 3 -16 -9 -18 -8 -14 5 4 9 0 15 -9 15 -8 0 -17 9 -20 20 -3 11 -13 20
-22 20 -11 0 -15 -5 -11 -15 5 -13 1 -12 -19 2 -14 10 -28 28 -31 40 -3 12
-12 27 -20 34 -19 16 -44 70 -48 103 -1 14 -5 29 -9 32 -3 3 -3 12 0 20 8 22
-14 16 -31 -8 -14 -19 -16 -19 -22 -5 -3 9 -12 17 -18 17 -7 0 -19 19 -25 42
-12 40 -14 41 -27 23 -13 -18 -14 -17 -14 7 0 15 -4 30 -10 33 -18 11 -10 26
10 20 11 -4 20 -2 20 4 0 6 -5 10 -11 8 -6 -1 -14 4 -16 11 -15 40 54 -15 120
-96 22 -27 27 -30 27 -14 0 10 9 27 20 37 10 9 18 27 17 38 -2 16 8 24 47 38
43 16 130 37 176 42 8 1 17 4 20 7 9 9 52 32 143 78 81 40 167 62 167 42 0 -4
10 -11 23 -15 16 -5 18 -8 7 -11 -19 -6 -40 -50 -39 -83 0 -15 3 -20 6 -13 7
17 21 15 26 -5 4 -15 5 -14 6 3 0 11 5 24 11 30 5 5 11 23 14 39 2 17 6 37 9
45 3 8 14 43 23 77 14 49 21 60 31 51 7 -6 13 -17 13 -24 0 -8 5 -14 11 -14 5
0 7 -5 4 -10 -4 -6 5 -23 19 -37 17 -17 24 -33 21 -45 -5 -13 -1 -18 13 -18
11 0 22 -5 24 -12 5 -14 38 -20 38 -7 0 5 -5 9 -11 9 -7 0 -9 9 -6 21 3 12 -1
32 -9 44 -8 13 -17 53 -19 90 -4 57 -9 71 -30 89 -14 12 -25 32 -25 44 0 13
-11 38 -25 56 -14 18 -25 38 -25 44 0 7 -4 12 -10 12 -5 0 -10 6 -10 14 0 7
-12 22 -27 31 -16 10 -32 24 -36 32 -4 7 -14 13 -22 13 -8 0 -29 13 -47 28
-37 33 -152 112 -162 112 -3 0 -6 -2 -6 -4z m-2 -318 c10 -10 15 -10 21 1 7
10 13 11 31 1 12 -6 33 -9 46 -6 18 5 24 2 25 -11 1 -17 2 -17 6 0 2 9 8 17
13 17 5 0 7 -6 4 -14 -4 -9 2 -16 17 -18 12 -2 25 -9 27 -17 3 -9 0 -12 -11
-8 -8 3 -18 3 -21 -1 -4 -3 -12 -7 -19 -8 -16 -3 -131 -45 -135 -49 -2 -2 16
-3 41 -2 25 1 43 6 40 11 -4 5 10 7 31 3 20 -3 34 -2 31 3 -3 5 -1 11 4 15 14
8 50 -16 57 -38 7 -24 -14 -49 -36 -42 -12 4 -19 -1 -23 -15 -3 -12 -13 -20
-25 -20 -12 0 -24 -5 -28 -11 -4 -7 -21 -9 -44 -5 -27 4 -41 2 -50 -9 -7 -8
-25 -15 -41 -15 -15 0 -32 -6 -36 -13 -10 -17 -225 -95 -275 -101 -4 -1 -13
-10 -21 -20 -17 -23 -32 -16 -41 18 -5 19 1 32 25 55 17 17 33 31 36 31 15 0
83 35 83 42 0 4 11 8 24 8 13 0 29 7 36 15 9 10 9 15 1 15 -6 0 -11 -5 -11
-11 0 -6 -9 -8 -20 -4 -12 4 -27 1 -35 -5 -12 -10 -18 -10 -30 0 -10 9 -15 9
-15 1 0 -6 -12 -11 -26 -11 -14 0 -22 -4 -19 -10 3 -5 0 -8 -7 -5 -17 7 -17
55 0 55 6 0 12 4 12 9 0 5 10 7 23 4 21 -4 21 -4 4 10 -17 14 -17 16 9 42 19
19 40 29 63 30 40 2 86 18 95 34 4 6 13 8 21 4 8 -3 15 0 15 7 0 7 8 9 20 5
14 -5 20 -2 20 9 0 18 15 21 25 6 10 -17 25 -11 25 10 0 22 20 26 38 8z m-278
-63 c0 -8 -4 -15 -10 -15 -5 0 -10 7 -10 15 0 8 5 15 10 15 6 0 10 -7 10 -15z
m570 -25 c0 -5 -2 -10 -4 -10 -3 0 -8 5 -11 10 -3 6 -1 10 4 10 6 0 11 -4 11
-10z m-660 -60 c0 -5 -4 -10 -10 -10 -5 0 -10 5 -10 10 0 6 5 10 10 10 6 0 10
-4 10 -10z m1190 -74 c0 -3 -4 -8 -10 -11 -5 -3 -10 -1 -10 4 0 6 5 11 10 11
6 0 10 -2 10 -4z m-35 -26 c17 -8 16 -8 -7 -7 -16 1 -28 5 -28 9 0 10 9 9 35
-2z m0 -39 c3 -6 -4 -15 -15 -21 -16 -8 -20 -8 -20 3 0 25 23 36 35 18z
m-1710 -11 c3 -5 1 -10 -4 -10 -6 0 -11 5 -11 10 0 6 2 10 4 10 3 0 8 -4 11
-10z m65 -70 c0 -5 -5 -10 -11 -10 -5 0 -7 5 -4 10 3 6 8 10 11 10 2 0 4 -4 4
-10z m-25 -87 c36 -40 46 -66 20 -57 -8 4 -15 11 -15 16 0 6 -11 21 -25 34
-23 21 -33 44 -19 44 3 0 21 -17 39 -37z m1435 7 c0 -5 -4 -10 -9 -10 -6 0
-13 5 -16 10 -3 6 1 10 9 10 9 0 16 -4 16 -10z m-1485 -20 c3 -5 1 -10 -4 -10
-6 0 -11 5 -11 10 0 6 2 10 4 10 3 0 8 -4 11 -10z m-16 -44 c-3 -3 -11 5 -18
17 -13 21 -12 21 5 5 10 -10 16 -20 13 -22z m194 27 c-7 -2 -19 -2 -25 0 -7 3
-2 5 12 5 14 0 19 -2 13 -5z m1607 -13 c0 -5 -2 -10 -4 -10 -3 0 -8 5 -11 10
-3 6 -1 10 4 10 6 0 11 -4 11 -10z m-1640 -72 c0 -12 -13 -9 -32 6 -29 21 -22
40 7 19 13 -10 25 -21 25 -25z m1460 22 c0 -5 -4 -10 -10 -10 -5 0 -10 5 -10
10 0 6 5 10 10 10 6 0 10 -4 10 -10z m447 -15 c-7 -14 -16 -25 -20 -25 -8 0
-2 14 16 38 15 19 16 14 4 -13z m-1710 -17 c-3 -7 -5 -2 -5 12 0 14 2 19 5 13
2 -7 2 -19 0 -25z m1548 22 c3 -5 1 -10 -4 -10 -6 0 -11 5 -11 10 0 6 2 10 4
10 3 0 8 -4 11 -10z m45 -20 c0 -5 -5 -10 -11 -10 -5 0 -7 5 -4 10 3 6 8 10
11 10 2 0 4 -4 4 -10z m-1735 -10 c4 -6 -1 -7 -12 -3 -15 6 -16 4 -5 -9 8 -10
9 -18 3 -22 -11 -7 -34 28 -24 38 10 9 31 7 38 -4z m279 -29 c3 -5 -1 -11 -9
-15 -9 -3 -15 0 -15 9 0 16 16 20 24 6z m1126 -11 c0 -5 -4 -10 -10 -10 -5 0
-10 5 -10 10 0 6 5 10 10 10 6 0 10 -4 10 -10z m-1073 -43 c0 -7 3 -27 7 -44
6 -26 4 -33 -7 -33 -20 0 -26 21 -14 42 11 17 -5 48 -25 48 -6 0 -5 -7 2 -15
16 -19 3 -20 -15 -1 -10 9 -11 16 -3 24 13 13 55 -4 55 -21z m-5337 -14 c-1
-11 -26 -43 -34 -43 -10 0 -7 25 6 38 13 13 28 16 28 5z m320 -23 c0 -5 -4
-10 -10 -10 -5 0 -10 5 -10 10 0 6 5 10 10 10 6 0 10 -4 10 -10z m10 -46 c0
-8 -5 -12 -10 -9 -6 4 -8 11 -5 16 9 14 15 11 15 -7z m163 -19 c4 -8 1 -17 -6
-21 -7 -4 -9 -4 -5 1 4 4 3 14 -3 22 -7 8 -8 13 -1 13 5 0 12 -7 15 -15z
m4857 5 c0 -5 -5 -10 -11 -10 -5 0 -7 5 -4 10 3 6 8 10 11 10 2 0 4 -4 4 -10z
m-4921 -36 c-9 -11 -9 -18 -2 -22 7 -5 6 -12 -5 -22 -14 -13 -15 -12 -9 2 3 9
1 19 -6 22 -8 3 -6 10 7 20 25 20 32 20 15 0z m-72 -16 c-3 -8 -6 -5 -6 6 -1
11 2 17 5 13 3 -3 4 -12 1 -19z m-322 -48 c3 -5 1 -10 -4 -10 -6 0 -11 5 -11
10 0 6 2 10 4 10 3 0 8 -4 11 -10z m339 -42 c-4 -6 -10 -5 -15 3 -14 22 -10
33 6 19 8 -7 12 -17 9 -22z m36 22 c0 -5 -4 -10 -10 -10 -5 0 -10 5 -10 10 0
6 5 10 10 10 6 0 10 -4 10 -10z m154 -16 c3 -8 2 -12 -4 -9 -6 3 -10 10 -10
16 0 14 7 11 14 -7z m-20 -33 c-6 -6 -24 19 -24 34 1 6 7 1 15 -9 8 -11 12
-22 9 -25z m-132 -23 c-7 -7 -12 -8 -12 -2 0 14 12 26 19 19 2 -3 -1 -11 -7
-17z m-75 -20 c-3 -8 -6 -5 -6 6 -1 11 2 17 5 13 3 -3 4 -12 1 -19z m7358 -37
c3 -5 1 -12 -5 -16 -5 -3 -10 1 -10 9 0 18 6 21 15 7z m-5155 -21 c0 -5 -2
-10 -4 -10 -3 0 -8 5 -11 10 -3 6 -1 10 4 10 6 0 11 -4 11 -10z m75 -21 c11
-17 -14 -18 -36 0 l-24 19 28 -5 c15 -3 30 -9 32 -14z m-31 -15 c9 -3 16 -13
16 -20 0 -11 -4 -12 -19 -4 -11 5 -28 7 -38 3 -16 -6 -16 -5 -4 10 15 19 21
20 45 11z m3236 -9 c0 -8 -4 -15 -10 -15 -5 0 -10 7 -10 15 0 8 5 15 10 15 6
0 10 -7 10 -15z m-3146 -17 c9 -12 16 -26 16 -30 0 -13 -38 -9 -43 5 -3 9 -8
9 -21 -2 -24 -20 -30 -7 -11 23 21 32 39 33 59 4z m3096 -8 c0 -5 -2 -10 -4
-10 -3 0 -8 5 -11 10 -3 6 -1 10 4 10 6 0 11 -4 11 -10z m134 -15 c3 -8 1 -15
-4 -15 -6 0 -10 7 -10 15 0 8 2 15 4 15 2 0 6 -7 10 -15z m-5484 -15 c0 -5 -2
-10 -4 -10 -3 0 -8 5 -11 10 -3 6 -1 10 4 10 6 0 11 -4 11 -10z m344 -6 c25
-9 19 -22 -9 -20 -14 0 -25 7 -25 14 0 13 10 15 34 6z m2547 -10 c12 -14 11
-16 -5 -13 -11 2 -21 10 -24 17 -5 17 13 15 29 -4z m-526 -4 c3 -5 1 -10 -4
-10 -6 0 -11 5 -11 10 0 6 2 10 4 10 3 0 8 -4 11 -10z m22 -22 c-3 -8 -6 -5
-6 6 -1 11 2 17 5 13 3 -3 4 -12 1 -19z m-2460 -30 c-3 -8 -6 -5 -6 6 -1 11 2
17 5 13 3 -3 4 -12 1 -19z m6406 -5 c91 -15 104 -15 165 0 37 9 79 18 94 20
49 7 143 -12 206 -43 34 -16 66 -30 71 -30 4 0 16 -9 26 -20 10 -11 24 -20 32
-20 18 0 13 -88 -6 -95 -10 -4 -10 -9 -2 -19 6 -7 8 -16 4 -19 -12 -13 -23 -7
-23 14 0 19 -1 19 -22 5 -12 -9 -26 -16 -30 -16 -13 0 -20 41 -8 55 16 20 -23
8 -47 -14 -10 -10 -27 -22 -37 -28 -19 -10 -18 -11 3 -18 l21 -6 -20 -26 c-21
-27 -26 -58 -10 -68 5 -3 7 -12 4 -19 -3 -7 2 -21 11 -30 9 -9 13 -20 10 -26
-3 -5 -2 -10 4 -10 5 0 9 -12 8 -27 -1 -17 3 -27 10 -26 6 1 13 -4 16 -11 5
-11 -1 -12 -25 -5 -17 4 -34 6 -38 4 -10 -6 -22 24 -15 35 3 5 1 11 -5 15 -5
3 -10 -1 -10 -9 0 -9 -7 -16 -15 -16 -8 0 -15 7 -15 16 0 9 -6 14 -12 11 -7
-2 -12 -10 -10 -16 1 -6 -5 -11 -13 -11 -19 0 -16 30 5 47 13 11 12 12 -7 13
-13 0 -23 -5 -23 -11 0 -6 -6 -9 -12 -6 -7 2 -12 10 -10 16 1 6 -2 11 -8 11
-5 0 -10 -4 -10 -10 0 -5 -4 -10 -10 -10 -5 0 -7 8 -4 18 5 15 4 15 -8 1 -7
-9 -29 -16 -48 -16 -34 -1 -34 -1 -10 10 l25 11 -30 4 c-16 2 -31 -1 -33 -7
-2 -6 -16 -8 -33 -4 -21 4 -29 2 -29 -8 0 -11 -2 -11 -10 1 -8 12 -10 12 -16
-3 -3 -9 -10 -14 -15 -11 -6 3 -17 0 -26 -8 -12 -9 -15 -9 -9 0 4 6 3 12 -3
12 -5 0 -13 -5 -17 -11 -3 -6 -15 -9 -25 -6 -10 3 -22 1 -25 -4 -3 -5 -18 -9
-35 -9 -16 0 -29 -4 -29 -9 0 -5 -20 -6 -44 -4 -28 4 -55 0 -73 -9 -21 -10
-34 -12 -46 -4 -9 6 -18 8 -21 5 -9 -9 18 -72 42 -95 31 -32 27 -46 -17 -67
-21 -9 -49 -26 -61 -37 -24 -21 -80 -40 -117 -40 -28 0 -64 49 -56 78 3 13 1
22 -6 22 -16 0 -4 41 36 125 18 38 33 76 33 85 0 9 9 23 20 33 16 13 20 29 20
76 0 33 3 68 6 78 5 15 4 15 -5 3 -9 -13 -11 -12 -11 5 0 67 51 150 113 182
68 35 138 36 320 6z m-5893 -4 c0 -6 -4 -7 -10 -4 -5 3 -10 11 -10 16 0 6 5 7
10 4 6 -3 10 -11 10 -16z m218 -4 c4 -4 2 -5 -4 -2 -6 3 -17 -5 -24 -18 -17
-31 -30 -32 -22 -2 5 20 4 21 -13 7 -17 -14 -18 -14 -7 7 12 22 53 27 70 8z
m-825 -25 c-6 -22 -18 -26 -28 -10 -8 13 3 30 20 30 8 0 11 -7 8 -20z m666 -6
c2 -2 2 -6 0 -9 -8 -7 -49 7 -49 17 0 8 38 2 49 -8z m71 6 c0 -5 -5 -10 -11
-10 -5 0 -7 5 -4 10 3 6 8 10 11 10 2 0 4 -4 4 -10z m150 -12 c0 -17 -3 -19
-9 -9 -5 7 -15 17 -22 22 -10 6 -8 9 9 9 16 0 22 -6 22 -22z m165 12 c3 -5 1
-10 -4 -10 -6 0 -11 5 -11 10 0 6 2 10 4 10 3 0 8 -4 11 -10z m-988 -36 c-9
-9 -28 6 -21 18 4 6 10 6 17 -1 6 -6 8 -13 4 -17z m803 2 c0 -3 -4 -8 -10 -11
-5 -3 -10 -1 -10 4 0 6 5 11 10 11 6 0 10 -2 10 -4z m198 -17 c10 -13 10 -19
-1 -28 -11 -8 -14 -5 -14 19 0 17 1 29 1 28 1 -2 7 -10 14 -19z m-968 7 c0 -2
-7 -7 -16 -10 -8 -3 -12 -2 -9 4 6 10 25 14 25 6z m1013 -49 c-8 -13 -23 3
-23 26 0 20 0 20 14 2 8 -11 12 -23 9 -28z m-1053 23 c0 -5 -4 -10 -10 -10 -5
0 -10 5 -10 10 0 6 5 10 10 10 6 0 10 -4 10 -10z m70 -10 c-6 -11 -15 -20 -20
-20 -5 0 -10 -8 -12 -17 -2 -11 -6 -14 -10 -7 -4 6 2 23 14 37 25 32 43 36 28
7z m-246 -25 c-4 -8 -12 -15 -20 -15 -20 0 -17 18 4 23 9 3 18 5 19 6 1 0 0
-6 -3 -14z m182 -25 c8 0 14 -4 14 -10 0 -5 -5 -10 -11 -10 -6 0 -9 -9 -6 -20
3 -11 1 -20 -4 -20 -4 0 -12 15 -17 33 -5 17 -14 31 -21 30 -13 -3 -13 -1 -4
23 6 16 8 16 21 -4 8 -12 21 -22 28 -22z m91 24 c-3 -3 -12 -4 -19 -1 -8 3 -5
6 6 6 11 1 17 -2 13 -5z m113 -46 c0 -12 -10 -9 -26 6 -20 21 -17 28 6 14 11
-7 20 -16 20 -20z m-280 12 c0 -5 -4 -10 -10 -10 -5 0 -10 5 -10 10 0 6 5 10
10 10 6 0 10 -4 10 -10z m145 0 c3 -5 2 -10 -4 -10 -5 0 -13 5 -16 10 -3 6 -2
10 4 10 5 0 13 -4 16 -10z m-315 -16 c0 -8 -4 -12 -10 -9 -5 3 -10 10 -10 16
0 5 5 9 10 9 6 0 10 -7 10 -16z m130 2 c0 -3 -4 -8 -10 -11 -5 -3 -10 -1 -10
4 0 6 5 11 10 11 6 0 10 -2 10 -4z m-90 -21 c0 -8 -4 -15 -9 -15 -5 0 -11 7
-15 15 -3 9 0 15 9 15 8 0 15 -7 15 -15z m255 -14 c-6 -5 -25 10 -25 20 0 5 6
4 14 -3 8 -7 12 -15 11 -17z m1995 -35 c0 -3 -4 -8 -10 -11 -5 -3 -10 -1 -10
4 0 6 5 11 10 11 6 0 10 -2 10 -4z m-1885 -26 c-3 -5 -14 -10 -23 -9 -14 0
-13 2 3 9 27 11 27 11 20 0z m65 -20 c13 -8 11 -11 -7 -16 -13 -4 -23 -10 -23
-15 0 -5 -9 -1 -20 9 l-21 17 23 7 c32 9 31 9 48 -2z m110 -30 c0 -5 -4 -10
-10 -10 -5 0 -10 5 -10 10 0 6 5 10 10 10 6 0 10 -4 10 -10z m-20 -41 c0 -3
-25 -6 -55 -5 -30 0 -55 4 -55 8 0 4 9 8 20 8 11 0 20 7 20 15 0 12 5 12 35
-3 19 -9 35 -20 35 -23z m6570 21 c0 -5 -4 -10 -10 -10 -5 0 -10 5 -10 10 0 6
5 10 10 10 6 0 10 -4 10 -10z m-5290 -30 c0 -5 -7 -10 -16 -10 -8 0 -12 5 -9
10 3 6 10 10 16 10 5 0 9 -4 9 -10z m-1324 -25 c0 -14 -4 -25 -8 -25 -12 0
-20 20 -14 35 9 24 24 17 22 -10z m1444 15 c0 -5 -2 -10 -4 -10 -3 0 -8 5 -11
10 -3 6 -1 10 4 10 6 0 11 -4 11 -10z m-1410 -21 c0 -6 -4 -7 -10 -4 -5 3 -10
11 -10 16 0 6 5 7 10 4 6 -3 10 -11 10 -16z m-94 -2 c4 -4 -2 -7 -14 -7 -12 0
-22 4 -22 9 0 10 26 9 36 -2z m357 -64 c-7 -2 -19 -2 -25 0 -7 3 -2 5 12 5 14
0 19 -2 13 -5z m6418 -46 c-8 -8 -14 -8 -22 0 -6 6 -19 9 -28 6 -11 -4 -13 -3
-6 5 13 13 59 20 64 9 2 -5 -2 -14 -8 -20z m75 -5 c1 -18 -2 -32 -7 -32 -5 0
-9 6 -9 13 0 6 -3 23 -7 36 -4 17 -2 22 8 19 7 -2 14 -19 15 -36z m-6936 4 c0
-3 -4 -8 -10 -11 -5 -3 -10 -1 -10 4 0 6 5 11 10 11 6 0 10 -2 10 -4z m5000
-37 c0 -6 -4 -7 -10 -4 -5 3 -10 11 -10 16 0 6 5 7 10 4 6 -3 10 -11 10 -16z
m1448 0 c-2 -6 -8 -10 -13 -10 -5 0 -11 4 -13 10 -2 6 4 11 13 11 9 0 15 -5
13 -11z m682 -44 c0 -8 -2 -15 -4 -15 -2 0 -6 7 -10 15 -3 8 -1 15 4 15 6 0
10 -7 10 -15z m50 0 c0 -8 -4 -15 -10 -15 -5 0 -7 7 -4 15 4 8 8 15 10 15 2 0
4 -7 4 -15z m-6196 -67 c-4 -6 0 -14 7 -19 7 -4 10 -11 6 -15 -4 -4 -21 2 -37
14 -31 23 -60 29 -60 12 0 -5 12 -10 26 -10 14 0 23 -4 19 -10 -3 -6 -17 -7
-31 -4 -15 4 -24 2 -24 -6 0 -6 -4 -8 -10 -5 -5 3 -10 18 -10 32 0 25 2 25 50
21 28 -3 50 -1 50 4 0 5 5 6 10 3 6 -4 7 -11 4 -17z m-609 2 c-3 -5 -11 -10
-16 -10 -6 0 -7 5 -4 10 3 6 11 10 16 10 6 0 7 -4 4 -10z m661 -1 c4 -8 9 -7
15 2 4 7 11 10 14 7 4 -4 1 -16 -7 -26 -13 -20 -14 -20 -37 4 -18 18 -19 24
-8 24 9 0 19 -5 23 -11z m134 1 c0 -5 -2 -10 -4 -10 -3 0 -8 5 -11 10 -3 6 -1
10 4 10 6 0 11 -4 11 -10z m5945 0 c-3 -5 -16 -10 -28 -9 -20 1 -20 2 3 9 14
4 26 8 28 9 2 1 0 -3 -3 -9z m-5865 -10 c0 -5 -2 -10 -4 -10 -3 0 -8 5 -11 10
-3 6 -1 10 4 10 6 0 11 -4 11 -10z m187 -6 c-3 -3 -12 -4 -19 -1 -8 3 -5 6 6
6 11 1 17 -2 13 -5z m-337 -14 c0 -5 -7 -10 -16 -10 -8 0 -12 5 -9 10 3 6 10
10 16 10 5 0 9 -4 9 -10z m220 6 c0 -3 -4 -8 -10 -11 -5 -3 -10 -1 -10 4 0 6
5 11 10 11 6 0 10 -2 10 -4z m60 -6 c0 -5 -7 -10 -15 -10 -8 0 -15 5 -15 10 0
6 7 10 15 10 8 0 15 -4 15 -10z m-230 -4 c0 -3 -4 -8 -10 -11 -5 -3 -10 -1
-10 4 0 6 5 11 10 11 6 0 10 -2 10 -4z m253 -35 c7 -7 1 -10 -21 -8 -18 1 -32
5 -32 9 0 3 -10 4 -22 0 -14 -3 -19 -2 -14 6 8 14 74 8 89 -7z m5327 -2 c0 -6
-4 -7 -10 -4 -5 3 -10 11 -10 16 0 6 5 7 10 4 6 -3 10 -11 10 -16z m-5436 -5
c5 -12 2 -15 -10 -10 -8 3 -20 6 -25 6 -6 0 -7 5 -4 10 10 15 32 12 39 -6z
m286 6 c0 -5 -5 -10 -11 -10 -5 0 -7 5 -4 10 3 6 8 10 11 10 2 0 4 -4 4 -10z
m-119 -14 c-9 -10 -8 -16 4 -26 12 -10 15 -9 15 5 0 13 5 15 18 9 9 -4 29 -8
44 -8 15 -1 33 -7 40 -14 11 -11 1 -12 -55 -9 -44 3 -74 10 -84 20 -17 17 -10
37 14 37 12 0 13 -3 4 -14z m52 -63 c-4 -10 -2 -14 5 -9 6 3 14 0 19 -7 4 -8
18 -19 31 -26 12 -6 22 -17 22 -23 0 -6 7 -20 17 -30 9 -10 13 -21 10 -25 -11
-10 -48 29 -42 44 2 8 0 11 -5 8 -6 -4 -25 7 -43 24 -18 19 -37 29 -46 26 -11
-4 -10 0 4 15 22 24 37 26 28 3z m117 7 c8 -5 11 -12 8 -16 -4 -3 -14 1 -23
10 -18 17 -9 21 15 6z m-22 -32 c6 -6 12 -14 12 -19 0 -10 -36 8 -59 30 -13
12 -12 13 9 6 14 -4 31 -12 38 -17z m42 -58 c0 -5 -4 -10 -10 -10 -5 0 -10 5
-10 10 0 6 5 10 10 10 6 0 10 -4 10 -10z m700 -20 c0 -5 -2 -10 -4 -10 -3 0
-8 5 -11 10 -3 6 -1 10 4 10 6 0 11 -4 11 -10z m-39 -23 c-10 -9 -11 -8 -5 6
3 10 9 15 12 12 3 -3 0 -11 -7 -18z m-681 -17 c0 -5 -4 -10 -10 -10 -5 0 -10
5 -10 10 0 6 5 10 10 10 6 0 10 -4 10 -10z m24 -39 c10 -11 15 -25 11 -32 -6
-8 -13 -5 -26 12 -31 40 -18 56 15 20z m5446 9 c0 -5 -4 -10 -10 -10 -5 0 -10
5 -10 10 0 6 5 10 10 10 6 0 10 -4 10 -10z m65 -10 c3 -5 1 -10 -4 -10 -6 0
-11 5 -11 10 0 6 2 10 4 10 3 0 8 -4 11 -10z m-5485 -55 c0 -8 -4 -15 -9 -15
-13 0 -22 16 -14 24 11 11 23 6 23 -9z m5555 -5 c3 -5 -1 -10 -9 -10 -8 0 -18
5 -21 10 -3 6 1 10 9 10 8 0 18 -4 21 -10z m-5545 -30 c0 -5 -5 -10 -11 -10
-5 0 -7 5 -4 10 3 6 8 10 11 10 2 0 4 -4 4 -10z m580 -20 c0 -5 -2 -10 -4 -10
-3 0 -8 5 -11 10 -3 6 -1 10 4 10 6 0 11 -4 11 -10z m3900 -30 c0 -5 -2 -10
-4 -10 -3 0 -8 5 -11 10 -3 6 -1 10 4 10 6 0 11 -4 11 -10z m-4450 -50 c0 -5
-4 -10 -10 -10 -5 0 -10 5 -10 10 0 6 5 10 10 10 6 0 10 -4 10 -10z m3720
-279 c0 -5 -7 -12 -16 -15 -24 -9 -28 -7 -14 9 14 17 30 20 30 6z m724 -12
c-3 -5 -10 -7 -15 -3 -5 3 -7 10 -3 15 3 5 10 7 15 3 5 -3 7 -10 3 -15z m-788
-25 c8 3 14 -1 14 -8 0 -8 -6 -16 -14 -19 -7 -3 -23 -26 -36 -51 -25 -52 -69
-87 -56 -45 4 13 10 34 13 47 3 12 9 22 13 22 4 0 11 12 15 27 4 16 12 34 18
42 10 12 13 11 15 -3 2 -10 10 -15 18 -12z m-71 -25 c12 -19 -5 -23 -22 -6
-16 16 -16 17 -1 17 9 0 20 -5 23 -11z m1278 -9 c-3 -11 -9 -20 -14 -20 -11 0
-11 3 -3 24 9 23 23 20 17 -4z m-1191 -43 c-21 -47 -37 -63 -46 -48 -4 5 2 17
11 27 10 10 18 20 18 23 1 3 7 17 14 29 21 40 24 16 3 -31z m1120 17 c-5 -25
-12 -32 -12 -11 0 10 -7 17 -15 17 -8 0 -15 4 -15 10 0 5 10 8 23 6 15 -2 21
-9 19 -22z m-4982 2 c0 -28 -13 -46 -33 -46 -19 0 -19 1 -4 18 10 10 17 24 17
30 0 7 5 12 10 12 6 0 10 -6 10 -14z m4960 -26 c0 -5 -5 -10 -11 -10 -5 0 -7
5 -4 10 3 6 8 10 11 10 2 0 4 -4 4 -10z m-4943 -22 c-3 -8 -6 -5 -6 6 -1 11 2
17 5 13 3 -3 4 -12 1 -19z m-26 -51 c-13 -13 -26 -3 -16 12 3 6 11 8 17 5 6
-4 6 -10 -1 -17z m3796 -22 c-4 -8 -11 -15 -17 -15 -14 0 -13 27 3 33 16 6 21
1 14 -18z m1163 4 c0 -6 -4 -7 -10 -4 -5 3 -10 11 -10 16 0 6 5 7 10 4 6 -3
10 -11 10 -16z m18 -81 c-18 -15 -31 -115 -15 -121 11 -3 1 -27 -12 -27 -9 0
-12 131 -4 173 l6 29 20 -21 c19 -19 20 -22 5 -33z m22 -82 c0 -11 -19 -15
-25 -6 -3 5 1 10 9 10 9 0 16 -2 16 -4z m-4327 -76 c3 -11 1 -20 -4 -20 -5 0
-9 9 -9 20 0 11 2 20 4 20 2 0 6 -9 9 -20z m4296 -14 c10 -12 8 -13 -8 -9 -12
3 -18 9 -15 14 7 12 10 11 23 -5z m-5439 -16 c0 -5 -4 -10 -10 -10 -5 0 -10 5
-10 10 0 6 5 10 10 10 6 0 10 -4 10 -10z m-860 -96 c0 -8 -4 -12 -10 -9 -5 3
-10 10 -10 16 0 5 5 9 10 9 6 0 10 -7 10 -16z m730 -9 c0 -12 -24 -55 -32 -55
-12 0 -10 29 5 45 12 14 27 20 27 10z m375 -5 c4 -6 -5 -10 -19 -10 -14 0 -26
5 -26 10 0 6 9 10 19 10 11 0 23 -4 26 -10z m-1085 -45 c0 -14 -4 -25 -10 -25
-11 0 -14 33 -3 43 11 11 13 8 13 -18z m640 -37 c-12 -10 -28 -18 -36 -18 -22
0 -28 22 -8 34 52 31 87 18 44 -16z m-590 -98 c0 -5 -5 -10 -11 -10 -5 0 -7 5
-4 10 3 6 8 10 11 10 2 0 4 -4 4 -10z m-290 -20 c0 -5 -4 -10 -10 -10 -5 0
-10 5 -10 10 0 6 5 10 10 10 6 0 10 -4 10 -10z m-227 -80 c-7 -8 -22 24 -16
34 4 5 10 1 13 -10 4 -10 6 -21 3 -24z m2547 -15 c-7 -9 -15 -13 -19 -10 -3 3
1 10 9 15 21 14 24 12 10 -5z m10 -29 c0 -3 -4 -8 -10 -11 -5 -3 -10 -1 -10 4
0 6 5 11 10 11 6 0 10 -2 10 -4z m-2020 -37 c0 -15 -5 -19 -15 -15 -9 3 -18
-1 -21 -9 -10 -24 -24 -17 -24 11 0 19 4 25 15 21 8 -4 17 -2 20 3 11 17 25
11 25 -11z m-475 -31 c-12 -16 -16 -18 -11 -5 3 10 6 26 6 35 0 12 3 13 11 5
8 -8 7 -17 -6 -35z m32 0 c-3 -8 -6 -5 -6 6 -1 11 2 17 5 13 3 -3 4 -12 1 -19z
m-357 -43 c0 -8 -4 -15 -10 -15 -5 0 -7 7 -4 15 4 8 8 15 10 15 2 0 4 -7 4
-15z m60 -19 c0 -8 -7 -17 -16 -20 -23 -9 -24 -8 -24 14 0 13 7 20 20 20 11 0
20 -6 20 -14z m663 -75 c-9 -11 -21 -18 -25 -15 -5 3 -1 12 9 20 26 20 35 17
16 -5z"/>
<path d="M5985 3752 c-11 -2 -27 -10 -35 -17 -8 -6 -24 -15 -35 -20 -13 -5
-16 -9 -7 -12 7 -3 19 1 27 7 8 7 31 18 51 25 37 12 36 25 -1 17z"/>
<path d="M7435 2260 c-3 -5 -2 -10 4 -10 5 0 13 5 16 10 3 6 2 10 -4 10 -5 0
-13 -4 -16 -10z"/>
<path d="M3250 4160 c0 -5 5 -10 10 -10 6 0 10 5 10 10 0 6 -4 10 -10 10 -5 0
-10 -4 -10 -10z"/>
<path d="M4066 4154 c-3 -8 -10 -12 -16 -9 -5 3 -10 1 -10 -4 0 -15 21 -13 43
3 21 16 22 26 3 26 -8 0 -17 -7 -20 -16z"/>
<path d="M3865 4137 c-10 -15 -16 -30 -13 -32 8 -9 40 33 36 47 -3 8 -11 2
-23 -15z"/>
<path d="M3280 4140 c0 -5 5 -10 11 -10 5 0 7 5 4 10 -3 6 -8 10 -11 10 -2 0
-4 -4 -4 -10z"/>
<path d="M4160 4115 c0 -8 7 -15 15 -15 8 0 15 4 15 9 0 5 -7 11 -15 15 -9 3
-15 0 -15 -9z"/>
<path d="M1710 4090 c0 -5 5 -10 10 -10 6 0 10 5 10 10 0 6 -4 10 -10 10 -5 0
-10 -4 -10 -10z"/>
<path d="M3248 4083 c7 -3 16 -2 19 1 4 3 -2 6 -13 5 -11 0 -14 -3 -6 -6z"/>
<path d="M4829 4083 c-4 -27 6 -59 23 -77 20 -20 21 -20 14 -1 -4 11 -10 35
-13 53 -5 28 -21 45 -24 25z"/>
<path d="M3480 4070 c0 -5 5 -10 10 -10 6 0 10 5 10 10 0 6 -4 10 -10 10 -5 0
-10 -4 -10 -10z"/>
<path d="M3590 4065 c-8 -9 -8 -15 -2 -15 12 0 26 19 19 26 -2 2 -10 -2 -17
-11z"/>
<path d="M3697 4053 c-12 -11 -8 -23 8 -23 8 0 15 7 15 15 0 16 -12 20 -23 8z"/>
<path d="M1820 4020 c-52 -7 -177 -48 -230 -75 -14 -7 -38 -25 -55 -39 l-30
-27 45 7 c25 3 61 10 80 15 22 5 60 5 95 -1 99 -16 99 -16 131 48 16 31 36 62
44 69 18 15 8 15 -80 3z"/>
<path d="M3210 4021 c0 -5 7 -11 14 -14 10 -4 13 -1 9 9 -6 15 -23 19 -23 5z"/>
<path d="M4885 4020 c3 -5 8 -10 11 -10 2 0 4 5 4 10 0 6 -5 10 -11 10 -5 0
-7 -4 -4 -10z"/>
<path d="M3260 3879 c9 -15 8 -24 -2 -37 -9 -11 -10 -14 0 -8 8 5 12 0 13 -16
1 -15 4 -11 8 12 4 19 2 43 -4 53 -14 24 -28 21 -15 -4z"/>
<path d="M4950 3856 c0 -8 5 -18 10 -21 6 -3 10 1 10 9 0 8 -4 18 -10 21 -5 3
-10 -1 -10 -9z"/>
<path d="M4981 3804 c0 -11 3 -14 6 -6 3 7 2 16 -1 19 -3 4 -6 -2 -5 -13z"/>
<path d="M6771 3694 c0 -11 3 -14 6 -6 3 7 2 16 -1 19 -3 4 -6 -2 -5 -13z"/>
<path d="M6355 3650 c3 -5 8 -10 11 -10 2 0 4 5 4 10 0 6 -5 10 -11 10 -5 0
-7 -4 -4 -10z"/>
<path d="M4990 3613 c-8 -3 -34 -13 -57 -24 -44 -20 -59 -35 -23 -24 25 8 26
-3 3 -21 -10 -7 -15 -16 -11 -20 8 -7 55 14 92 41 21 16 18 54 -4 48z"/>
<path d="M6675 3600 c3 -5 8 -10 11 -10 2 0 4 5 4 10 0 6 -5 10 -11 10 -5 0
-7 -4 -4 -10z"/>
<path d="M6716 3584 c-4 -9 -4 -19 -1 -22 3 -3 5 0 5 7 0 7 5 9 10 6 6 -3 10
-2 10 4 0 18 -18 21 -24 5z"/>
<path d="M0 3469 l0 -122 35 39 c27 29 75 124 75 149 0 2 -13 6 -30 10 -16 4
-32 11 -35 16 -4 5 -15 14 -26 19 -18 10 -19 6 -19 -111z"/>
<path d="M447 3542 c-8 -38 0 -62 19 -62 18 0 18 50 1 75 -13 17 -14 16 -20
-13z"/>
<path d="M4985 3534 c-22 -13 -47 -28 -55 -33 -32 -20 -1 -19 53 2 39 15 57
28 57 40 0 22 -6 21 -55 -9z"/>
<path d="M5265 3540 c-3 -5 -1 -10 4 -10 6 0 11 5 11 10 0 6 -2 10 -4 10 -3 0
-8 -4 -11 -10z"/>
<path d="M6710 3510 c0 -19 3 -21 12 -12 9 9 9 15 0 24 -9 9 -12 7 -12 -12z"/>
<path d="M5005 3484 c-37 -19 -51 -32 -42 -40 7 -8 77 34 77 47 0 12 0 12 -35
-7z"/>
<path d="M5325 3460 c-3 -5 -1 -10 4 -10 6 0 11 5 11 10 0 6 -2 10 -4 10 -3 0
-8 -4 -11 -10z"/>
<path d="M875 3440 c4 -6 11 -8 16 -5 14 9 11 15 -7 15 -8 0 -12 -5 -9 -10z"/>
<path d="M6680 3434 c0 -17 22 -14 28 4 2 7 -3 12 -12 12 -9 0 -16 -7 -16 -16z"/>
<path d="M7161 3404 c0 -11 3 -14 6 -6 3 7 2 16 -1 19 -3 4 -6 -2 -5 -13z"/>
<path d="M2715 3375 c-19 -8 -49 -11 -80 -8 -63 7 -87 6 -156 -4 -46 -7 -65
-17 -105 -52 -40 -35 -54 -42 -78 -37 -24 5 -27 4 -16 -9 16 -20 63 -19 103 1
27 14 124 43 150 44 4 0 7 -8 5 -17 -3 -17 48 -55 155 -117 46 -26 62 -22 31
9 -9 9 -13 23 -9 33 5 14 4 15 -6 5 -18 -18 -32 -16 -25 2 3 9 0 15 -9 15 -8
0 -15 7 -15 15 0 8 -9 15 -21 15 -11 0 -17 5 -14 10 10 16 55 12 55 -5 0 -8 7
-15 15 -15 18 0 19 12 3 28 -9 9 -5 18 21 39 63 52 61 77 -4 48z"/>
<path d="M755 3360 c-3 -6 1 -13 9 -16 22 -8 20 -19 -6 -44 -12 -11 -19 -23
-15 -26 9 -9 27 6 37 31 15 38 -6 85 -25 55z"/>
<path d="M730 3330 c0 -5 5 -10 10 -10 6 0 10 5 10 10 0 6 -4 10 -10 10 -5 0
-10 -4 -10 -10z"/>
<path d="M810 3279 c0 -5 5 -7 10 -4 6 3 10 8 10 11 0 2 -4 4 -10 4 -5 0 -10
-5 -10 -11z"/>
<path d="M836 3271 c-4 -7 -5 -15 -2 -18 9 -9 19 4 14 18 -4 11 -6 11 -12 0z"/>
<path d="M865 3240 c-3 -5 -1 -10 4 -10 6 0 11 5 11 10 0 6 -2 10 -4 10 -3 0
-8 -4 -11 -10z"/>
<path d="M731 3224 c0 -11 3 -14 6 -6 3 7 2 16 -1 19 -3 4 -6 -2 -5 -13z"/>
<path d="M3477 3223 c-4 -3 -7 -11 -7 -17 0 -6 5 -5 12 2 6 6 9 14 7 17 -3 3
-9 2 -12 -2z"/>
<path d="M2750 3190 c0 -5 5 -10 11 -10 5 0 7 5 4 10 -3 6 -8 10 -11 10 -2 0
-4 -4 -4 -10z"/>
<path d="M850 3159 c0 -5 5 -7 10 -4 6 3 10 8 10 11 0 2 -4 4 -10 4 -5 0 -10
-5 -10 -11z"/>
<path d="M810 3147 c0 -8 7 -20 15 -27 12 -10 15 -10 15 3 0 8 -7 20 -15 27
-12 10 -15 10 -15 -3z"/>
<path d="M6210 3130 c0 -5 5 -10 11 -10 5 0 7 5 4 10 -3 6 -8 10 -11 10 -2 0
-4 -4 -4 -10z"/>
<path d="M905 3110 c3 -5 8 -10 11 -10 2 0 4 5 4 10 0 6 -5 10 -11 10 -5 0 -7
-4 -4 -10z"/>
<path d="M6032 3000 c0 -14 2 -19 5 -12 2 6 2 18 0 25 -3 6 -5 1 -5 -13z"/>
<path d="M965 3000 c3 -5 8 -10 11 -10 2 0 4 5 4 10 0 6 -5 10 -11 10 -5 0 -7
-4 -4 -10z"/>
<path d="M402 2940 c0 -14 2 -19 5 -12 2 6 2 18 0 25 -3 6 -5 1 -5 -13z"/>
<path d="M6340 2940 c0 -5 5 -10 10 -10 6 0 10 5 10 10 0 6 -4 10 -10 10 -5 0
-10 -4 -10 -10z"/>
<path d="M420 2926 c0 -8 5 -18 10 -21 6 -3 10 3 10 14 0 12 -4 21 -10 21 -5
0 -10 -6 -10 -14z"/>
<path d="M6291 2931 c-8 -6 -9 -11 -3 -15 6 -3 14 -1 17 5 9 14 2 20 -14 10z"/>
<path d="M7962 2920 c0 -14 2 -19 5 -12 2 6 2 18 0 25 -3 6 -5 1 -5 -13z"/>
<path d="M7900 2905 c0 -8 5 -15 10 -15 6 0 10 7 10 15 0 8 -4 15 -10 15 -5 0
-10 -7 -10 -15z"/>
<path d="M6183 2873 c4 -3 2 -12 -4 -20 -7 -8 -8 -13 -1 -13 5 0 15 6 21 13
11 14 5 27 -12 27 -6 0 -7 -3 -4 -7z"/>
<path d="M265 2860 c3 -5 11 -10 16 -10 6 0 7 5 4 10 -3 6 -11 10 -16 10 -6 0
-7 -4 -4 -10z"/>
<path d="M550 2850 c0 -5 5 -10 10 -10 6 0 10 5 10 10 0 6 -4 10 -10 10 -5 0
-10 -4 -10 -10z"/>
<path d="M1430 2850 c0 -5 5 -10 10 -10 6 0 10 5 10 10 0 6 -4 10 -10 10 -5 0
-10 -4 -10 -10z"/>
<path d="M1476 2845 c-3 -8 -1 -15 4 -15 6 0 10 7 10 15 0 8 -2 15 -4 15 -2 0
-6 -7 -10 -15z"/>
<path d="M320 2829 c0 -5 5 -7 10 -4 6 3 10 8 10 11 0 2 -4 4 -10 4 -5 0 -10
-5 -10 -11z"/>
<path d="M385 2820 c-3 -5 -1 -10 4 -10 6 0 11 5 11 10 0 6 -2 10 -4 10 -3 0
-8 -4 -11 -10z"/>
<path d="M1057 2823 c-4 -3 -7 -11 -7 -17 0 -6 5 -5 12 2 6 6 9 14 7 17 -3 3
-9 2 -12 -2z"/>
<path d="M6150 2821 c0 -5 7 -11 14 -14 10 -4 13 -1 9 9 -6 15 -23 19 -23 5z"/>
<path d="M1484 2801 c-18 -14 -19 -20 -10 -33 11 -15 14 -13 24 15 14 38 13
40 -14 18z"/>
<path d="M345 2790 c-3 -5 1 -10 9 -10 8 0 18 5 21 10 3 6 -1 10 -9 10 -8 0
-18 -4 -21 -10z"/>
<path d="M410 2791 c0 -5 10 -11 22 -15 18 -4 20 -8 10 -18 -16 -16 -16 -41 1
-36 18 7 17 51 -2 65 -19 15 -31 16 -31 4z"/>
<path d="M1040 2770 c0 -5 9 -10 21 -10 11 0 17 5 14 10 -3 6 -13 10 -21 10
-8 0 -14 -4 -14 -10z"/>
<path d="M376 2755 c-3 -9 0 -15 9 -15 8 0 15 7 15 15 0 8 -4 15 -9 15 -5 0
-11 -7 -15 -15z"/>
<path d="M1655 2760 c-3 -5 -2 -10 4 -10 5 0 13 5 16 10 3 6 2 10 -4 10 -5 0
-13 -4 -16 -10z"/>
<path d="M1510 2741 c0 -6 -20 -16 -45 -22 -25 -6 -48 -16 -51 -21 -3 -5 6 -6
23 -1 15 4 44 7 63 6 25 -1 30 1 20 8 -13 7 -13 10 -1 18 9 6 10 11 2 15 -6 4
-11 2 -11 -3z"/>
<path d="M287 2723 c-4 -3 -7 -11 -7 -17 0 -6 5 -5 12 2 6 6 9 14 7 17 -3 3
-9 2 -12 -2z"/>
<path d="M340 2720 c0 -5 5 -10 10 -10 17 0 11 -18 -7 -22 -15 -3 -14 -6 6
-17 15 -8 21 -9 16 -2 -4 7 -2 17 4 24 7 9 5 16 -10 25 -11 7 -19 8 -19 2z"/>
<path d="M3414 2721 c3 -5 17 -11 31 -13 20 -4 23 -3 14 8 -12 15 -54 20 -45
5z"/>
<path d="M480 2705 c0 -8 7 -15 15 -15 8 0 15 7 15 15 0 8 -7 15 -15 15 -8 0
-15 -7 -15 -15z"/>
<path d="M1380 2710 c0 -5 5 -10 10 -10 6 0 10 5 10 10 0 6 -4 10 -10 10 -5 0
-10 -4 -10 -10z"/>
<path d="M340 2594 c0 -17 22 -14 28 4 2 7 -3 12 -12 12 -9 0 -16 -7 -16 -16z"/>
<path d="M2631 2544 c0 -11 3 -14 6 -6 3 7 2 16 -1 19 -3 4 -6 -2 -5 -13z"/>
<path d="M2215 2300 c3 -5 8 -10 11 -10 2 0 4 5 4 10 0 6 -5 10 -11 10 -5 0
-7 -4 -4 -10z"/>
<path d="M4595 2193 c-11 -2 -27 -7 -35 -11 -8 -3 -19 -6 -25 -7 -5 0 -26 -7
-45 -15 -36 -15 -140 -111 -140 -129 0 -6 -5 -11 -11 -11 -8 0 -8 -4 0 -14 11
-13 15 -12 32 5 10 10 19 23 19 27 0 20 81 89 119 102 23 7 44 17 46 20 11 19
167 -33 197 -66 19 -19 32 -24 78 -23 43 0 50 2 33 9 -22 9 -31 34 -15 43 4 2
2 2 -5 1 -7 -2 -15 1 -18 6 -4 6 -15 10 -26 10 -10 0 -19 5 -19 10 0 6 5 10
10 10 6 0 10 5 10 11 0 7 -10 9 -25 5 -14 -4 -55 0 -91 9 -36 8 -66 14 -67 14
-1 -1 -11 -3 -22 -6z"/>
<path d="M4850 2189 c0 -5 5 -7 10 -4 6 3 10 8 10 11 0 2 -4 4 -10 4 -5 0 -10
-5 -10 -11z"/>
<path d="M7945 2180 c-4 -6 2 -10 12 -10 11 0 25 -6 32 -12 11 -11 13 -10 9 1
-5 18 -45 33 -53 21z"/>
<path d="M7940 2146 c0 -9 30 -14 35 -6 4 6 -3 10 -14 10 -12 0 -21 -2 -21 -4z"/>
<path d="M7868 2114 c13 -9 26 -13 30 -9 8 8 -17 25 -38 25 -9 0 -6 -6 8 -16z"/>
<path d="M4567 2091 c6 -25 -11 -35 -27 -16 -7 8 -16 15 -21 15 -11 0 -49 -60
-49 -78 0 -16 64 -7 98 15 12 7 27 11 32 8 12 -7 90 15 90 26 0 19 -55 49 -90
49 -32 0 -37 -3 -33 -19z"/>
<path d="M870 2043 c0 -5 11 -13 25 -20 25 -11 42 -2 30 17 -7 12 -55 14 -55
3z"/>
<path d="M828 2033 c7 -3 16 -2 19 1 4 3 -2 6 -13 5 -11 0 -14 -3 -6 -6z"/>
<path d="M7983 2013 c-18 -7 -16 -23 2 -23 8 0 15 7 15 15 0 8 -1 15 -2 14 -2
0 -9 -3 -15 -6z"/>
<path d="M417 1876 c-10 -8 -15 -16 -10 -19 4 -3 19 3 32 14 26 22 6 26 -22 5z"/>
<path d="M7360 1790 c0 -5 5 -10 11 -10 5 0 7 5 4 10 -3 6 -8 10 -11 10 -2 0
-4 -4 -4 -10z"/>
<path d="M4156 1774 c-22 -56 8 -146 57 -170 40 -20 144 -127 139 -142 -2 -7
9 -17 25 -24 28 -12 76 -48 124 -94 25 -23 41 -65 53 -141 6 -36 -8 -46 -17
-12 -3 11 -15 23 -26 26 -12 3 -21 11 -21 17 0 16 -71 56 -99 56 -11 0 -21 4
-21 8 0 13 -63 2 -81 -14 -9 -8 -19 -11 -22 -8 -4 4 -13 1 -22 -6 -12 -10 -15
-10 -15 0 0 9 -6 8 -19 -4 -10 -10 -25 -14 -35 -10 -13 5 -17 2 -14 -12 3 -19
-7 -23 -79 -26 -18 -1 -33 -7 -33 -14 0 -8 -13 -11 -37 -9 -21 1 -44 -2 -50
-7 -9 -7 -13 -7 -13 1 0 6 -4 11 -10 11 -5 0 -10 -7 -10 -15 0 -20 -19 -19
-26 0 -5 12 -10 13 -20 4 -7 -6 -18 -8 -24 -4 -5 3 -10 -1 -10 -9 0 -9 -4 -16
-10 -16 -5 0 -10 4 -10 9 0 15 -71 -11 -81 -31 -5 -10 -16 -15 -25 -11 -10 4
-17 -2 -21 -16 -3 -11 -10 -21 -15 -21 -6 0 -8 -7 -5 -15 4 -8 1 -17 -4 -21
-6 -3 -8 -19 -5 -35 4 -22 2 -29 -9 -29 -10 0 -15 -10 -15 -31 0 -23 -4 -30
-14 -26 -10 4 -14 -3 -13 -29 1 -19 5 -34 9 -34 4 0 8 -5 8 -11 0 -6 -8 -8
-18 -5 -13 4 -18 1 -18 -14 0 -11 5 -20 11 -20 5 0 16 -9 23 -21 10 -16 11
-24 1 -35 -14 -17 -12 -19 22 -27 37 -9 77 24 81 66 2 17 8 31 14 30 7 -1 28
24 49 57 24 39 49 64 72 75 20 10 57 30 82 46 24 16 53 29 63 29 26 0 98 24
98 32 0 15 113 29 149 18 15 -4 41 -2 61 5 43 15 101 0 151 -38 19 -13 44 -28
56 -31 12 -4 25 -16 28 -27 4 -10 11 -19 17 -19 14 0 58 -51 59 -70 1 -8 2
-28 3 -45 1 -25 8 -32 36 -42 19 -7 54 -12 77 -12 31 -1 46 -7 57 -23 17 -24
21 -19 29 44 3 21 1 40 -4 43 -5 4 -6 18 -3 32 5 18 3 24 -5 19 -7 -5 -11 0
-11 13 0 12 -4 21 -10 21 -5 0 -10 11 -10 24 0 27 -63 101 -78 92 -6 -3 -12 1
-16 9 -3 8 0 15 6 15 6 0 -10 21 -35 46 -26 25 -45 50 -42 54 3 5 1 11 -5 15
-5 3 -10 0 -11 -7 -1 -7 -5 4 -10 25 -5 21 -22 51 -37 66 -15 16 -43 53 -62
84 -21 33 -43 57 -55 59 -13 2 -19 10 -18 23 2 19 -10 29 -96 80 -29 17 -81
63 -81 72 0 5 -10 13 -22 18 -37 17 -69 73 -62 111 6 33 -9 56 -20 28z m-431
-944 c3 -5 1 -10 -4 -10 -6 0 -11 5 -11 10 0 6 2 10 4 10 3 0 8 -4 11 -10z"/>
<path d="M7410 1749 c0 -5 5 -7 10 -4 6 3 10 8 10 11 0 2 -4 4 -10 4 -5 0 -10
-5 -10 -11z"/>
<path d="M3292 1735 c-13 -7 -41 -31 -63 -54 -48 -50 -39 -51 80 -15 138 43
131 38 91 63 -39 23 -73 25 -108 6z m43 -16 c4 -6 5 -12 2 -15 -7 -7 -37 7
-37 17 0 13 27 11 35 -2z"/>
<path d="M7325 1730 c-3 -5 -1 -10 4 -10 6 0 11 5 11 10 0 6 -2 10 -4 10 -3 0
-8 -4 -11 -10z"/>
<path d="M1605 1694 c-11 -8 -24 -13 -30 -10 -7 2 -10 -7 -7 -25 2 -16 9 -29
14 -29 6 0 8 -9 5 -20 -3 -13 0 -20 9 -20 8 0 14 9 14 19 0 22 42 41 48 22 2
-6 10 -11 17 -11 7 0 15 -7 19 -15 3 -8 1 -15 -5 -15 -6 0 -25 -10 -41 -22
-30 -21 -31 -21 -44 -3 -8 10 -14 14 -14 8 0 -7 5 -15 10 -18 6 -4 7 -12 3
-18 -11 -19 -9 -51 5 -65 8 -9 10 -28 6 -55 -5 -38 -4 -40 9 -24 8 10 18 14
21 9 3 -5 -1 -15 -9 -22 -13 -11 -19 -9 -36 9 -23 24 -40 21 -20 -3 7 -8 10
-20 6 -25 -3 -6 0 -9 7 -6 8 3 14 -4 15 -21 2 -38 21 -70 52 -85 14 -8 29 -18
33 -23 3 -5 29 -10 57 -10 45 -1 51 1 56 23 7 26 20 19 27 -14 4 -16 7 -13 20
17 9 20 26 43 37 50 12 7 21 21 21 30 0 10 5 18 10 18 13 0 13 45 1 68 -6 9
-13 34 -16 55 -6 39 -6 39 -27 20 -19 -16 -21 -16 -15 -1 6 18 -65 138 -83
138 -5 0 0 -10 11 -21 15 -15 18 -24 10 -28 -7 -5 -9 -15 -5 -26 5 -13 4 -16
-5 -11 -6 4 -11 15 -10 24 3 30 -1 43 -9 38 -5 -3 -36 22 -70 54 -34 33 -65
60 -69 60 -4 0 -17 -7 -28 -16z m72 -146 c-3 -8 -6 -5 -6 6 -1 11 2 17 5 13 3
-3 4 -12 1 -19z m101 -168 c0 -16 -2 -29 -6 -28 -4 1 -17 -3 -28 -10 -18 -9
-24 -9 -35 4 -10 13 -10 17 2 25 8 5 19 7 25 5 6 -2 16 5 22 15 16 26 19 24
20 -11z"/>
<path d="M7490 1698 c0 -9 -4 -18 -9 -20 -10 -4 -2 -68 9 -68 12 0 30 49 19
55 -5 4 -7 10 -5 14 3 4 1 13 -5 21 -7 13 -9 12 -9 -2z"/>
<path d="M3855 1676 c-35 -13 -85 -50 -85 -63 0 -5 -12 -22 -27 -39 -23 -24
-27 -36 -23 -64 4 -29 10 -35 37 -41 43 -8 86 14 126 65 17 22 52 61 76 85 41
41 43 45 25 58 -21 15 -87 15 -129 -1z"/>
<path d="M7416 1681 c-3 -5 1 -14 9 -21 13 -10 15 -9 15 9 0 21 -14 28 -24 12z"/>
<path d="M7570 1686 c0 -2 9 -6 20 -9 11 -3 18 -1 14 4 -5 9 -34 13 -34 5z"/>
<path d="M7540 1671 c0 -6 5 -13 10 -16 6 -3 10 1 10 9 0 9 -4 16 -10 16 -5 0
-10 -4 -10 -9z"/>
<path d="M7440 1630 c0 -5 5 -10 11 -10 5 0 7 5 4 10 -3 6 -8 10 -11 10 -2 0
-4 -4 -4 -10z"/>
<path d="M73 1608 c-2 -5 -20 -8 -39 -8 -34 0 -34 0 -34 -45 0 -44 1 -45 33
-45 36 0 197 73 197 90 0 5 -12 10 -27 11 -16 0 -50 1 -76 2 -27 1 -51 -1 -54
-5z"/>
<path d="M7591 1594 c0 -11 3 -14 6 -6 3 7 2 16 -1 19 -3 4 -6 -2 -5 -13z"/>
<path d="M7630 1570 c0 -5 5 -10 10 -10 6 0 10 5 10 10 0 6 -4 10 -10 10 -5 0
-10 -4 -10 -10z"/>
<path d="M2118 1533 c7 -3 16 -2 19 1 4 3 -2 6 -13 5 -11 0 -14 -3 -6 -6z"/>
<path d="M7323 1512 c-6 -4 -15 -20 -18 -35 -9 -34 -23 -35 -35 -1 -6 14 -15
22 -20 19 -6 -4 -8 -11 -5 -16 10 -16 -39 -10 -77 10 -35 17 -48 17 -48 1 0
-3 24 -17 53 -29 28 -12 99 -44 157 -70 58 -27 121 -54 140 -61 38 -13 41 -14
149 -60 81 -35 139 -51 250 -71 40 -7 80 -19 87 -27 26 -26 44 -7 44 48 0 34
-4 49 -11 45 -6 -4 -8 -13 -5 -21 3 -8 -1 -14 -9 -14 -9 0 -12 6 -9 15 3 8 -3
26 -14 40 -11 14 -22 21 -24 15 -2 -6 -22 2 -46 19 -23 17 -53 31 -67 31 -14
0 -25 5 -25 11 0 6 -7 8 -16 5 -9 -3 -12 -2 -8 5 3 6 -2 19 -13 28 -22 21 -63
12 -63 -13 0 -8 -5 -18 -12 -22 -7 -4 -8 -3 -4 5 4 6 2 25 -6 41 -11 26 -18
30 -47 28 -20 -1 -36 3 -39 10 -5 15 -33 16 -29 1 4 -21 -20 -20 -26 1 -3 11
-10 20 -16 20 -14 0 -14 -11 -1 -44 5 -15 6 -26 1 -26 -5 0 -12 14 -16 30 -8
35 -24 40 -26 8 -1 -20 -2 -20 -6 -4 -7 25 -28 46 -47 46 -10 0 -13 -6 -10
-15 7 -17 -21 -21 -31 -5 -4 6 -10 8 -15 5 -4 -3 -13 2 -20 10 -10 12 -9 16 4
21 9 3 16 10 16 15 0 11 -21 12 -37 1z m32 -72 c-3 -5 -15 -10 -26 -10 -11 0
-17 5 -14 10 3 6 15 10 26 10 11 0 17 -4 14 -10z m35 -10 c0 -5 -5 -10 -11
-10 -5 0 -7 5 -4 10 3 6 8 10 11 10 2 0 4 -4 4 -10z m50 -10 c0 -5 -4 -10 -10
-10 -5 0 -10 5 -10 10 0 6 5 10 10 10 6 0 10 -4 10 -10z m165 -10 c3 -5 1 -10
-4 -10 -6 0 -11 5 -11 10 0 6 2 10 4 10 3 0 8 -4 11 -10z m135 -20 c0 -5 -4
-10 -10 -10 -5 0 -10 5 -10 10 0 6 5 10 10 10 6 0 10 -4 10 -10z m110 -96 c0
-13 -3 -14 -14 -5 -11 10 -16 9 -24 -5 -6 -11 -11 -13 -16 -5 -11 17 2 31 30
31 15 0 24 -6 24 -16z m58 -15 c1 -9 -7 -15 -23 -15 -26 -2 -35 20 -12 29 18
8 32 2 35 -14z m38 -36 c-10 -10 -19 5 -10 18 6 11 8 11 12 0 2 -7 1 -15 -2
-18z"/>
<path d="M7040 1500 c0 -5 17 -10 38 -9 33 1 34 2 12 9 -36 11 -50 11 -50 0z"/>
<path d="M7490 1500 c0 -5 5 -10 11 -10 5 0 7 5 4 10 -3 6 -8 10 -11 10 -2 0
-4 -4 -4 -10z"/>
<path d="M1928 1473 c7 -3 16 -2 19 1 4 3 -2 6 -13 5 -11 0 -14 -3 -6 -6z"/>
<path d="M4440 1460 c0 -5 5 -10 10 -10 6 0 10 5 10 10 0 6 -4 10 -10 10 -5 0
-10 -4 -10 -10z"/>
<path d="M3605 1451 c-3 -5 3 -12 12 -14 17 -4 17 -5 1 -6 -22 -1 -23 -29 -4
-57 16 -22 70 -30 95 -15 16 10 6 31 -15 31 -8 0 -14 5 -14 10 0 6 -10 10 -22
11 -21 0 -21 1 -4 8 17 7 16 8 -7 24 -30 20 -34 20 -42 8z"/>
<path d="M7960 1330 c0 -5 7 -10 16 -10 8 0 12 5 9 10 -3 6 -10 10 -16 10 -5
0 -9 -4 -9 -10z"/>
<path d="M7970 1290 c0 -5 5 -10 10 -10 6 0 10 5 10 10 0 6 -4 10 -10 10 -5 0
-10 -4 -10 -10z"/>
<path d="M7065 1210 c-3 -5 -1 -10 4 -10 6 0 11 5 11 10 0 6 -2 10 -4 10 -3 0
-8 -4 -11 -10z"/>
<path d="M2175 1100 c-3 -5 1 -10 10 -10 9 0 13 5 10 10 -3 6 -8 10 -10 10 -2
0 -7 -4 -10 -10z"/>
<path d="M2140 1090 c0 -5 5 -10 10 -10 6 0 10 5 10 10 0 6 -4 10 -10 10 -5 0
-10 -4 -10 -10z"/>
<path d="M7978 1073 c7 -3 16 -2 19 1 4 3 -2 6 -13 5 -11 0 -14 -3 -6 -6z"/>
<path d="M7865 1050 c4 -6 11 -8 16 -5 14 9 11 15 -7 15 -8 0 -12 -5 -9 -10z"/>
<path d="M7879 1020 c-31 -26 -15 -26 18 0 14 11 21 20 15 20 -5 0 -20 -9 -33
-20z"/>
<path d="M7700 1010 c0 -5 5 -10 10 -10 6 0 10 5 10 10 0 6 -4 10 -10 10 -5 0
-10 -4 -10 -10z"/>
<path d="M7830 992 c0 -10 22 -32 32 -32 12 0 -2 28 -18 34 -8 3 -14 2 -14 -2z"/>
<path d="M1402 960 c-43 -7 -62 -21 -62 -50 0 -32 19 -43 86 -50 38 -4 74 -8
79 -10 26 -7 35 2 35 33 -1 62 -49 89 -138 77z"/>
<path d="M4207 753 c-4 -3 -19 -7 -34 -9 -16 -2 -48 -6 -73 -9 -25 -4 -76 -7
-113 -8 -39 -1 -71 -7 -75 -14 -4 -6 -14 -11 -22 -11 -8 1 -24 0 -35 -1 -16
-1 -17 -3 -5 -11 11 -7 9 -11 -14 -20 -28 -10 -28 -11 -10 -25 12 -8 23 -10
29 -4 11 11 52 12 59 0 3 -5 27 -7 53 -6 27 1 74 3 106 4 44 1 57 4 57 16 0
12 4 14 17 6 11 -6 24 -6 37 1 11 6 42 8 73 4 41 -5 54 -3 51 6 -3 7 -15 15
-29 19 -19 6 -15 7 17 8 26 1 46 -5 54 -14 15 -18 40 -20 40 -2 0 6 5 4 11 -5
6 -12 22 -18 44 -18 19 0 35 -4 35 -10 0 -5 3 -9 8 -8 17 4 72 -15 73 -25 0
-7 4 -3 9 8 7 17 9 17 9 3 1 -11 9 -18 21 -18 12 0 20 7 21 18 0 13 2 12 9 -5
6 -15 15 -20 29 -16 12 3 21 9 21 14 0 5 -6 6 -13 4 -6 -3 -18 5 -26 17 -12
20 -12 21 0 11 21 -17 85 -27 93 -14 4 6 15 11 24 11 16 0 82 52 82 63 0 10
-155 2 -162 -8 -5 -6 -11 -5 -17 3 -7 12 -62 19 -191 25 -19 1 -38 6 -42 11
-4 6 -12 5 -21 -2 -10 -9 -18 -8 -33 3 -19 15 -154 22 -167 8z m383 -83 c0 -5
-4 -10 -10 -10 -5 0 -10 5 -10 10 0 6 5 10 10 10 6 0 10 -4 10 -10z m117 -22
c-3 -8 -6 -5 -6 6 -1 11 2 17 5 13 3 -3 4 -12 1 -19z"/>
<path d="M4320 670 c0 -5 5 -10 10 -10 6 0 10 5 10 10 0 6 -4 10 -10 10 -5 0
-10 -4 -10 -10z"/>
<path d="M1225 560 c-3 -5 -2 -10 4 -10 5 0 13 5 16 10 3 6 2 10 -4 10 -5 0
-13 -4 -16 -10z"/>
<path d="M3071 324 c0 -11 3 -14 6 -6 3 7 2 16 -1 19 -3 4 -6 -2 -5 -13z"/>
<path d="M320 264 c0 -8 5 -12 10 -9 6 3 10 10 10 16 0 5 -4 9 -10 9 -5 0 -10
-7 -10 -16z"/>
<path d="M4680 112 c0 -6 5 -14 10 -17 6 -4 8 -14 6 -23 -11 -35 37 -64 54
-33 8 16 7 18 -12 13 -16 -4 -20 -2 -16 10 7 16 2 26 -24 47 -11 8 -18 9 -18
3z"/>
<path d="M0 70 c0 -11 7 -20 15 -20 13 0 14 4 5 20 -6 11 -13 20 -15 20 -3 0
-5 -9 -5 -20z"/>
<path d="M3160 21 c0 -12 5 -21 10 -21 6 0 10 6 10 14 0 8 -4 18 -10 21 -5 3
-10 -3 -10 -14z"/>
<path d="M4763 23 c-15 -5 -17 -23 -4 -23 5 0 11 7 15 15 3 8 4 15 3 14 -1 0
-8 -3 -14 -6z"/>
<path d="M3198 3 c7 -3 16 -2 19 1 4 3 -2 6 -13 5 -11 0 -14 -3 -6 -6z"/>
</g>
</svg>
