<?xml version="1.0" standalone="no"?>
<!DOCTYPE svg PUBLIC "-//W3C//DTD SVG 20010904//EN"
 "http://www.w3.org/TR/2001/REC-SVG-20010904/DTD/svg10.dtd">
<svg version="1.0" xmlns="http://www.w3.org/2000/svg"
 width="736.000000pt" height="736.000000pt" viewBox="0 0 736.000000 736.000000"
 preserveAspectRatio="xMidYMid meet">

<g transform="translate(0.000000,736.000000) scale(0.100000,-0.100000)"
fill="#000000" stroke="none">
<path d="M6875 7111 c-73 -18 -137 -69 -170 -134 -55 -111 -23 -250 73 -320
63 -46 113 -61 182 -54 108 9 192 78 225 184 15 47 16 66 7 114 -28 152 -170
245 -317 210z m200 -162 c90 -43 53 -71 -45 -34 -36 13 -68 16 -157 13 -83 -3
-114 -1 -117 8 -6 14 10 29 39 37 11 3 67 5 125 3 87 -2 114 -7 155 -27z m-32
-88 c27 -11 47 -27 47 -36 0 -20 -9 -19 -83 6 -50 17 -78 20 -145 16 -81 -5
-97 -1 -84 20 11 18 42 22 132 19 58 -3 100 -10 133 -25z m-40 -73 c39 -12 65
-34 53 -45 -3 -4 -29 1 -57 11 -44 16 -146 24 -189 14 -8 -2 -15 4 -15 12 0
29 119 33 208 8z"/>
<path d="M5737 4332 c-40 -24 -41 -44 -8 -104 44 -79 57 -155 43 -264 -26
-213 -44 -267 -110 -326 -23 -21 -42 -41 -42 -45 0 -17 56 -63 77 -63 13 0 23
4 23 8 0 4 16 32 36 62 71 110 113 204 113 256 0 46 4 80 14 129 10 45 -21
204 -54 275 -38 83 -53 95 -92 72z"/>
<path d="M2945 4291 c-30 -6 -30 -7 -35 -86 l-5 -80 -52 -3 c-39 -2 -53 -7
-57 -20 -27 -96 -15 -123 52 -119 l47 2 -4 -162 c-4 -187 2 -213 57 -239 41
-19 156 -22 178 -3 14 12 19 55 8 83 -4 12 -20 16 -54 16 -58 0 -59 2 -67 131
-10 158 4 188 69 158 16 -7 32 -7 49 -1 23 9 26 16 27 71 2 58 0 62 -24 71
-14 6 -45 10 -70 10 -41 0 -44 2 -40 23 3 12 7 48 10 80 6 55 5 58 -20 67 -14
6 -28 9 -32 9 -4 -1 -20 -4 -37 -8z"/>
<path d="M4606 4144 c-24 -23 -29 -59 -16 -98 9 -29 18 -37 45 -42 49 -9 72 2
85 42 22 64 -7 114 -65 114 -18 0 -41 -7 -49 -16z"/>
<path d="M1609 4096 c-57 -43 -79 -76 -79 -119 0 -71 88 -147 188 -162 27 -4
55 -17 75 -35 l32 -28 -17 -36 c-29 -60 -79 -61 -160 -1 -35 26 -50 45 -58 75
-10 39 -12 40 -54 40 -30 0 -46 -5 -50 -15 -11 -30 -18 -115 -12 -149 6 -30
12 -37 44 -45 22 -7 40 -7 46 -1 5 5 34 -4 74 -26 67 -35 125 -44 175 -25 40
16 98 73 118 116 14 32 18 35 18 17 3 -94 125 -166 241 -143 30 6 67 20 81 30
16 12 35 17 51 14 14 -3 29 0 33 7 5 8 11 4 19 -12 15 -29 83 -43 158 -31 l53
8 3 48 c3 41 0 49 -16 54 -16 4 -20 17 -25 86 -5 76 -4 84 17 105 13 14 40 26
62 29 36 4 41 2 52 -21 13 -30 54 -43 91 -29 23 8 26 14 24 51 -2 45 -34 97
-67 109 -12 4 -59 8 -106 9 -47 1 -105 5 -130 9 -32 5 -57 2 -83 -9 -38 -15
-38 -16 -35 -68 3 -45 6 -53 24 -56 18 -3 22 -12 28 -70 8 -94 8 -142 -3 -142
-5 0 -16 -2 -24 -5 -8 -4 -24 9 -40 32 -39 56 -63 68 -94 48 -13 -9 -31 -32
-39 -51 -42 -101 -165 -62 -181 58 l-6 40 125 -7 c69 -4 134 -4 146 -1 58 19
24 162 -51 212 -53 36 -165 46 -215 20 -44 -23 -87 -98 -107 -190 l-6 -29 -32
31 c-32 30 -92 58 -177 84 -29 8 -49 21 -57 37 -14 30 -1 61 26 61 38 0 124
-33 145 -54 11 -13 35 -26 53 -30 42 -10 63 20 62 89 -2 88 -9 100 -59 99 -27
-1 -47 -7 -55 -17 -10 -14 -17 -15 -56 -3 -102 31 -121 30 -170 -8z m590 -180
l22 -24 -48 5 c-26 3 -64 9 -83 13 -35 7 -35 7 -10 18 45 19 94 14 119 -12z"/>
<path d="M3250 4061 c-50 -26 -80 -74 -80 -128 0 -30 5 -45 15 -50 25 -9 89
20 94 42 6 33 22 45 62 45 35 0 79 -28 79 -51 0 -3 -29 -9 -65 -11 -86 -7
-123 -30 -157 -97 -34 -66 -35 -113 -5 -166 41 -74 126 -94 232 -54 l55 20 29
-20 c40 -29 59 -26 98 11 31 30 33 30 33 10 0 -28 28 -42 87 -42 66 0 78 10
78 64 0 34 -6 50 -22 66 -37 34 -31 91 13 140 53 59 99 65 122 16 11 -26 -1
-155 -19 -188 -14 -26 -11 -94 5 -108 20 -16 172 -3 192 18 9 9 14 28 12 50
-2 29 -8 37 -28 42 -24 6 -25 7 -25 110 -1 88 -4 112 -23 147 -45 86 -130 115
-229 79 l-43 -15 0 24 c0 23 -4 25 -47 25 -27 0 -58 3 -70 6 -26 7 -43 -19
-49 -81 -5 -43 -4 -44 28 -53 l33 -9 -3 -99 c-3 -112 -15 -149 -43 -133 -30
16 -42 50 -40 115 4 116 -57 252 -125 280 -49 20 -152 18 -194 -5z m191 -283
c5 -7 9 -25 9 -39 0 -21 -8 -30 -41 -45 -53 -24 -79 -21 -106 11 -26 29 -29
57 -10 72 39 31 129 32 148 1z"/>
<path d="M4203 4027 c-56 -31 -104 -137 -105 -230 0 -72 27 -158 60 -190 42
-40 124 -61 186 -49 28 6 58 13 67 17 12 4 14 -1 11 -28 -5 -44 20 -101 53
-123 15 -9 49 -23 77 -30 42 -11 55 -11 89 2 82 34 114 105 104 237 l-6 82 21
-39 c44 -86 108 -125 200 -126 77 0 116 23 169 98 95 137 60 277 -86 348 -51
25 -58 26 -106 15 -28 -6 -65 -22 -82 -36 -42 -31 -91 -110 -99 -159 -4 -21
-9 -36 -11 -34 -3 2 -9 35 -14 73 -13 90 -30 107 -112 113 -52 4 -65 2 -76
-14 -23 -31 -15 -114 11 -114 7 0 20 -6 30 -13 27 -20 42 -260 20 -295 -23
-36 -46 -24 -60 33 -9 32 -10 53 -4 59 6 6 10 17 10 25 0 21 -48 87 -77 106
-22 15 -26 15 -50 0 -13 -9 -31 -32 -39 -51 -43 -102 -161 -62 -181 61 l-6 37
141 -8 141 -7 11 27 c16 42 12 68 -17 126 -37 71 -90 100 -183 100 -36 -1 -75
-6 -87 -13z m162 -112 l30 -25 -30 5 c-16 2 -57 7 -90 11 -57 6 -58 7 -35 20
40 21 91 17 125 -11z m674 -55 c27 -26 31 -37 31 -80 0 -95 -90 -157 -163
-111 -41 25 -56 55 -49 101 6 41 47 107 70 113 48 13 80 6 111 -23z"/>
<path d="M5481 4001 c-45 -45 -30 -123 26 -137 37 -10 93 53 93 105 0 48 -81
70 -119 32z"/>
<path d="M5490 3760 c-40 -40 -14 -130 38 -130 54 0 85 103 40 134 -30 21 -54
20 -78 -4z"/>
<path d="M3489 2396 c-64 -14 -154 -49 -216 -84 l-43 -23 26 -52 c41 -81 36
-79 117 -42 188 87 414 82 599 -11 l48 -24 30 60 c16 33 30 63 30 68 0 15
-154 82 -234 102 -92 23 -266 26 -357 6z"/>
<path d="M3130 2142 c-132 -137 -199 -289 -208 -473 -2 -59 -1 -124 2 -145 l8
-38 20 54 c11 30 22 69 24 85 3 17 9 64 15 105 21 144 95 287 199 384 27 26
50 50 50 55 0 4 -9 16 -20 26 -21 19 -22 18 -90 -53z"/>
<path d="M4093 2188 l-20 -20 66 -67 c109 -110 170 -238 191 -397 6 -44 20
-110 32 -149 l22 -70 9 45 c13 69 1 226 -24 305 -41 133 -125 266 -212 338
l-44 36 -20 -21z"/>
<path d="M3163 1686 l-28 -24 0 -242 0 -242 28 -24 c23 -20 39 -24 92 -24 54
0 68 4 94 26 l31 26 0 235 0 235 -29 29 c-27 26 -36 29 -95 29 -54 0 -69 -4
-93 -24z"/>
<path d="M3965 1685 l-25 -24 0 -241 0 -241 25 -24 c21 -22 33 -25 92 -25 129
0 135 16 131 309 l-3 223 -28 24 c-24 20 -39 24 -98 24 -61 0 -73 -3 -94 -25z"/>
<path d="M3036 1591 c-42 -47 -60 -185 -33 -258 13 -35 52 -83 67 -83 6 0 10
66 10 180 0 190 -4 205 -44 161z"/>
<path d="M4240 1430 c0 -99 4 -180 8 -180 11 0 46 39 61 67 19 36 25 136 11
191 -11 49 -48 102 -70 102 -6 0 -10 -61 -10 -180z"/>
</g>
</svg>
